<svg width="150" height="26" viewBox="0 0 150 26" fill="none" xmlns="http://www.w3.org/2000/svg">
<g clip-path="url(#clip0_3179_1728)">
<path d="M12.9621 25.5243V20.6245C18.1362 20.6245 22.1163 15.4746 20.1511 10.0247C19.4049 7.99979 17.8128 6.37484 15.7979 5.64986C10.375 3.67491 5.25062 7.6748 5.25062 12.8747H0.375C0.375 4.59988 8.3352 -1.84995 16.967 0.849983C20.7481 2.02495 23.7332 5.04987 24.9024 8.82477C27.5889 17.5245 21.1959 25.5243 12.9621 25.5243Z" fill="#0080FF"/>
<path fill-rule="evenodd" clip-rule="evenodd" d="M12.9601 20.6244H8.10938V15.7495H12.9601V20.6244Z" fill="#0080FF"/>
<path fill-rule="evenodd" clip-rule="evenodd" d="M8.11025 24.3744H4.37891V20.6245H8.11025V24.3744Z" fill="#0080FF"/>
<path fill-rule="evenodd" clip-rule="evenodd" d="M4.38042 20.6244H1.24609V17.4995H4.38042V20.6244Z" fill="#0080FF"/>
<path d="M45.153 7.54986C43.7102 6.54989 41.9191 6.0249 39.8296 6.0249H35.2773V20.5495H39.8296C41.9191 20.5495 43.7102 20.0245 45.153 18.9496C45.949 18.3996 46.5709 17.5996 46.9938 16.6246C47.4166 15.6496 47.6405 14.4997 47.6405 13.1997C47.6405 11.9247 47.4166 10.7748 46.9938 9.7998C46.5709 8.84983 45.949 8.07485 45.153 7.54986ZM37.939 8.49984H39.3818C40.9739 8.49984 42.2923 8.82483 43.2873 9.42481C44.3818 10.0998 44.954 11.3748 44.954 13.1997C44.954 15.0997 44.3818 16.4246 43.2873 17.1496C42.342 17.7746 41.0236 18.0996 39.4067 18.0996H37.9639V8.49984H37.939Z" fill="#0080FF"/>
<path d="M50.8264 5.8501C50.3787 5.8501 50.0055 6.00009 49.707 6.30009C49.4085 6.60008 49.2344 6.97507 49.2344 7.40006C49.2344 7.85004 49.3836 8.22503 49.707 8.52503C50.0055 8.82502 50.3787 9.00001 50.8264 9.00001C51.2742 9.00001 51.6473 8.85002 51.9458 8.52503C52.2443 8.22503 52.4185 7.82505 52.4185 7.40006C52.4185 6.95007 52.2692 6.57508 51.9458 6.30009C51.6473 6.00009 51.2493 5.8501 50.8264 5.8501Z" fill="#0080FF"/>
<path d="M52.07 10.3247H49.5078V20.5744H52.07V10.3247Z" fill="#0080FF"/>
<path d="M61.3948 11.1747C60.6237 10.4747 59.7531 10.0747 58.8327 10.0747C57.4147 10.0747 56.2456 10.5747 55.3252 11.5247C54.4048 12.4746 53.957 13.7246 53.957 15.1996C53.957 16.6495 54.4048 17.8745 55.3252 18.8745C56.2456 19.8244 57.4147 20.3244 58.8327 20.3244C59.8277 20.3244 60.6734 20.0494 61.37 19.4995V19.7495C61.37 20.5994 61.1461 21.2494 60.6983 21.7244C60.2506 22.1744 59.6287 22.3994 58.8575 22.3994C57.6635 22.3994 56.9421 21.9244 56.0217 20.6994L54.2804 22.3744L54.3302 22.4494C54.7033 22.9744 55.2754 23.4994 56.0466 23.9993C56.8177 24.4993 57.763 24.7493 58.9073 24.7493C60.4247 24.7493 61.6685 24.2743 62.564 23.3494C63.4844 22.4244 63.9322 21.1744 63.9322 19.6245V10.3247H61.4197V11.1747H61.3948ZM60.7232 17.2245C60.2754 17.7245 59.7033 17.9745 58.957 17.9745C58.2108 17.9745 57.6386 17.7245 57.2157 17.2245C56.768 16.7245 56.5441 16.0496 56.5441 15.2246C56.5441 14.3996 56.768 13.6996 57.2157 13.1996C57.6635 12.6996 58.2356 12.4246 58.957 12.4246C59.7033 12.4246 60.2754 12.6746 60.7232 13.1996C61.171 13.6996 61.3948 14.3996 61.3948 15.2246C61.3948 16.0496 61.1461 16.7245 60.7232 17.2245Z" fill="#0080FF"/>
<path d="M68.6598 10.3247H66.0977V20.5744H68.6598V10.3247Z" fill="#0080FF"/>
<path d="M67.4163 5.8501C66.9685 5.8501 66.5954 6.00009 66.2969 6.30009C65.9983 6.60008 65.8242 6.97507 65.8242 7.40006C65.8242 7.85004 65.9735 8.22503 66.2969 8.52503C66.5954 8.82502 66.9685 9.00001 67.4163 9.00001C67.864 9.00001 68.2372 8.85002 68.5357 8.52503C68.8342 8.22503 69.0083 7.82505 69.0083 7.40006C69.0083 6.95007 68.859 6.57508 68.5357 6.30009C68.2372 6.00009 67.8391 5.8501 67.4163 5.8501Z" fill="#0080FF"/>
<path d="M74.2809 7.57471H71.7684V10.3496H70.3008V12.6996H71.7684V16.9495C71.7684 18.2744 72.0421 19.2244 72.5645 19.7744C73.0869 20.3244 74.0072 20.5994 75.3257 20.5994C75.7485 20.5994 76.1714 20.5744 76.5694 20.5494H76.6938V18.1994L75.8232 18.2494C75.2013 18.2494 74.8033 18.1494 74.6043 17.9244C74.4053 17.6994 74.3058 17.2495 74.3058 16.5745V12.6746H76.6938V10.3246H74.3058V7.57471H74.2809Z" fill="#0080FF"/>
<path d="M91.2458 6.0249H88.6836V20.5495H91.2458V6.0249Z" fill="#0080FF"/>
<path d="M117.142 16.8995C116.694 17.4245 116.222 17.8745 115.848 18.0995C115.5 18.3245 115.052 18.4495 114.53 18.4495C113.784 18.4495 113.162 18.1745 112.664 17.5995C112.167 17.0245 111.918 16.2995 111.918 15.4246C111.918 14.5496 112.167 13.8246 112.639 13.2746C113.137 12.6996 113.734 12.4246 114.48 12.4246C115.301 12.4246 116.172 12.9496 116.918 13.8246L118.61 12.1997C117.515 10.7497 116.097 10.0747 114.406 10.0747C112.988 10.0747 111.769 10.5997 110.774 11.5997C109.779 12.5996 109.281 13.8996 109.281 15.4246C109.281 16.9495 109.779 18.2245 110.774 19.2495C111.769 20.2744 112.988 20.7744 114.406 20.7744C116.271 20.7744 117.764 19.9744 118.759 18.4995L117.142 16.8995Z" fill="#0080FF"/>
<path d="M127.667 11.7497C127.294 11.2497 126.796 10.8247 126.199 10.5247C125.577 10.2247 124.881 10.0747 124.085 10.0747C122.642 10.0747 121.473 10.5997 120.602 11.6497C119.756 12.6996 119.309 13.9746 119.309 15.4996C119.309 17.0495 119.781 18.3245 120.726 19.3245C121.647 20.2994 122.916 20.7994 124.433 20.7994C126.149 20.7994 127.592 20.0994 128.637 18.6995L128.687 18.6245L127.02 16.9995C126.871 17.1995 126.647 17.3995 126.448 17.5995C126.199 17.8495 125.95 18.0245 125.702 18.1495C125.328 18.3495 124.881 18.4245 124.408 18.4245C123.687 18.4245 123.115 18.2245 122.667 17.7995C122.244 17.4245 121.995 16.8995 121.945 16.2495H128.736L128.761 15.2996C128.761 14.6246 128.662 13.9996 128.488 13.3996C128.314 12.8246 128.04 12.2746 127.667 11.7497ZM122.07 14.1746C122.194 13.6746 122.418 13.2746 122.741 12.9496C123.09 12.5996 123.537 12.4246 124.085 12.4246C124.707 12.4246 125.179 12.5996 125.503 12.9496C125.801 13.2746 125.975 13.6746 126.025 14.1496H122.07V14.1746Z" fill="#0080FF"/>
<path d="M137.518 11.0996C136.747 10.4246 135.677 10.0996 134.334 10.0996C133.488 10.0996 132.692 10.2996 131.971 10.6496C131.299 10.9996 130.652 11.5496 130.229 12.2996L130.254 12.3245L131.896 13.8995C132.568 12.8245 133.314 12.4495 134.309 12.4495C134.856 12.4495 135.279 12.5995 135.627 12.8745C135.975 13.1495 136.125 13.5245 136.125 13.9745V14.4745C135.478 14.2745 134.856 14.1745 134.234 14.1745C132.966 14.1745 131.921 14.4745 131.15 15.0745C130.378 15.6745 129.98 16.5494 129.98 17.6244C129.98 18.5744 130.304 19.3744 130.975 19.9493C131.647 20.4993 132.468 20.7993 133.438 20.7993C134.408 20.7993 135.329 20.3993 136.15 19.7244V20.5743H138.662V13.9745C138.712 12.7495 138.314 11.7746 137.518 11.0996ZM132.966 16.6494C133.264 16.4494 133.662 16.3494 134.184 16.3494C134.806 16.3494 135.453 16.4744 136.125 16.7244V17.7244C135.577 18.2494 134.831 18.4994 133.911 18.4994C133.463 18.4994 133.115 18.3994 132.891 18.1994C132.667 17.9994 132.543 17.7744 132.543 17.4494C132.543 17.1244 132.692 16.8494 132.966 16.6494Z" fill="#0080FF"/>
<path d="M148.562 11.2996C147.84 10.4996 146.845 10.0996 145.577 10.0996C144.557 10.0996 143.736 10.3996 143.114 10.9746V10.3496H140.602V20.5993H143.164V14.9245C143.164 14.1495 143.338 13.5245 143.711 13.0995C144.084 12.6495 144.557 12.4495 145.228 12.4495C145.801 12.4495 146.248 12.6495 146.572 13.0245C146.895 13.4245 147.069 13.9495 147.069 14.6245V20.5493H149.631V14.6245C149.631 13.2245 149.283 12.0996 148.562 11.2996Z" fill="#0080FF"/>
<path d="M85.4748 11.0996C84.7037 10.4246 83.634 10.0996 82.2907 10.0996C81.445 10.0996 80.6489 10.2996 79.9275 10.6496C79.2559 10.9996 78.6091 11.5496 78.1863 12.2996L78.2111 12.3245L79.8529 13.8995C80.5246 12.8245 81.2708 12.4495 82.2659 12.4495C82.8131 12.4495 83.236 12.5995 83.5843 12.8745C83.9325 13.1495 84.0818 13.5245 84.0818 13.9745V14.4745C83.435 14.2745 82.8131 14.1745 82.1912 14.1745C80.9226 14.1745 79.8778 14.4745 79.1067 15.0745C78.3355 15.6745 77.9375 16.5494 77.9375 17.6244C77.9375 18.5744 78.2609 19.3744 78.9325 19.9493C79.6042 20.4993 80.4251 20.7993 81.3952 20.7993C82.3654 20.7993 83.2858 20.3993 84.1067 19.7244V20.5743H86.6191V13.9745C86.644 12.7495 86.246 11.7746 85.4748 11.0996ZM80.9226 16.6494C81.2211 16.4494 81.6191 16.3494 82.1415 16.3494C82.7634 16.3494 83.4101 16.4744 84.0818 16.7244V17.7244C83.5345 18.2494 82.7883 18.4994 81.8679 18.4994C81.4201 18.4994 81.0718 18.3994 80.848 18.1994C80.6241 17.9994 80.4997 17.7744 80.4997 17.4494C80.4997 17.1244 80.6241 16.8494 80.9226 16.6494Z" fill="#0080FF"/>
<path d="M100.553 20.7745C96.4481 20.7745 93.0898 17.4246 93.0898 13.2747C93.0898 9.12481 96.4232 5.7749 100.553 5.7749C104.657 5.7749 108.015 9.12481 108.015 13.2747C108.015 17.4246 104.657 20.7745 100.553 20.7745ZM100.553 8.44983C97.8908 8.44983 95.7267 10.6248 95.7267 13.2997C95.7267 15.9746 97.8908 18.1496 100.553 18.1496C103.214 18.1496 105.378 15.9746 105.378 13.2997C105.378 10.6248 103.214 8.44983 100.553 8.44983Z" fill="#0080FF"/>
</g>
<defs>
<clipPath id="clip0_3179_1728">
<rect width="150" height="25.7493" fill="white"/>
</clipPath>
</defs>
</svg>
