<svg width="80" height="72" viewBox="0 0 80 72" fill="none" xmlns="http://www.w3.org/2000/svg">
<path d="M17.1445 15.2383H62.8588V55.8732H17.1445V15.2383Z" fill="black"/>
<path d="M22.1172 48.2539H39.26V50.7936H22.1172V48.2539Z" fill="white"/>
<path d="M21.4023 25.7354L22.6747 24.6653C22.7958 24.8352 22.9604 24.9771 23.1551 25.0795C23.3498 25.1819 23.569 25.2419 23.7947 25.2545C24.2823 25.2545 24.6023 24.9565 24.6023 24.3673V20.3174H26.5681V24.3809C26.5975 24.699 26.5539 25.0191 26.4399 25.3218C26.326 25.6245 26.1441 25.9034 25.9052 26.1417C25.6428 26.3586 25.3347 26.5271 24.9986 26.6376C24.6625 26.748 24.3051 26.7981 23.9471 26.7851C23.458 26.8136 22.9686 26.7325 22.5239 26.549C22.0793 26.3656 21.6936 26.0858 21.4023 25.7354Z" fill="white"/>
<path d="M27.4297 20.3174H33.1668V21.8006H29.3573V22.7758H32.7783V24.1303H29.4106V25.1394H33.2202V26.6361H27.4297V20.3174Z" fill="white"/>
<path d="M35.9849 21.8683H33.8516V20.3174H40.1068V21.8547H37.9658V26.6632H35.9849V21.8683Z" fill="white"/>
<path d="M22.1953 29.1757H25.5629C26.2685 29.1286 26.9666 29.3305 27.5058 29.7378C27.6568 29.8741 27.7752 30.0362 27.8537 30.2143C27.9323 30.3924 27.9695 30.5828 27.9629 30.774C27.9715 31.0826 27.87 31.3858 27.6729 31.64C27.4758 31.8943 27.1933 32.0866 26.8658 32.1894C27.2711 32.2555 27.6366 32.448 27.8964 32.7323C28.1563 33.0167 28.2933 33.3741 28.2829 33.7403C28.2829 34.8307 27.2848 35.4944 25.5782 35.4944H22.1953V29.1757ZM26.0048 31.1329C26.0048 30.7807 25.6848 30.5911 25.1058 30.5911H24.1229V31.7018H25.0677C25.6696 31.7018 26.0201 31.5257 26.0201 31.1532L26.0048 31.1329ZM25.3191 32.9344H24.1229V34.106H25.3572C25.9667 34.106 26.302 33.8961 26.302 33.5236C26.302 33.185 25.9972 32.9344 25.3344 32.9344H25.3191Z" fill="white"/>
<path d="M28.9531 29.176H32.0769C32.9091 29.1277 33.7295 29.3707 34.3626 29.8532C34.5867 30.0444 34.7635 30.2751 34.8816 30.5305C34.9996 30.7859 35.0564 31.0604 35.0484 31.3364C35.0621 31.7579 34.9279 32.1728 34.6644 32.5235C34.4009 32.8742 34.0212 33.1434 33.5779 33.2936L35.2846 35.5082H32.9988L31.5665 33.5848H30.9036V35.5082H28.9531V29.176ZM32.0007 32.2236C32.6636 32.2236 33.0598 31.9324 33.0598 31.4718C33.0598 30.9639 32.6484 30.7133 31.9931 30.7133H30.896V32.2439L32.0007 32.2236Z" fill="white"/>
<path d="M37.7826 29.1216H39.6873L42.735 35.5148H40.6092L40.0988 34.3703H37.3331L36.8226 35.5148H34.7578L37.7826 29.1216ZM39.5121 33.0022L38.7502 31.2075L37.9426 33.0022H39.5121Z" fill="white"/>
<path d="M43.0195 29.1553H45.0005V35.5011H43.0195V29.1553Z" fill="white"/>
<path d="M45.7617 29.1553H47.6055L50.1731 32.5415V29.1553H52.1312V35.5011H50.4093L47.7198 32.02V35.5011H45.7617V29.1553Z" fill="white"/>
<path d="M52.4648 34.5395L53.5696 33.3679C54.2116 33.8464 55.0177 34.1163 55.8553 34.1332C56.3963 34.1332 56.6782 33.9706 56.6782 33.6929C56.6782 33.422 56.442 33.2866 55.4668 33.0767C53.9429 32.7651 52.7772 32.3994 52.7772 31.0923C52.7772 29.9139 53.821 29.0606 55.5353 29.0606C56.5975 29.0242 57.6397 29.3242 58.4763 29.9071L57.5163 31.1533C56.9383 30.7689 56.2415 30.5515 55.5201 30.5302C55.0401 30.5302 54.8039 30.6995 54.8039 30.9365C54.8039 31.221 55.0477 31.3497 56.0458 31.5528C57.6763 31.8644 58.6667 32.3385 58.6667 33.5236C58.6667 34.8172 57.5163 35.5554 55.7791 35.5554C54.5728 35.5823 53.3961 35.2216 52.4648 34.5395Z" fill="white"/>
</svg>
