<svg width="100" height="23" viewBox="0 0 100 23" fill="none" xmlns="http://www.w3.org/2000/svg">
<g clip-path="url(#clip0_3527_1611)">
<path d="M21.6413 10.1219L18.0312 8.36538L14.9931 10.0002L14.9536 11.6698L13.4741 10.8176L11.4618 11.8959L11.3829 10.0698L9.3115 8.85234L11.2843 7.94798C11.2645 7.94798 11.2843 8.12189 10.9884 1.98265L6.35234 0L0 1.73916L1.4204 7.75667L3.551 9.21757L1.93332 9.89584L2.97889 14.4351L4.4782 15.6699L3.4129 16.2438L4.24147 19.7569L7.57546 22.87C7.59519 22.8526 7.93056 22.6265 11.8761 19.8612L11.7577 17.4786L13.4543 18.7482C13.4741 18.7308 13.8094 18.5047 16.9264 16.3307L17.0448 14.5742L18.3271 15.3568C18.3468 15.3394 18.6427 15.1481 21.1482 13.3916L21.6413 10.1219Z" fill="#231F20"/>
<path d="M18.3268 15.3392L18.6424 12L15.0125 10L14.9336 13.2696L18.3268 15.3392Z" fill="#005B28"/>
<path d="M13.4545 18.731V15.2701L9.78516 12.8179L10.0613 16.2092L13.4545 18.731Z" fill="#005B28"/>
<path d="M7.57662 22.8699L6.98479 19.3394L3.41406 16.2437L4.24263 19.7568L7.57662 22.8699Z" fill="#005B28"/>
<path d="M18.6427 12.0002L21.6216 10.1219L18.0312 8.36538L14.9931 10.0002L18.6427 12.0002ZM13.4543 15.2699L17.1631 12.9394L13.4938 10.8176L9.78497 12.8176L13.4543 15.2699ZM7.00335 19.3395L11.7183 16.3655L8.04893 13.7394L3.4129 16.2438L7.00335 19.3395ZM5.91833 12.8176L11.4026 10.0698L7.29927 7.65232L1.91359 9.91323L5.91833 12.8176ZM4.4782 4.19138L11.0081 1.98265L6.35234 0L0 1.73916L4.4782 4.19138Z" fill="black"/>
<path d="M21.1277 13.3738C18.3658 15.3043 18.3066 15.339 18.3264 15.339C18.6617 11.8433 18.642 11.9998 18.642 11.9998C21.7984 9.99981 21.6012 10.1216 21.6209 10.1216L21.1277 13.3738Z" fill="#00A762"/>
<path d="M16.9246 16.3129C13.5117 18.713 13.4525 18.7304 13.4525 18.7304C13.413 15.1129 13.4327 15.2694 13.4525 15.2694C17.398 12.7824 17.1416 12.939 17.1416 12.939L16.9246 16.3129Z" fill="#00A762"/>
<path d="M11.873 19.8612C7.5921 22.8526 7.55265 22.87 7.57237 22.87C6.96081 19.2351 6.98054 19.3395 6.98054 19.3395C12.0111 16.1742 11.6955 16.3655 11.7152 16.3655L11.873 19.8612Z" fill="#00A762"/>
<path d="M11.007 1.98242C11.3029 8.13906 11.2831 7.94775 11.3029 7.94775C5.641 10.5391 5.52264 10.5913 5.54236 10.5913C4.45734 4.05203 4.45734 4.19116 4.47707 4.19116L11.007 1.98242Z" fill="#00A762"/>
<path d="M11.4034 10.0693C11.6401 14.7303 11.6007 14.5738 11.6204 14.5738C6.72792 17.4782 6.66874 17.4956 6.68846 17.4956C5.89935 12.6955 5.89935 12.8172 5.91908 12.8172L11.4034 10.0693Z" fill="#00A762"/>
<path d="M29.9062 2.46959L33.1811 1.77393V15.6698C33.1811 17.2003 33.694 18.1047 34.7198 18.4003C34.2069 19.2525 33.3586 19.6699 32.1355 19.6699C30.6559 19.6699 29.9062 18.7656 29.9062 16.9394V2.46959Z" fill="black"/>
<path d="M36.8304 19.4267V9.44386H35.0352V7.0786H40.1446V19.4267H36.8304ZM38.5072 2.2959C39.5528 2.2959 40.4011 3.04374 40.4011 3.9655C40.4011 4.88725 39.5528 5.63509 38.5072 5.63509C37.4617 5.63509 36.6134 4.88725 36.6134 3.9655C36.6134 3.04374 37.4617 2.2959 38.5072 2.2959Z" fill="black"/>
<path d="M51.8634 19.4265V12.2959C51.8634 11.235 51.6267 10.4698 51.173 9.98285C50.7192 9.49588 49.9696 9.2524 48.924 9.2524C48.3914 9.26979 47.8587 9.39153 47.3852 9.61762C46.892 9.82632 46.458 10.122 46.1029 10.5046V19.4265H42.8281V7.07844H45.1757L45.7676 8.22629C46.6553 7.30454 47.9771 6.83496 49.7131 6.83496C51.3702 6.83496 52.692 7.26975 53.6587 8.15673C54.6253 9.0437 55.0988 10.2611 55.0988 11.8438V19.4265H51.8634Z" fill="black"/>
<path d="M56.8945 13.2353C56.8945 11.357 57.5061 9.80912 58.7489 8.62649C59.9918 7.44385 61.6095 6.85254 63.6414 6.85254C65.772 6.85254 67.4292 7.42646 68.5931 8.55692C69.7768 9.68738 70.3686 11.2526 70.3686 13.2353C70.3686 15.2005 69.7768 16.7658 68.5734 17.931C67.37 19.0962 65.7326 19.6702 63.6414 19.6702C61.5108 19.6702 59.8537 19.0789 58.67 17.9136C57.4864 16.731 56.8945 15.1657 56.8945 13.2353ZM60.3074 13.2353C60.3074 15.9484 61.4122 17.3223 63.6414 17.3223C64.6081 17.3571 65.5156 16.9571 66.0679 16.2614C66.6598 15.5484 66.9557 14.557 66.9557 13.2353C66.9557 10.557 65.8509 9.2178 63.6217 9.20041C62.655 9.16563 61.7476 9.56563 61.1952 10.2613C60.6034 10.9744 60.3074 11.9657 60.3074 13.2353Z" fill="black"/>
<path d="M81.358 19.4264V18.6786C81.0818 18.9395 80.6281 19.1656 79.9771 19.3569C79.326 19.5482 78.6553 19.6525 77.9846 19.6525C76.0315 19.6525 74.4927 19.1134 73.3683 18.0177C72.2438 16.922 71.6914 15.409 71.6914 13.4437C71.6914 11.4959 72.3424 9.89582 73.6247 8.67841C74.8479 7.47838 76.6233 6.80011 78.458 6.83489C79.4641 6.8175 80.4505 7.0262 81.358 7.40882V2.46959L84.6328 1.77393V19.4264H81.358ZM81.358 10.035C80.7464 9.56538 79.9771 9.3219 79.1682 9.3045C77.8465 9.3045 76.8404 9.65234 76.1499 10.3654C75.4397 11.0611 75.1043 12.0698 75.0846 13.3915C75.0846 15.9655 76.4853 17.2525 79.3063 17.2525C79.7009 17.2351 80.0954 17.1481 80.4703 17.009C80.924 16.8351 81.2199 16.6786 81.358 16.5046V10.035Z" fill="black"/>
<path d="M99.7237 14.1395H89.7217C89.7809 15.1308 90.1557 15.896 90.8659 16.4352C91.5761 16.9743 92.523 17.2526 93.7264 17.2526C95.2257 17.2526 96.3502 16.9048 97.1196 16.2265L98.3822 18.4352C97.238 19.2526 95.5217 19.67 93.2332 19.67C91.1026 19.67 89.406 19.1135 88.1632 18.0178C86.9204 16.9221 86.2891 15.3743 86.2891 13.3916C86.2891 11.4438 86.9795 9.86115 88.3407 8.66112C89.6231 7.47849 91.3986 6.835 93.253 6.85239C95.2849 6.85239 96.9223 7.39153 98.1454 8.45242C99.3686 9.51331 99.9999 10.8873 99.9999 12.5395C99.9801 13.0786 99.8815 13.6177 99.7237 14.1395ZM89.8401 11.9655H96.725C96.4883 10.1568 95.3638 9.25244 93.3319 9.25244C91.4577 9.25244 90.2938 10.1568 89.8401 11.9655Z" fill="black"/>
<path d="M5.5435 10.5916L4.4782 4.19148L0 1.73926L1.4204 7.75676L5.5435 10.5916Z" fill="#005B28"/>
<path d="M6.68818 17.4961L5.9188 12.8178L1.91406 9.896L2.99909 14.4352L6.68818 17.4961Z" fill="#005B28"/>
</g>
<defs>
<clipPath id="clip0_3527_1611">
<rect width="100" height="22.87" fill="white"/>
</clipPath>
</defs>
</svg>
