<svg width="100" height="26" viewBox="0 0 100 26" fill="none" xmlns="http://www.w3.org/2000/svg">
<g clip-path="url(#clip0_3179_1711)">
<path fill-rule="evenodd" clip-rule="evenodd" d="M33.8659 16.5573L33.8464 16.285H31.6914L31.7034 16.5912C31.8359 19.998 34.0159 22.2554 37.8924 22.2554C41.5899 22.2554 44.1044 20.2309 44.1044 17.1664C44.1044 15.5098 43.5589 14.337 42.5194 13.5368C41.7194 12.9207 40.7639 12.5731 39.1784 12.2112L38.8299 12.1327L38.4844 12.0563C35.6044 11.4211 34.6914 10.8676 34.6914 9.22262C34.6914 7.52083 36.0114 6.43725 38.2264 6.43725C40.3814 6.43725 41.7429 7.82383 41.8064 10.0069L41.8149 10.2919H43.9544L43.9479 9.99153C43.8734 6.58848 41.7069 4.2982 38.2049 4.2982C34.7724 4.2982 32.5059 6.47492 32.5059 9.29267C32.5059 10.9451 33.0509 12.0956 34.0919 12.8639C34.8849 13.4498 35.8039 13.7607 37.4249 14.1057C37.5904 14.141 37.7561 14.1757 37.9219 14.2097C39.4554 14.5291 40.1319 14.7265 40.7494 15.1049C41.5159 15.5745 41.8959 16.2452 41.8959 17.2842C41.8959 19.0884 40.4569 20.1163 37.9369 20.1163C35.5249 20.1163 34.0279 18.8417 33.8659 16.5573ZM48.6079 4.03128V3.7373H46.4814V21.9746H48.6079V18.5334L50.8469 16.2176L54.8449 21.8574L54.9279 21.9741H57.5734L57.2359 21.5024L52.3534 14.6713L56.8564 9.91141L57.3314 9.40835H54.4414L54.3599 9.49538L48.6079 15.6483V4.03128ZM68.6279 16.4416H68.8904L68.9069 16.1646C68.9157 16.015 68.9224 15.8654 68.9269 15.7156C68.9289 15.6392 68.9299 15.5697 68.9299 15.5082C68.9299 11.8 66.6074 9.0682 63.1754 9.0682C59.7499 9.0682 57.3094 11.9762 57.3094 15.6498C57.3094 19.4302 59.6394 22.2554 63.1979 22.2554C65.8884 22.2554 67.9674 20.5668 68.7164 18.0059L68.8284 17.6233H66.5984L66.5324 17.8197C66.0624 19.2216 64.7889 20.1519 63.2199 20.1519C61.1699 20.1519 59.7399 18.6623 59.4824 16.4416H68.6284H68.6279ZM59.4219 14.6798C59.7809 12.6559 61.1504 11.3128 63.0149 11.3128C64.9364 11.3128 66.2629 12.6119 66.5529 14.6798H59.4224H59.4219ZM75.7839 11.3834H76.0604V9.38713H73.4689V5.98195H71.3424V9.38713H69.1939V11.3834H71.3424V18.4166C71.3424 20.7239 72.4714 21.9746 74.5434 21.9746C74.9049 21.9746 75.2169 21.9518 75.4784 21.9131C75.6404 21.8892 75.7519 21.8643 75.8134 21.8462L76.0164 21.7868V19.6966L75.6804 19.7735C75.5819 19.7947 75.4829 19.8131 75.3834 19.8287C75.1714 19.8629 74.9574 19.8815 74.7429 19.8844C73.8349 19.8844 73.4689 19.4323 73.4689 18.2994V11.3834H75.7839ZM82.3799 22.2554C85.3004 22.2554 87.3624 20.2681 87.8804 17.4562L87.9454 17.1033H85.8169L85.7629 17.323C85.3194 19.1171 84.1154 20.1513 82.3799 20.1513C80.2149 20.1513 78.7209 18.3153 78.7209 15.6737C78.7209 13.0115 80.2119 11.1717 82.3799 11.1717C84.1154 11.1717 85.3194 12.2065 85.7629 14.0006L85.8169 14.2203H87.9454L87.8804 13.8674C87.3624 11.055 85.3004 9.0682 82.3799 9.0682C78.9874 9.0682 76.5889 11.9969 76.5889 15.6737C76.5889 19.3299 78.9909 22.2554 82.3799 22.2554ZM91.9159 4.03075V3.7373H89.7939V21.9746H91.9159V14.597C91.9159 12.4394 93.1499 11.1733 95.0219 11.1733C96.8099 11.1733 97.7079 12.2754 97.7079 14.362V21.9746H99.8299V14.0319C99.8299 11.0841 98.1154 9.12551 95.2874 9.12551C93.8324 9.12551 92.6629 9.69331 91.9159 10.5073V4.03128V4.03075Z" fill="black"/>
<path fill-rule="evenodd" clip-rule="evenodd" d="M5.5315 1.44526L12.6765 0.650879L19.822 1.44526L25.354 9.25482L12.677 24.78L0 9.25482L5.5315 1.44526Z" fill="#FDB300"/>
<path fill-rule="evenodd" clip-rule="evenodd" d="M5.135 9.34863L12.677 24.7799L0 9.34863H5.135Z" fill="#EA6C00"/>
<path fill-rule="evenodd" clip-rule="evenodd" d="M20.221 9.34863L12.6785 24.7799L25.3555 9.34863H20.221Z" fill="#EA6C00"/>
<path fill-rule="evenodd" clip-rule="evenodd" d="M5.01953 9.34863H20.0735L12.5465 24.7799L5.01953 9.34863Z" fill="#FDAD00"/>
<path fill-rule="evenodd" clip-rule="evenodd" d="M12.5465 0.650879L5.01953 9.34875H20.0735L12.5465 0.650879Z" fill="#FEEEB7"/>
<path fill-rule="evenodd" clip-rule="evenodd" d="M12.4145 0.650879L5.40853 1.45375L5.01953 9.34875L12.4145 0.650879Z" fill="#FDD231"/>
<path fill-rule="evenodd" clip-rule="evenodd" d="M12.6753 0.650879L19.6813 1.45375L20.0703 9.34875L12.6753 0.650879Z" fill="#FDD231"/>
<path fill-rule="evenodd" clip-rule="evenodd" d="M25.3555 9.34893L19.809 1.49268L20.207 9.34893H25.3555Z" fill="#FDAD00"/>
<path fill-rule="evenodd" clip-rule="evenodd" d="M0 9.34893L5.546 1.49268L5.148 9.34893H0Z" fill="#FDAD00"/>
</g>
<defs>
<clipPath id="clip0_3179_1711">
<rect width="100" height="24.4099" fill="white" transform="translate(0 0.650879)"/>
</clipPath>
</defs>
</svg>
