<svg width="100" height="28" viewBox="0 0 100 28" fill="none" xmlns="http://www.w3.org/2000/svg">
<path fill-rule="evenodd" clip-rule="evenodd" d="M25.5682 0C26.5096 0 27.2727 0.784155 27.2727 1.75146V26.2485C27.2727 27.2158 26.5096 28 25.5682 28H1.70455C0.763151 28 0 27.2158 0 26.2485V1.75146C0 0.784155 0.763151 0 1.70455 0H25.5682ZM48.07 21.5276L48.0701 25.2869C48.0738 26.247 48.232 27.0721 49.3575 27.0721C50.3356 27.0721 50.9033 26.3972 50.9181 25.0586L50.9183 25.0047V21.5276H51.955V27.8474H50.9183V26.9429C50.5652 27.542 50.0068 28 48.9929 28C47.5956 28 47.0453 27.035 47.0334 25.6161L47.0332 25.5686V21.5276H48.07ZM67.9462 21.3984C69.6494 21.3984 70.3809 22.1928 70.3843 23.9525L70.3842 24.0062L70.373 25.4629C70.3618 26.502 70.4046 27.2082 70.5222 27.7972L70.5324 27.8474H69.4843C69.45 27.6125 69.4159 27.354 69.4045 26.9782C69.0285 27.636 68.4019 28 67.3081 28C66.1575 28 65.2004 27.3424 65.2004 26.1793C65.2004 24.7024 66.8084 24.2503 69.2726 23.9678L69.3475 23.9593V23.8066C69.3475 22.6435 68.7322 22.2677 67.9574 22.2677C67.1062 22.2677 66.6185 22.7218 66.5589 23.4849L66.5562 23.5247H65.4851C65.5764 22.162 66.7613 21.3984 67.9462 21.3984ZM64.4589 19.331V27.8474H63.4221V26.8959C63.0461 27.5654 62.408 28 61.4169 28C60.004 28 58.7964 26.8136 58.7964 24.7109C58.7964 22.6435 60.004 21.4219 61.4169 21.4219C62.3896 21.4219 63.0223 21.8406 63.4009 22.4892L63.4221 22.5262V19.331H64.4589ZM43.3863 21.4219C44.8104 21.4219 46.3258 22.4204 46.3258 24.7109C46.3258 27.0016 44.8104 28 43.3863 28C41.9622 28 40.4469 27.0016 40.4469 24.7109C40.4469 22.4204 41.9622 21.4219 43.3863 21.4219ZM79.4198 21.4219C80.8439 21.4219 82.3593 22.4204 82.3593 24.7109C82.3593 27.0016 80.8439 28 79.4198 28C77.9956 28 76.4805 27.0016 76.4805 24.7109C76.4805 22.4204 77.9956 21.4219 79.4198 21.4219ZM75.7116 21.5276V27.8474H74.6748V21.5276H75.7116ZM40.0584 19.331V20.3647H35.8544V22.949H39.8193V23.9827H35.8544V27.8474H34.6924V19.331H40.0584ZM72.7039 19.9419V21.5276H73.8659V22.3852H72.7039V26.1323C72.7039 26.7785 72.7478 26.9487 73.3105 26.9545L73.3418 26.9547H73.8659V27.8474H73.114C71.9539 27.8474 71.6734 27.5833 71.6671 26.306L71.667 26.2615V22.3852H70.6987V21.5276H71.667V19.9419H72.7039ZM86.1473 21.4219C87.6126 21.4219 88.1524 22.3877 88.1638 23.8072L88.164 23.8536V27.8474H87.1273L87.1272 24.1358C87.1233 23.1757 86.9536 22.3499 85.7829 22.3499C84.7932 22.3499 84.1812 23.0251 84.1655 24.3641L84.1651 24.4173V27.8474H83.1283V21.5276H84.1651V22.4791C84.5182 21.88 85.1107 21.4219 86.1473 21.4219ZM56.0827 21.4219C57.5479 21.4219 58.0877 22.3877 58.0991 23.8072L58.0993 23.8536V27.8474H57.0625V24.1706C57.0625 23.1957 56.903 22.3499 55.7181 22.3499C54.7285 22.3499 54.1165 23.0251 54.1007 24.3641L54.1004 24.4173V27.8474H53.0636V21.5276H54.1004V22.4791C54.4535 21.88 55.046 21.4219 56.0827 21.4219ZM69.4274 24.805C67.5474 24.993 66.351 25.2866 66.351 26.1558C66.351 26.7549 66.7955 27.1543 67.5359 27.1543C68.4934 27.1543 69.4064 26.7065 69.427 25.2547L69.4274 25.2043V24.805ZM61.6789 22.3382C60.6194 22.3382 59.9245 23.1722 59.9245 24.7109C59.9245 26.2499 60.6194 27.0838 61.6789 27.0838C62.6017 27.0838 63.4676 26.3791 63.4676 24.7109C63.4676 23.043 62.6017 22.3382 61.6789 22.3382ZM79.4198 22.3618C78.4742 22.3618 77.5855 22.9843 77.5855 24.7109C77.5855 26.4025 78.4742 27.0604 79.4198 27.0604C80.3654 27.0604 81.2542 26.3322 81.2542 24.7109C81.2542 23.0196 80.3654 22.3618 79.4198 22.3618ZM43.3863 22.3618C42.4407 22.3618 41.5521 22.9843 41.5521 24.7109C41.5521 26.4025 42.4407 27.0604 43.3863 27.0604C44.3321 27.0604 45.2207 26.3322 45.2207 24.7109C45.2207 23.0196 44.3321 22.3618 43.3863 22.3618ZM75.7116 19.3312V20.6233H74.6748V19.3312H75.7116ZM21.2121 10.6955L9.25168 16.9767L8.20807 17.5262L6.06061 18.6548V20.0043L8.19333 18.8836L10.0177 17.9249L18.8364 13.29L18.8483 13.3912C18.8702 13.5938 18.8813 13.7975 18.8813 14.0014C18.8802 15.9226 17.8918 17.6992 16.2844 18.6697C14.6963 19.6285 12.7389 19.6586 11.1253 18.7531L11.0665 18.7196L11.0023 18.7546L9.87028 19.3497L9.92897 19.3931C11.8719 20.814 14.4211 21.0075 16.5467 19.8904C18.6938 18.762 20.0459 16.4869 20.0467 14.0014C20.0467 13.8315 20.0403 13.6616 20.0281 13.4936C19.9936 13.0228 20.2292 12.576 20.6281 12.3492L20.6608 12.3313L21.2121 12.0417V10.6955ZM72.1426 11.8316C73.5554 11.8316 74.7632 13.0534 74.7632 15.1209C74.7632 17.2235 73.5554 18.41 72.1426 18.41C71.1698 18.41 70.5371 17.9915 70.1585 17.3427L70.1374 17.3057V20.3132H69.1007V11.9374H70.1374V12.9359C70.5134 12.2663 71.1515 11.8316 72.1426 11.8316ZM56.8405 11.8316C58.7017 11.8316 59.8035 13.4089 59.7038 15.3895L59.7004 15.4496H54.9834C55.0175 16.8124 55.9746 17.4703 56.8747 17.4703C57.7693 17.4703 58.2688 17.063 58.5347 16.4592L58.5495 16.4249H59.6206C59.3471 17.5055 58.3672 18.41 56.8747 18.41C54.9378 18.41 53.8668 16.9768 53.8668 15.1091C53.8668 13.1003 55.1657 11.8316 56.8405 11.8316ZM45.1468 11.8316C47.0079 11.8316 48.1097 13.4089 48.0099 15.3895L48.0065 15.4496H43.2896C43.3239 16.8124 44.2808 17.4703 45.1809 17.4703C46.0756 17.4703 46.5751 17.063 46.841 16.4592L46.8558 16.4249H47.9268C47.6534 17.5055 46.6736 18.41 45.1809 18.41C43.244 18.41 42.1729 16.9768 42.1729 15.1091C42.1729 13.1003 43.4719 11.8316 45.1468 11.8316ZM87.9044 11.8316C89.7656 11.8316 90.8674 13.4089 90.7677 15.3895L90.7643 15.4496H86.0471C86.0814 16.8124 87.0385 17.4703 87.9387 17.4703C88.8332 17.4703 89.3327 17.063 89.5986 16.4592L89.6134 16.4249H90.6845C90.411 17.5055 89.4311 18.41 87.9387 18.41C86.0016 18.41 84.9307 16.9768 84.9307 15.1091C84.9307 13.1003 86.2294 11.8316 87.9044 11.8316ZM65.392 11.8316C66.8162 11.8316 68.3314 12.8302 68.3314 15.1209C68.3314 17.4115 66.8162 18.41 65.392 18.41C63.9678 18.41 62.4523 17.4115 62.4523 15.1209C62.4523 12.8302 63.9678 11.8316 65.392 11.8316ZM82.2386 11.8316C83.6473 11.8316 84.2088 12.797 84.2208 14.2163L84.221 14.2633V18.2573H83.1842L83.1841 14.5444C83.1795 13.5847 82.9879 12.7595 81.8739 12.7595C80.9858 12.7595 80.4083 13.4344 80.3931 14.7725L80.3928 14.8271V18.2573H79.3559V14.5805C79.3559 13.6054 79.1736 12.7595 78.0456 12.7595C77.1575 12.7595 76.58 13.4344 76.5647 14.7725L76.5644 14.8271V18.2573H75.5275V11.9374H76.5644V12.8889C76.9177 12.2899 77.4873 11.8316 78.4102 11.8316C79.3559 11.8316 79.9027 12.2427 80.1762 12.9475C80.666 12.1605 81.3726 11.8316 82.2386 11.8316ZM49.3323 11.9374L50.9958 16.7772L52.6591 11.9374H53.7303L51.4174 18.2573H50.4945L48.1815 11.9374H49.3323ZM94.5162 11.8316C95.9814 11.8316 96.5211 12.7973 96.5326 14.2168L96.5328 14.2633V18.2573H95.496L95.4959 14.5457C95.4921 13.5854 95.3224 12.7595 94.1516 12.7595C93.1619 12.7595 92.5497 13.4349 92.534 14.7739L92.5336 14.8271V18.2573H91.4967V11.9374H92.5336V12.8889C92.8869 12.2899 93.4792 11.8316 94.5162 11.8316ZM36.9305 9.74061C39.5396 9.74061 41.4309 10.7627 41.4309 13.993C41.4309 17.2029 39.5773 18.2366 37.0086 18.257L36.9305 18.2573H34.6744V9.74061H36.9305ZM61.6835 9.74061V18.2573H60.6466V9.74061H61.6835ZM98.8378 10.3515V11.9374H100V12.7949H98.8378L98.8379 16.577C98.8396 17.1945 98.892 17.3586 99.4445 17.3644L99.4757 17.3646H100V18.2573H99.2479C98.0745 18.2573 97.8009 17.9871 97.8009 16.6713V12.7949H96.8325V11.9374H97.8009V10.3515H98.8378ZM71.8806 12.7479C70.9577 12.7479 70.0918 13.4528 70.0918 15.1209C70.0918 16.7889 70.9577 17.4937 71.8806 17.4937C72.9403 17.4937 73.6352 16.6597 73.6352 15.1209C73.6352 13.5819 72.9403 12.7479 71.8806 12.7479ZM65.3942 12.7714C64.4485 12.7714 63.5597 13.394 63.5597 15.1209C63.5597 16.8124 64.4485 17.4703 65.3942 17.4703C66.3398 17.4703 67.2285 16.742 67.2285 15.1209C67.2285 13.4293 66.3398 12.7714 65.3942 12.7714ZM10.7245 8.11043C8.57736 9.23963 7.22576 11.5156 7.22601 14.0014C7.22601 14.1698 7.23221 14.3375 7.2446 14.5046C7.27916 14.9756 7.04328 15.4225 6.64399 15.649L6.61126 15.6669L6.06061 15.9565V17.3073L7.68178 16.4551L8.20679 16.1787L8.72411 15.9069L18.0114 11.0261L19.055 10.478L21.2121 9.34405V7.99392L19.0736 9.11925L17.2492 10.078L8.43949 14.7062L8.42763 14.6057C8.40572 14.4044 8.3947 14.202 8.39462 13.9994C8.39707 12.0806 9.38425 10.3065 10.9893 9.33629C12.5751 8.37782 14.5298 8.34558 16.1429 9.24718L16.2018 9.28058L17.246 8.7318L17.4018 8.64981L17.3431 8.60638C15.3998 7.18559 12.8501 6.99253 10.7245 8.11043ZM36.8963 10.7509H35.8366V17.2471H36.8963C38.594 17.2471 40.246 16.8946 40.246 13.993C40.246 11.1032 38.594 10.7509 36.8963 10.7509ZM45.1468 12.7479C44.2475 12.7479 43.4146 13.2511 43.3051 14.4831L43.301 14.5335H46.9129C46.8786 13.6407 46.252 12.7479 45.1468 12.7479ZM87.8682 12.7479C86.9689 12.7479 86.1361 13.2511 86.0264 14.4831L86.0224 14.5335H89.6341C89.5999 13.6407 88.9733 12.7479 87.8682 12.7479ZM56.8042 12.7479C55.905 12.7479 55.0721 13.2511 54.9625 14.4831L54.9585 14.5335H58.5703C58.536 13.6407 57.9094 12.7479 56.8042 12.7479ZM37.3484 0C38.8241 0 40.1215 0.677836 40.4694 2.2721L40.4805 2.32499H39.3529C39.0796 1.35041 38.1228 1.0098 37.3029 1.0098C36.6651 1.0098 35.5488 1.30351 35.5488 2.25464C35.5488 2.99294 36.0984 3.36857 36.8522 3.5486L36.8928 3.55806L37.8495 3.78106C39.1138 4.063 40.6284 4.55618 40.6284 6.27065C40.6284 7.92636 39.125 8.81882 37.4852 8.81882C35.5571 8.81882 34.3321 7.73692 34.0977 6.07466L34.0909 6.02411H35.23C35.4463 7.19833 36.2209 7.80893 37.5079 7.80893C38.7379 7.80893 39.4327 7.22178 39.4327 6.37631C39.4327 5.48578 38.7146 5.13059 37.7028 4.88444L37.6559 4.87316L36.6308 4.65007C35.4919 4.39176 34.3644 3.73416 34.3644 2.32499C34.3644 0.692816 36.0157 0 37.3484 0ZM47.1249 2.24287C48.9853 2.24287 50.0868 3.81967 49.987 5.79948L49.9836 5.8596H45.2685C45.3025 7.22178 46.2593 7.87947 47.159 7.87947C48.0533 7.87947 48.5528 7.47216 48.8186 6.86864L48.8334 6.83427H49.904C49.6305 7.91459 48.651 8.81882 47.159 8.81882C45.2228 8.81882 44.1522 7.38629 44.1522 5.51898C44.1522 3.51098 45.4507 2.24287 47.1249 2.24287ZM57.2229 2.21933C58.9256 2.21933 59.6571 3.01345 59.6604 4.77265L59.6603 4.82626L59.6489 6.28224C59.6379 7.32129 59.6807 8.02727 59.7981 8.61599L59.8084 8.66617H58.7606C58.7264 8.43122 58.6922 8.173 58.6808 7.79725C58.305 8.45467 57.6786 8.81882 56.5853 8.81882C55.4348 8.81882 54.4782 8.16114 54.4782 6.9986C54.4782 5.52231 56.0855 5.07006 58.5489 4.78786L58.6238 4.77936V4.62653C58.6238 3.46408 58.0089 3.08834 57.2344 3.08834C56.3835 3.08834 55.8957 3.54227 55.8362 4.30512L55.8335 4.34486H54.7629C54.8539 2.98267 56.0384 2.21933 57.2229 2.21933ZM53.7904 0.150026V8.66617H52.7539V0.150026H53.7904ZM42.854 0.763166V2.34853H44.0158V3.20586H42.854L42.8541 6.98655C42.8558 7.60377 42.9082 7.76771 43.4605 7.77346L43.4917 7.77362H44.0158V8.66617H43.2639C42.1043 8.66617 41.8238 8.40228 41.8176 7.12533L41.8175 7.0809V3.20586H40.8495V2.34853H41.8175V0.763166H42.854ZM51.7177 0.150026V8.66617H50.6812V0.150026H51.7177ZM63.654 2.3211L63.699 2.32499V3.46408C63.4825 3.42886 63.2888 3.41718 63.1181 3.41718C62.1734 3.41718 61.6951 3.93219 61.6831 5.30165L61.6829 5.35474V8.66617H60.6466V2.34853H61.6602V3.4524C61.9678 2.73604 62.5827 2.34853 63.3914 2.31322C63.4812 2.31322 63.5535 2.31322 63.654 2.3211ZM58.6745 5.62492C56.7953 5.8127 55.5994 6.10623 55.5994 6.97524C55.5994 7.57407 56.0435 7.97326 56.7838 7.97326C57.7409 7.97326 58.6535 7.52566 58.6741 6.07455L58.6745 6.02411V5.62492ZM47.1249 3.15868C46.2259 3.15868 45.3935 3.66171 45.2838 4.89345L45.2798 4.94378H48.8902C48.8562 4.05114 48.2296 3.15868 47.1249 3.15868Z" fill="black"/>
</svg>
