<svg width="41" height="50" viewBox="0 0 41 50" fill="none" xmlns="http://www.w3.org/2000/svg">
<path d="M37.1115 43.7471C35.0366 46.8469 32.8368 49.8717 29.487 49.9217C26.1372 49.9967 25.0623 47.9468 21.2626 47.9468C17.4378 47.9468 16.2629 49.8717 13.0881 49.9967C9.81332 50.1217 7.33849 46.6969 5.23863 43.6721C0.963911 37.4975 -2.31087 26.1233 2.08884 18.4738C4.26369 14.674 8.16343 12.2742 12.3882 12.1992C15.5879 12.1492 18.6377 14.374 20.6126 14.374C22.5625 14.374 26.2622 11.6992 30.137 12.0992C31.7619 12.1742 36.3116 12.7492 39.2364 17.0489C39.0114 17.1989 33.8117 20.2487 33.8617 26.5732C33.9367 34.1227 40.4863 36.6476 40.5613 36.6726C40.4863 36.8475 39.5114 40.2723 37.1115 43.7471ZM22.8375 3.74975C24.6623 1.67489 27.6871 0.0999933 30.187 0C30.5119 2.92481 29.337 5.87461 27.5871 7.97447C25.8623 10.0993 23.0124 11.7492 20.2126 11.5242C19.8377 8.64943 21.2376 5.64962 22.8375 3.74975Z" fill="#03A9F4"/>
</svg>
