<svg width="50" height="50" viewBox="0 0 50 50" fill="none" xmlns="http://www.w3.org/2000/svg">
<path d="M44.4444 45H5.55556V17.5H44.4444V45ZM36.1111 0V5H13.8889V0H8.33333V5H5.55556C2.47222 5 0 7.225 0 10V45C0 46.3261 0.585316 47.5979 1.62718 48.5355C2.66905 49.4732 4.08213 50 5.55556 50H44.4444C45.9179 50 47.3309 49.4732 48.3728 48.5355C49.4147 47.5979 50 46.3261 50 45V10C50 8.67392 49.4147 7.40215 48.3728 6.46447C47.3309 5.52678 45.9179 5 44.4444 5H41.6667V0H36.1111ZM38.8889 27.5H25V40H38.8889V27.5Z" fill="#03A9F4"/>
</svg>
