<svg width="210" height="210" viewBox="0 0 210 210" fill="none" xmlns="http://www.w3.org/2000/svg">
<path d="M104.999 0.833313C47.3945 0.833313 0.832031 47.3958 0.832031 105C0.832031 162.604 47.3945 209.167 104.999 209.167C132.625 209.167 159.121 198.192 178.656 178.657C198.191 159.122 209.165 132.627 209.165 105C209.165 47.3958 162.29 0.833313 104.999 0.833313ZM104.999 188.333C82.8973 188.333 61.7012 179.554 46.0731 163.926C30.4451 148.298 21.6654 127.101 21.6654 105C21.6654 82.8986 30.4451 61.7025 46.0731 46.0744C61.7012 30.4464 82.8973 21.6666 104.999 21.6666C127.1 21.6666 148.296 30.4464 163.924 46.0744C179.552 61.7025 188.332 82.8986 188.332 105C188.332 127.101 179.552 148.298 163.924 163.926C148.296 179.554 127.1 188.333 104.999 188.333ZM148.54 60.8333L137.499 71.875L126.457 60.8333L115.415 71.875L126.457 82.9167L115.415 93.9583L126.457 105L137.499 93.9583L148.54 105L159.582 93.9583L148.54 82.9167L159.582 71.875L148.54 60.8333ZM61.457 105L72.4987 93.9583L83.5404 105L94.582 93.9583L83.5404 82.9167L94.582 71.875L83.5404 60.8333L72.4987 71.875L61.457 60.8333L50.4154 71.875L61.457 82.9167L50.4154 93.9583L61.457 105ZM104.999 125.833C80.7279 125.833 60.1029 141.042 51.7695 162.292H158.228C149.895 141.042 129.27 125.833 104.999 125.833Z" fill="#A5A5A5"/>
</svg>
