<?xml version="1.0" encoding="utf-8"?>
<!-- Generator: Adobe Illustrator 26.1.0, SVG Export Plug-In . SVG Version: 6.00 Build 0)  -->
<svg version="1.1" id="Layer_1" xmlns="http://www.w3.org/2000/svg" xmlns:xlink="http://www.w3.org/1999/xlink" x="0px" y="0px"
	 width="2301px" height="2000px" viewBox="0 0 2301 2000" enable-background="new 0 0 2301 2000" xml:space="preserve">
<g>
	<path fill="#F7CC7F" d="M2055.77,559.42c-40.56,32.97-98.19,69.56-145.65,85.31l70.51,13.28l-291.26,343.45l-580.52,167.07
		l-686.99,732.64l541.16-0.19l275.74-442.71l552.44-328.22l214.55-457.22l45.71,55.33C2042.32,679,2046.51,610.86,2055.77,559.42z"
		/>
	<path fill="#F79C8D" d="M329.08,1335.02c0,0-31.46-56.4-39.12-68.39c-7.66-11.99-27.6-59.63-28.31-61.51
		c-0.71-1.88,13.73-24.42,10.51-25.19c-3.22-0.77-6.79,11.89-10.23,10.37c-3.44-1.51-13.49-31.98-15.45-30.47
		c-3.67,2.83,5.42,18.9,3.46,19.92c-1.96,1.01-7.88-17.69-11.72-17.14c-3.84,0.55,7.3,17.14,6.23,18.6
		c-1.07,1.46-12.64-14.16-14.73-10.83c-1.14,1.81,10.64,13.64,8.38,14.75c-2.26,1.11-12.73-6.53-13.84-4.33
		c-1.11,2.2,9.69,5.22,12.91,11.16c3.23,5.94,8.72,8.51,11.01,19.5s5.69,50.79,17.39,70.65c11.69,19.85,37.41,63.8,37.41,63.8
		L329.08,1335.02z"/>
	<path fill="#355389" d="M320.38,1316.74c0,0,34.8,37.51,39.98,52.63s-5.04,36.74-19.16,37.69c-14.11,0.94-45.52-66.58-45.52-66.58
		L320.38,1316.74z"/>
	<path fill="#F48C7F" d="M484.31,1588.31c-2.53-2.12-5.6-1.16-14.39-5.22c-1.7-0.79-6.18-2.04-8.19-2.44
		c-0.38-0.08-0.67-0.36-0.77-0.73c-2.67-10.11-14.38-56.87-15.67-70.35c-1.31-13.79-10.21-72.24-11.56-81.13
		c-0.09-0.6-0.69-0.99-1.28-0.83l-25.55,7.12c-0.52,0.15-0.84,0.67-0.72,1.21c1.58,6.97,11.4,50.71,14.28,72.85
		c2.3,17.65,28.59,74.27,29.12,77.89c0,0.03,0.01,0.07,0.01,0.1c0.16,1.09,1.09,1.9,2.19,1.9c6.49,0,27.28-0.01,28.47,0
		C481.35,1588.69,485.11,1588.97,484.31,1588.31z"/>
	<path fill="#13375B" d="M427.43,1403.21c-13.59-41.24-28.8-39.48-28.8-39.48l11.76,86.7c8.39-2.29,19.33-7.4,27.71-9.77
		C435.32,1427.61,430.78,1413.36,427.43,1403.21z"/>
	<path fill="#F7CC7F" d="M423.21,1295.98c-4.16-27.12-28.7-46.62-54.36-33.46c-5.77,2.96-13.58,8.96-17.57,14.08
		c-10.78,13.83-13.53,30.92-24.66,44.34c4.09,3.1,9.03,6.35,14.92,9.48l6.93-9.24l-2.39,11.53c17.23,8.24,41.56,15.05,74.83,14.85
		C425.1,1328.72,425.43,1310.44,423.21,1295.98z"/>
	<path fill="#F48C7F" d="M431.21,1897.15c-3.92-2.89-7.08-4.79-19.59-10.86c-0.82-0.4-3.79-2.29-4.86-2.94
		c-2.72-1.66-5.44-4.28-7.79-6.9c-2.24-2.5-3.31-10.52-3.81-16.91c1.29-14.28,21.97-243.24,26.34-268.02
		c4.5-25.58-2.36-64.61-2.36-64.61l-15.97-6.02l-30.32,105.08l2.39,79.98c0,0-7.13,23.05-8.03,36.83
		c-0.9,13.78,10.3,125.61,10.3,125.61l0,0c0,4-0.16,7.62-0.6,9.88c-0.82,4.18-5.4,12.79-3.3,16.73c2.1,3.94,4.5,4.92,4.5,4.92
		l54.48,0.88C435.56,1900.83,433.6,1898.92,431.21,1897.15z"/>
	<path fill="#F79C8D" d="M348.53,1518.69c0,0-18.92,28.54-23.42,52.15c-4.5,23.62,3.31,96.2-5.36,127.15
		c-4.69,16.75-22.47,42.63-25.17,64.28c-2.7,21.65-12.11,84.13-12.11,84.13h0c-1.42,6.56-3.65,14.67-6.54,18.45
		c-1.77,2.31-5,5.23-7.13,9.4c-3.3,6.5-1.48,16.17,0.96,21.49c1.25,2.73-0.09,2.73,2.76,3.61c8.44,2.61,17.41-1.79,21.01-9.88
		c2.01-4.52,3.77-10.56,4.12-18.16c0.38-8.06,1.64-14.46,2.98-19.2l0,0l60.47-148.33l43.78-128.01l11.21-65.93L348.53,1518.69z"/>
	<path fill="#86B1F2" d="M295.17,1885.2c-13.09,2.39-21.79-5.28-26.33-11.03c-3.33,6.51-4.95,16.22-2.5,21.56
		c2.15,4.71,8.45,4.57,13.41,4.76c5.24,0.2,9.3-2.72,11.9-7.3C292.87,1891.06,294.12,1888.4,295.17,1885.2z"/>
	<path fill="#86B1F2" d="M406.76,1883.34c-14.41,3.71-25.06,1.19-31.01-1.22c-1.54,4.36-3.57,9.84-2.49,13
		c1.32,3.87,3.21,4.74,4.87,4.78c13.16,0.35,48.2,0.82,58.24,0.95c1.4,0.02,2.17-1.62,1.27-2.7
		C435.14,1895.17,407.83,1884,406.76,1883.34z"/>
	<path fill="#F7CC7F" d="M360.8,1704.06c1.13,0.08,2.27,0.15,3.41,0.22c0.06,0,0.12,0.01,0.18,0.01c1.12,0.07,2.25,0.13,3.38,0.19
		c0.07,0,0.14,0.01,0.21,0.01c1.13,0.06,2.27,0.11,3.41,0.16c0.06,0,0.12,0,0.17,0.01c1.16,0.05,2.32,0.09,3.48,0.13
		c12.91,0.42,28.86,0.26,39.1-1.48c5.22-52.23,7.16-99.9,9.09-110.45c4.68-25.59-4.08-65.97-4.08-65.97l-4.18-0.75l2.65-14.96
		l-70.25,8.86c0,0-19.67,28.54-24.36,52.15c-4.68,23.62,3.44,96.2-5.57,127.15C317.42,1699.35,337.48,1702.48,360.8,1704.06z"/>
	<path fill="#355389" d="M363.85,1356.32c0,0-25.05-1.6-34.96,9.23c-9.91,10.82,21.98,96.45,23.78,110.23
		c1.8,13.78-9.18,50.41-9.18,50.41s58.84,11.87,75.65,0.71c0,0,1.8-99.07,0-108.91c-1.8-9.84-16.82-49.86-20.42-53.8
		C395.12,1360.26,363.85,1356.32,363.85,1356.32z"/>
	<path fill="#F7A491" d="M372.18,1322.78c0,0-0.13,0.74-0.36,2c-1.12,6.04-5.42,26.06-8.32,31.56
		c-3.51,6.65,12.02,27.87,26.97,25.28c4.45-0.77-3.76-19.49-3.37-21.47c0.76-3.8,1.78-8.98,2.83-14.29c0.59-3,1.19-6.03,1.75-8.89
		c1.6-8.11,2.9-14.75,2.9-14.75L372.18,1322.78z"/>
	<path fill="#F47458" d="M371.82,1324.78c0.23-1.26,0.36-2,0.36-2l22.4-0.56c0,0-1.3,6.63-2.9,14.75c-0.56,2.84-1.15,5.86-1.74,8.84
		c-3.46-0.51-7.07-2.2-10.69-5.37c-3.95-3.46-6.54-7.63-8.1-12.08C371.42,1326.94,371.65,1325.71,371.82,1324.78z"/>
	<path fill="#F7A491" d="M387.26,1271.75c0,0-10.56-1.22-17.17,7.36c-6.62,8.58-13.75,35.11,2.69,49.53
		c16.44,14.42,32.68-1.9,35.09-19.21C410.27,1292.11,411.21,1271.13,387.26,1271.75z"/>
	<path fill="#F7A491" d="M412.73,1309.17c-1.96,3.82-5.26,5.94-7.36,4.73c-2.1-1.21-2.21-5.29-0.25-9.12
		c1.96-3.82,5.26-5.94,7.36-4.73C414.58,1301.26,414.69,1305.35,412.73,1309.17z"/>
	<path fill="#F7CC7F" d="M388.44,1268.92c0,0-14.1,25.23-24.19,26.39c-10.09,1.17-11.41,14.57-11.41,14.57s3.61-30.89,13.6-36.84
		C376.42,1267.08,388.44,1268.92,388.44,1268.92z"/>
	<path fill="#F7A491" d="M366.89,1301.65c0.82,4.48-0.83,8.59-3.69,9.18c-2.86,0.59-5.84-2.57-6.66-7.05
		c-0.82-4.48,0.83-8.59,3.69-9.18C363.09,1294.01,366.07,1297.17,366.89,1301.65z"/>
	<path fill="#FFFFFF" d="M379.32,1317.92l15.26,3c0,0-1.49,5.73-8.24,4.6C378.11,1324.15,379.32,1317.92,379.32,1317.92z"/>
	<g>
		
			<rect x="1623.07" y="1757.43" transform="matrix(-0.9825 0.1863 -0.1863 -0.9825 3565.0151 3325.8267)" fill="#3C8F7C" width="6.37" height="145.95"/>
		<polygon fill="#3C8F7C" points="1347.15,1903.36 1339.62,1903.36 1367.68,1758.1 1373.93,1759.29 		"/>
		<polygon fill="#3C8F7C" points="1566.9,1903.36 1559.38,1903.36 1587.43,1758.1 1593.68,1759.29 		"/>
		<polygon fill="#184655" points="1415.74,1903.36 1421.85,1903.44 1394.95,1758.75 1388.7,1759.94 		"/>
		<path fill="#F47458" d="M1524.05,1443.29c33.41,3.58,76.65,7.35,120.06,81.02c47.44,80.51,22.47,200.77-14.98,234.19
			c-37.44,33.42-159.74,74.68-262.55,12.91c0,0-62.08-37.44-30.22-99.57c49.02-95.61,42.1-115.55,64.02-153.02
			S1453.13,1435.7,1524.05,1443.29z"/>
		<path fill="#B75742" d="M1644.11,1524.31c-29.63-50.28-59.17-67.99-85.57-75.32c10.21,10.57,20.56,24.16,30.92,41.75
			c47.44,80.51,22.47,200.77-14.98,234.19c-33.21,29.64-133.14,65.43-227.04,30.07c9.65,10.68,19.14,16.41,19.14,16.41
			c102.81,61.77,225.1,20.51,262.55-12.91C1666.58,1725.08,1691.55,1604.82,1644.11,1524.31z"/>
		<polygon fill="#F79C8D" points="1416.78,1565.66 1408.19,1591.43 1434.37,1581.13 		"/>
		<path fill="#6394DB" d="M1443.76,1488.99c-1.75,0.07-6.53,1.67-13.52,14.83c-8.93,16.82-21.98,67.62-21.98,67.62l38.95,14.46
			l5-10.6l8.24-81.63C1460.46,1493.67,1444.25,1488.97,1443.76,1488.99z"/>
		<path fill="#86B1F2" d="M1495.25,1481.67c-11.14,0.01-38.7,3.25-51.49,7.33c0,0-9.4,80.49,8.46,141.65
			c4,13.69-3.31,56.76-3.31,56.76l115.42-1.52c0,0-13.67-104.11-8.52-120.93c5.15-16.82,5.27-75.42,5.27-75.42
			s-0.79-0.12-25.93-4.45C1523.43,1483.07,1507.14,1481.66,1495.25,1481.67z"/>
		<path fill="#F7A491" d="M1508.7,1836.8c0,0-2.55,29.37-7.25,37.5c-4.69,8.13,0.25,21.96,0.49,23.86s9.88,4.61,25.2,2.98
			c15.32-1.63,15.07-5.15,13.84-10.84c-1.23-5.69-9.39-13.01-9.88-18.44c-0.49-5.42,4.69-24.94,4.69-24.94L1508.7,1836.8z"/>
		<path fill="#E5B05C" d="M1461.94,1663.17c0,0-79.67-4.41-97.46,6.33c-17.79,10.74,3.22,32.79,3.22,32.79s64.86,28.11,173.45,34.35
			c25.71,1.48,27.93-66.82,23.12-72.47C1559.46,1658.51,1461.94,1663.17,1461.94,1663.17z"/>
		<path fill="#F47458" d="M1529.06,1903.43c15.78-1.67,13.82-9.4,12.55-15.26c-0.8-3.67-5.32-8-8.02-12.09
			c-1.41,1.12-3.7,3.1-10.55,5.11c-7.11,2.09-16.87-2.05-23.08-4.65c-2.21,8.21-2.32,18.69-2.11,20.28
			C1498.1,1898.78,1513.29,1905.1,1529.06,1903.43z"/>
		<path fill="#F7CC7F" d="M1520.35,1719.97c-3.18,24.01-18.94,143.51-18.94,143.51l36.57,4.52c0,0,44.97-155.98,42.67-179.84
			c-2.31-23.86-19.14-25.87-19.14-25.87S1528.78,1656.43,1520.35,1719.97z"/>
		<path fill="#F7A491" d="M1562.34,1498.49c-10.79-4.03-16.07,92.87-17.53,132.75c-19.11,1.83-52.42,0.01-60.71-0.61
			c-3.9-0.29-12.89-3.58-16.77-4.08c-3.98-0.52-7.58-0.79-9.53-0.45c-0.72,0.12-20.64,8.24-22.34,10.02
			c-2.11,2.21-7.83,7.78-6.86,10.19s10.99-6.71,10.99-6.71l4.9-2.74c-6.1,5.94-17.73,13.76-16.05,16.6
			c1.63,2.78,12.13-5.16,19.6-10.57c-6.41,5.77-14.38,16.11-12.55,17.72c1.65,1.45,10.71-10.51,20.4-13.96
			c3.59-1.28,7.17,2.26,9.99,2.69c2.08,0.31,5.28,0.98,7.32,0.41l10.49-2.96c3.57,0.32,3.66,2.43,7.27,3.19
			c4.19,0.89,11.06,1.82,16.39,3.12c30.72,7.48,40.96,10.95,50.37,10.95C1586.19,1664.03,1587.85,1508.02,1562.34,1498.49z"/>
		<path fill="#86B1F2" d="M1582.82,1589.46c2.02-40.86,1.73-91.21-21.25-99.8c-9.07-3.39-25.05,16.99-22.18,100.63
			C1551.66,1591.3,1569.67,1592.11,1582.82,1589.46z"/>
		<path fill="#F7A491" d="M1401.76,1861.93c0,0,3.19,10.2-2.52,16.94c-5.71,6.74-29.46,13.36-32.57,17.01
			c-3.12,3.65-2.88,6.76-2.88,6.76l66.64-1.83l-0.73-20.06l-3.07-14.41L1401.76,1861.93z"/>
		<path fill="#F47458" d="M1395.1,1882.23c0,0,17.12,6.9,25.39,2.82s8.02-5.22,10.41-3.7c2.39,1.52,3.25,22.02,3.25,22.02
			l-74.93,0.5c-5.21-0.12-7.85-3.95-3.61-7.22c2.9-2.25,6.26-3.75,8.17-4.84C1369.64,1888.46,1395.1,1882.23,1395.1,1882.23z"/>
		<path fill="#F7CC7F" d="M1404.29,1681.99c-5.15-10.8-16.86-24.87-37.47-16.39c-19.66,8.08-24.93,27.93-18.73,48.26
			c6.2,20.33,47.03,139.85,48.46,156.28l32.6,0.22c0,0-5.92-94.64-7.38-117.51C1420.36,1730.83,1413.2,1700.68,1404.29,1681.99z"/>
		<path fill="#355389" d="M1351.37,1571.91h108.97c2.88,0,5.48,1.74,6.57,4.41l33.55,81.84h60.08c1.68,0,3.04,1.36,3.04,3.04l0,0
			c0,1.68-1.36,3.04-3.04,3.04h-170.99c-4.7,0-8.96-2.76-10.89-7.05l-33.79-75.26C1342.77,1577.22,1346.21,1571.91,1351.37,1571.91z
			"/>
		<path fill="#FFFFFF" d="M1410.04,1619.56c0.74,3.68,3.94,6.13,7.16,5.49c3.22-0.64,5.23-4.15,4.5-7.82s-3.94-6.13-7.16-5.49
			C1411.31,1612.38,1409.3,1615.89,1410.04,1619.56z"/>
		<path fill="#F7A491" d="M1508.49,1447.17l5.33,35.14c0,0-19.47,41.84-31.1,38.21c-9.75-3.04-3.75-40.07-3.75-40.07
			s5.32-19.88,3.72-29.83C1481.11,1440.67,1508.49,1447.17,1508.49,1447.17z"/>
		<path opacity="0.2" fill="#F47458" d="M1482.7,1450.62c-1.59-9.95,25.79-3.46,25.79-3.46l0.44,2.91c-0.8,1.95-1.78,3.62-2.97,4.9
			c-6.12,6.58-15.68,10.54-23.95,10.84C1482.84,1460.45,1483.35,1454.7,1482.7,1450.62z"/>
		<g>
			<path fill="#F7A491" d="M1512.99,1397.45c0.77-0.28,6.2,40.02-4.1,51.12c-10.31,11.09-30.39,14.72-37.59,5.98
				c-7.97-9.66-7.57-52.98,8.46-64.39S1512.99,1397.45,1512.99,1397.45z"/>
			<path fill="#F7CC7F" d="M1485.86,1368.6c12.38,2.53,20.41,10.09,23.35,13.32c5.62,0.66,13.27,3.77,21.16,16.84
				c9.71,16.07,2.54,33.87-8.76,42.61c-11.3,8.74-11.14,18.82-11.14,18.82l-1.79-5.22c-1.32-3.95-1.86-8.15-1.42-12.29
				c0.26-2.49,0.8-5.18,1.83-7.39c2.72-5.83-5.84-9.71-8.24-14.56c-1.85-3.74-1.94-12.29-4.85-18.46l-3.48-4.72
				c0,0-8.02-6.24-15.86-4.48C1468.84,1394.83,1469.96,1365.36,1485.86,1368.6z"/>
			<path fill="#F7A491" d="M1501.39,1427.9c-0.08,4.92,2.15,8.94,4.99,8.99c2.84,0.05,5.21-3.9,5.29-8.82
				c0.08-4.92-2.15-8.94-4.99-8.99C1503.84,1419.04,1501.47,1422.98,1501.39,1427.9z"/>
		</g>
		<path fill="#FFFFFF" d="M1487.47,1441.53l-15.53-0.8c0,0,0.05,5.92,6.87,6.47C1487.13,1447.87,1487.47,1441.53,1487.47,1441.53z"
			/>
	</g>
	<g>
		<path fill="#F8A492" d="M1796.95,1245.62c1.7,6.96,4.75,17.97,4.75,17.97c-0.24,3.03-1.14,15.62-2.2,31.05l22.68-9.08
			c0,0-0.27-25.15,0.74-26.69c0.86-1.3,2.29,0.32,9.25-9.63c2.01-2.87,2.38-8,2.38-8s0.41-6.32-1-6.9
			c-1.42-0.59-3.04,0.35-3.56,1.45c-0.51,1.09-0.38,3.63-0.89,4.73c-0.51,1.09-3.79,2.41-5.18,2.34s0.17-18.68,0.17-18.68
			s0.77-5.28,1.16-7.01c0.33-1.47,1.67-5.79,1.67-5.79s1.57-6.27-0.37-6.74c-1.15-0.28-4.07,4.81-6.07,10.21
			c-2.16,5.82-3.38,11.99-4,11.9c-1.45-0.19-0.68-10.4-0.68-10.4s1.44-4.68,1.41-6.88c1.36-2.7,2.27-7.72-0.13-8.13
			c-0.44-0.08-3.61,6.29-3.61,6.29s-1.24,4.49-1.97,6.58c-1.28,3.7-1.47,9.54-2.14,12.11c-0.55,2.14-1.06,1.26-1.29,1.35
			c-0.18,0.07,0.13-2.88,0.49-6.95c0.18-2.04-0.06-4.4,0.51-6.73c0.53-2.16,0.83-5.24,0.97-7.11c0.39-5.28-2.94-4.74-4.08,0.09
			c-0.44,1.84-0.9,3.84-1.36,5.88c-1.79,7.91-1.74,15.54-2.59,15.6c-1.11,0.08-0.38-13.8-0.38-13.8s-1.7-7.68-3.39-0.55
			c-1.96,8.28-1.75,15.02-1.73,15.32C1796.71,1231.44,1795.25,1238.66,1796.95,1245.62z"/>
		<path fill="#F8A492" d="M2037.72,1227.28c-1.7,6.96-4.75,17.97-4.75,17.97c0.24,3.03,1.14,15.62,2.2,31.05l-22.68-9.08
			c0,0,0.27-25.15-0.74-26.69c-0.86-1.3-2.29,0.32-9.25-9.63c-2.01-2.87-2.38-8-2.38-8s-0.41-6.32,1-6.9
			c1.42-0.59,3.04,0.35,3.56,1.45s0.38,3.63,0.89,4.72c0.51,1.09,3.79,2.41,5.18,2.34s-0.17-18.68-0.17-18.68s-0.77-5.28-1.16-7.01
			c-0.33-1.47-1.67-5.79-1.67-5.79s-1.57-6.26,0.37-6.74c1.15-0.28,4.07,4.81,6.07,10.21c2.16,5.82,3.38,11.99,4,11.9
			c1.45-0.19,0.68-10.4,0.68-10.4s-1.44-4.68-1.41-6.88c-1.36-2.7-2.27-7.72,0.13-8.13c0.44-0.08,3.61,6.29,3.61,6.29
			s1.24,4.49,1.97,6.58c1.28,3.7,1.47,9.54,2.14,12.11c0.55,2.14,1.06,1.26,1.29,1.35c0.18,0.07-0.13-2.88-0.49-6.95
			c-0.18-2.05,0.06-4.4-0.51-6.73c-0.53-2.16-0.83-5.24-0.97-7.11c-0.39-5.28,2.93-4.74,4.08,0.09c0.44,1.84,0.9,3.84,1.36,5.88
			c1.79,7.91,1.74,15.54,2.59,15.6c1.11,0.08,0.38-13.8,0.38-13.8s1.7-7.68,3.39-0.55c1.96,8.27,1.75,15.02,1.73,15.32
			C2037.95,1213.09,2039.41,1220.31,2037.72,1227.28z"/>
		<path fill="#F7A491" d="M1975.67,1818.96c0,0,12.58,15.59,15.71,17.51c3.13,1.92-1.4,24.58-9.93,26.06
			c-4.81,0.84-7.48-4.46-7.48-4.46l1.38-6.53l-17.97-18.51L1975.67,1818.96z"/>
		<path fill="#F7A491" d="M1910.87,1822.82c0,0,10.48,17.07,13.35,19.38c2.86,2.3-4.53,24.2-13.18,24.58
			c-4.88,0.22-6.85-5.38-6.85-5.38l2.2-6.3l-15.46-20.66L1910.87,1822.82z"/>
		<path fill="#13375B" d="M1923.59,1841.52c0,0-6.02,7.68-9.31,10.73c-4.24,3.95-9.67,7.8-9.67,7.8s-6.15,11.17-7.83,15.06
			c-3.74,8.67-7.95,18.34-7.34,23.19c0.2,1.56,3.7,3.21,6.62,2.31c12.15-3.74,43.21-32.15,47.14-39.78
			C1947.71,1852.05,1923.59,1841.52,1923.59,1841.52z"/>
		<path fill="#3C8F7C" d="M1834.92,1581.48c1.13-3.16,2.21-6.08,3.26-8.83c12.92,2.82,27.52,5.92,42.53,9.12l1.83,55.03
			c-0.01-4.25-11.29,87.78-11.29,87.78s29.17,64.59,49.13,102.24c-8.19,10.22-12.03,13.51-23.89,20.48
			c-30.98-37.13-71.51-105.08-73.2-116.38C1822.32,1724.42,1821.45,1619.37,1834.92,1581.48z"/>
		<path fill="#50BFA5" d="M1950.25,1597.39c-3.95,42.88-12.73,124.86-11.99,131.46c2.2,8.22,41.25,84.08,48.28,95.12
			c-5.58,8.4-14.22,17.49-23.51,20c-1.83,0.5-66.27-91.21-69.79-98.49c-3.97-8.23-10.59-53.11-10.71-108.68l-1.83-55.03
			C1905.72,1587.11,1928.72,1592.34,1950.25,1597.39z"/>
		<path fill="#355389" d="M1868.1,1401.92l29.45,4.04c0,0,23.55,0.43,26.47,0.43c2.92,0,21.47,107.57,26.82,147.99
			c5.35,40.43,1.21,47.58,1.21,47.58s-37.33,8.4-64.96,5.95c-28.72-2.55-61.04-18.05-61.04-18.05s24.55-77.68,29.42-101.94
			S1868.1,1401.92,1868.1,1401.92z"/>
		<path fill="#86B1F2" d="M1796.7,1271.8c0,0-1.89,80.09,1.13,86.21c4.39,8.91,53.84,72.1,53.84,72.1s-23.62,98.85-33.55,132.98
			c-1,3.44-5.43,25.64-5.43,27.81c0,4.8,20.89,10.89,23.38,10.53c2.22-0.32,20.45-94.35,32.09-140.36
			c3.94-15.59,10.71-30.32,19.96-43.47l8.09-11.5l-62.12-62.26c0,0-7.66-69.3-7.66-75.05
			C1826.45,1267.28,1799.72,1266.15,1796.7,1271.8z"/>
		<path fill="#86B1F2" d="M1923.01,1406.4l77.46-78.93c0,0,10.79-74.64,11.56-77.45c0.75-2.76,19.99-4.25,27.74-5.01
			c2.49-0.24-1.3,79.5-5.01,92.86c-4.38,15.79-62.93,87.73-62.93,87.73s-10.49,38.97-7.97,67.55
			c4.2,47.47,15.51,112.78,13.49,114.82c-12.59,7.93-60.9,8.78-63.96,3.85C1879.62,1557.45,1923.01,1406.4,1923.01,1406.4z"/>
		<path fill="#13375B" d="M1990.67,1835.89c0,0-4.99,8.38-7.86,11.84c-3.7,4.45-8.6,8.97-8.6,8.97s-4.67,11.86-5.84,15.94
			c-2.6,9.08-5.55,20.04-4.32,24.78c0.39,1.52,3.74,4.43,6.5,2.63c10.65-6.94,39.12-39.43,42.03-47.49
			C2015.94,1843.25,1990.67,1835.89,1990.67,1835.89z"/>
		<path fill="#0E2E35" d="M1899.72,1303.56c3.29,0.12,6.59,0.09,9.88-0.2c3.71-0.33,8.45-0.57,11.17,0.01
			c5.73,1.21,14.82,5.27,17.85,12.78c3.78,9.35,17.29,7.96,1.28,43.44c-18.12,40.16-39.29,27.01-39.58,26.11
			s-10.47-34.02-10.47-34.02s-12.67,12.56-12.46,12C1877.6,1363.14,1860.15,1302.13,1899.72,1303.56z"/>
		<path fill="#F7A491" d="M1897.95,1391.38l-2.11,15.71c0,0-4.73,22.64,1.35,27c6.08,4.36,25.87-27.65,25.87-27.65l-2.09-39.81
			L1897.95,1391.38z"/>
		<path fill="#F47458" d="M1921.64,1379.54c-5.02,13.58-16.99,21.93-25.49,25.17l1.79-13.32l23.02-24.75L1921.64,1379.54z"/>
		<path fill="#F7A491" d="M1914.09,1321.61c-11.33-6.5-25.8-0.88-30.06,11.3c-1.85,5.3-3.89,12.01-5.46,19.48
			c-3.78,17.96,2.15,37.27,10.31,38.83c8.16,1.56,32.94-5.81,38.67-31.24C1931.08,1344.27,1925.97,1328.42,1914.09,1321.61z"/>
		<path fill="#F7A491" d="M1921.15,1360.85c-0.76,3.98,1.25,7.7,4.49,8.32c3.24,0.62,6.49-2.1,7.25-6.08
			c0.76-3.98-1.25-7.7-4.49-8.32C1925.16,1354.15,1921.91,1356.87,1921.15,1360.85z"/>
		<path fill="#0E2E35" d="M1928.4,1354.77c0,0-10.12-1.19-11.31-8.44c-1.19-7.25-8.62-24.73-26.25-25.3
			c-17.62-0.57,18.63-7.76,19.88-7.29c1.25,0.47,16.28,6.02,16.28,6.02s7.97,13.87,7.99,15.07c0.02,1.2-0.94,13.84-0.94,13.84
			L1928.4,1354.77z"/>
		<path fill="#FFFFFF" d="M1902.09,1373.21l-18.06-3.14c0,0-0.79,6.95,7.11,8.56C1900.78,1380.6,1902.09,1373.21,1902.09,1373.21z"
			/>
	</g>
	<g>
		<path fill="#F8A492" d="M989.35,1446.72c0.68,2.35,1.07,3.12,1.94,4.7c5.58,10.16,18.54,24.67,18.54,24.67l10.02-22.58
			c0,0-1.63-7.09-4.47-17.23C1005.71,1438.81,996.49,1440.28,989.35,1446.72z"/>
		<path fill="#13375B" d="M1046.81,1427.14c0,0-55.9,24.07-57.71,23.61c-1.16-0.3-22.93-36.73-23.16-70.99
			c-0.11-15.82,16.33-34.86,34.66-31.09c9.23,1.9,9.09,4.46,22.74,24.31C1037,1392.82,1046.81,1427.14,1046.81,1427.14z"/>
		<path fill="#F7A491" d="M1094.53,1858.73c0,0-1.33,21.95-1.33,22c-0.49,2.79-2.41,9.67-2.41,12.21c0,9.52,45.2-8.08,35.07-12.3
			c-0.92-0.38-5.72-3.27-6.02-6.51c-0.46-4.99-1.64-15.09-1.64-15.09L1094.53,1858.73z"/>
		<path fill="#DD513A" d="M1125.75,1880.55c0,0-10.61,2.91-16.05,3.64c-5.44,0.73-12.6-5.4-16.45-3.75
			c-4.23,1.82-4.07,18.23-4.07,18.23s56.91,4.67,72.91-0.16C1168.44,1896.59,1147.45,1887.33,1125.75,1880.55z"/>
		<path fill="#F7A491" d="M1002.06,1858.73c0,0-1.33,21.95-1.33,22c-0.49,2.79-2.41,9.67-2.41,12.21c0,9.52,45.2-8.08,35.07-12.3
			c-0.92-0.38-7.15-5.43-7.45-8.67c-0.46-4.99-0.22-12.94-0.22-12.94L1002.06,1858.73z"/>
		<path fill="#DD513A" d="M1033.28,1880.55c0,0-10.61,2.91-16.05,3.64c-5.44,0.73-12.6-5.4-16.45-3.75
			c-4.23,1.82-4.4,18.23-4.4,18.23s57.17,5.44,73.25-0.16C1075.88,1896.33,1054.98,1887.33,1033.28,1880.55z"/>
		<g>
			<path fill="#F7A491" d="M1015.88,1458.89l39.81-55.77c0.17-0.49,0.53-1.49,1.08-3.01c2.01-5.53,6.18-17.05,9.81-28.51l0.04-0.12
				c1.14-4,3.56-10.99,5.9-17.75c2.6-7.51,5.83-16.83,5.94-18.42c-0.1-0.27-0.29-0.76-0.54-1.41c-1.46-3.79-3.43-12.81-4.13-16.74
				c-0.44-2.5-0.89-8.57,2.08-8.57c4.67,0,2.44,6.07,4.6,9.85c0.79-2.53,2.39-7.55,3.24-12.64l0.78-11.86
				c0.15-0.89-0.8-7.44,2.47-7.44l0.16,0.01c2.94,0.21,2.88,7.17,4.1,18.93c0.39-1.35,0.77-2.99,1.07-4.49
				c-0.03-0.8,0.55-4.34,1-6.21c-0.59-3.28-0.25-8.45,3.24-7.96c1.75,0.25,1.6,7.46,1.6,7.46c-0.02,0.99-0.12,8.62-0.07,10.12
				c0.36-2.56,1.76-13.48,4.5-13.48c2.27,0,2.45,2.94,2.41,5.26c-0.03,1.38-1.45,13.2-1.53,14.58c1.07-1.79,2.34-12.22,3.4-12.22
				c4.43,0,2.83,14.82,1.2,18.68c-0.15,0.39-0.32,1.17-0.5,2.07c-0.55,2.64-1.48,7.06-3.8,11.03c-2.78,4.76-6.62,12.32-7.2,13.48
				c-0.43,2.36-1.76,10.86-3.44,21.54c-0.72,4.57-1.5,9.59-2.32,14.78l-0.04-0.01c-0.15,1.12-0.98,4.7-4.13,18.1
				c-4.31,18.35-4.76,19.14-4.95,19.48c-1.87,3.31-44.8,61.6-46.62,64.08l-1.08,1.46L1015.88,1458.89z"/>
			<path fill="#F47458" d="M1089.93,1328.82c0,0-3.23-8.26-8.98-8.28c0,0,3.21-1.16,5.97,1.02
				C1089.67,1323.74,1089.93,1328.82,1089.93,1328.82z"/>
		</g>
		<g>
			<path fill="#F7A491" d="M1006.26,1312.85l-5.12,32.41c0,0,19.53,15.68,30.91,12.37c9.55-2.78,3-15.26,3-15.26
				s-5.09-17.3-3.53-26.37C1033.08,1306.93,1006.26,1312.85,1006.26,1312.85z"/>
			<path fill="#FE875E" d="M1009.94,1322.65c4.89,2.31,14.57,5.46,22.1,6.23c-0.72-4.54-1.13-9.33-0.52-12.88
				c0.72-4.19-4.61-5.18-10.55-5.03c-7.78,0.67-14.71,1.88-14.71,1.88l-0.99,6.23C1006.75,1320.64,1008.31,1321.88,1009.94,1322.65z
				"/>
			<path fill="#F7A491" d="M981.62,1275.46c-0.81,0,7.72,36.21,20.91,42.44c13.19,6.23,32.87,2.98,36.56-6.77
				c4.08-10.79-10.81-47.72-29.37-52.42C991.16,1254.02,981.62,1275.46,981.62,1275.46z"/>
			<path fill="#13375B" d="M996.88,1242.2c-10.54,6.08-15.38,15.09-17,18.79c-4.95,2.35-10.93,7.42-13.8,21.1
				c-3.53,16.82,9.03,29.78,22.34,33.68c13.31,3.9,15.37,12.71,15.37,12.71l1.51-9.48c0,0-2.96-8.26-7.42-12.39
				c-4.45-4.13,2.11-10.15,2.69-15.06c0.44-3.78-2.34-11.12-1.74-17.33c0,0,7.4-11.21,14.69-13.98
				C1025.96,1255.51,1010.4,1234.4,996.88,1242.2z"/>
			<path fill="#F7A491" d="M1002.49,1297.85c1.72,4.18,1.02,8.33-1.57,9.27s-6.09-1.69-7.82-5.87c-1.72-4.18-1.02-8.33,1.57-9.27
				C997.27,1291.04,1000.77,1293.67,1002.49,1297.85z"/>
		</g>
		<path fill="#F8A492" d="M1051.63,1459.79l76.79-12.52c0,0-8.74-22-11.86-22c-3.12,0-58.07,23.99-58.07,23.99l-4.37,8.78
			L1051.63,1459.79z"/>
		<path fill="#184655" d="M1012.3,1512.44c0,0-7.66,37.03-4.54,65.12c3.12,28.08,3.37,127.83,3.37,127.83l-11.91,159.61l28.27,0.62
			c0,0,33.52-159.53,32.89-155.43c-0.62,4.09,11.24-112.32,11.24-112.32l-39.96-88.92L1012.3,1512.44z"/>
		<path fill="#13375B" d="M1019.79,1510.68c0,0-5,33.35,1.25,47.97c6.24,14.62,53.55,158.13,54.18,169.83
			c0.62,11.7,16.36,141.03,16.36,141.03l32.87-0.92l7.11-143.79l-14.89-180.71l-14.46-45.69L1019.79,1510.68z"/>
		<path fill="#F7A491" d="M1001.14,1345.26c0,0,8.1,5.32,15.66,4.7c7.56-0.62,18.25-7.59,18.25-7.59l-1.49-5.04
			c0,0-19.56-2.85-20.05-2.54C1013.02,1335.1,1001.14,1345.26,1001.14,1345.26z"/>
		<path fill="#F8A492" d="M1087.52,1424.18c0,0,29.05,27.41,42.16,22.73c13.11-4.68,18.54-20.68-13.45-44.08
			C1087.59,1381.88,1087.52,1424.18,1087.52,1424.18z"/>
		<path fill="#355389" d="M1107.2,1458.03c-4.31-23.48-35.59-96.53-38.09-109.98c-1.21-6.54-18.08-6.69-34.15-5.83
			c-16.97,0.9-33.83,3.05-33.83,3.05s-15.02,2.47-21.63,8.66c-6.61,6.19-8.37,23.32,1.14,55.84c7.5,25.67,16.8,39.76,21.4,58.46
			c0.93,6.27,1.73,12.46,2.79,19.69c1.69,27.96-0.02,64.89-0.02,64.89s81.79,16.97,112.38-8.78
			C1117.19,1544.03,1111.62,1482.08,1107.2,1458.03z"/>
		<path fill="#466EB6" d="M1128.06,1407.55c0,0-32.09,26.49-33.97,26.49c-1.21,0-45.8-32.8-56.09-59.75
			c-5.69-14.9,6.25-31.57,19.88-31.51c9.45,0.04,13.65,2.47,32.38,18.27C1108.99,1376.84,1128.06,1407.55,1128.06,1407.55z"/>
	</g>
	<path fill="#CAE1F9" d="M1260.25,823.31c-7.85-5.3-15.89-10.32-23.63-15.77c-1.41-1-2.66-3.54-2.5-5.24
		c1.02-10.92,2.66-21.79,3.61-32.71c0.27-3.18,0.99-4.85,4.05-6.04c10.75-4.2,21.38-8.69,32.05-13.09c1.73-0.71,3.43-1.49,6.42-2.78
		c-5.1-16.38-10.13-32.57-15.3-49.17c-13.74,2.73-26.26,5-38.68,7.79c-4.38,0.98-6.76,0.48-9.58-3.58
		c-5.76-8.29-12.67-15.78-18.87-23.78c-0.95-1.23-1.36-3.7-0.81-5.13c4.22-10.92,8.43-21.87,13.3-32.5c2.34-5.1,1.17-7.85-3.4-10.23
		c-1.76-0.91-3.19-2.46-4.77-3.72c-7.89-4.24-15.79-8.49-23.68-12.73c-0.99-0.2-2.05-0.24-2.97-0.62
		c-9.63-3.94-7.77-3.86-13.24,4.18c-6.66,9.79-13.16,19.7-18.87,28.26c-14.75-1.38-28.54-2.67-42.78-4
		c-5.39-13.08-11.02-26.76-16.69-40.52c-17.38,2.34-33.35,7.81-49.02,15.24c2.71,13.51,5.31,26.68,8.02,39.84
		c0.49,2.36,0.34,3.79-1.97,5.52c-9.06,6.78-17.96,13.79-26.53,21.17c-2.47,2.13-4.06,2.14-6.71,1.02
		c-10.96-4.61-22.02-8.96-32.99-13.52c-2.73-1.13-4.49-1.05-6.51,1.62c-9.06,11.96-15.23,25.34-20.3,39.34
		c-1,2.77,0.33,3.97,2.42,5.33c9.68,6.29,19.21,12.82,28.93,19.04c2.8,1.79,3.66,3.34,3.1,6.96c-1.93,12.51-3.14,25.13-4.74,38.72
		c-11.89,4.9-25.39,10.46-38.88,16.02c2.31,17.71,7.06,34.1,14.9,49.72c14.72-3.03,29.05-5.97,42.02-8.64
		c8.09,9.33,15.39,18.19,23.23,26.55c2.96,3.16,3.49,5.54,1.76,9.44c-4.62,10.39-8.83,20.96-13.1,31.5
		c-0.84,2.08-2.5,4.51,0.75,6.23c13.23,6.98,26.45,13.98,39.68,20.96c2.81,1.48,4.59,0.54,6.29-2.11
		c6.33-9.86,13.1-19.44,19.26-29.39c2.38-3.84,4.93-3.99,8.92-3.45c9.85,1.32,19.77,2.46,29.69,2.68c4.27,0.1,5.84,1.21,7.28,5.01
		c4.63,12.21,9.75,24.24,14.58,36.09c10.59,0,39.44-9.04,49.84-15.5c-2.72-13-5.34-26.17-8.32-39.26c-0.75-3.27,0.23-4.68,2.73-6.65
		c8.08-6.36,15.71-13.29,23.73-19.73c1.35-1.08,4.09-1.68,5.63-1.08c9.78,3.83,19.43,8,29.08,12.17c5.39,2.33,7.56,3.29,9.63,1.91
		l22.59-42.02C1268.95,829.21,1266.6,827.6,1260.25,823.31z M1176.29,808.58c-20.19,37.56-67.01,51.63-104.57,31.44h0
		c-37.56-20.2-51.63-67.01-31.44-104.57l0,0c20.19-37.56,67.01-51.63,104.57-31.44h0C1182.41,724.2,1196.49,771.02,1176.29,808.58
		L1176.29,808.58z"/>
	<path fill="#9BC1F9" d="M867.27,1003.19c-12.7,1.24-25.35,2.92-38.07,3.9c-2.32,0.18-5.81-1.4-7.09-3.29
		c-8.32-12.21-15.93-24.9-24.33-37.06c-2.44-3.54-3.13-5.88-0.98-9.74c7.55-13.58,14.74-27.37,22.04-41.09
		c1.18-2.22,2.29-4.49,4.28-8.4c-19.35-12.63-38.48-25.12-58.09-37.92c-11.92,14.62-22.97,27.74-33.47,41.28
		c-3.7,4.78-6.61,6.3-13.02,4.5c-13.1-3.67-26.7-5.51-40-8.49c-2.04-0.46-4.59-2.68-5.24-4.64c-4.99-14.96-10.02-29.93-14.09-45.16
		c-1.95-7.31-5.52-9.16-12.31-7.7c-2.61,0.56-5.42,0.18-8.14,0.23c-11.84,2.37-23.68,4.74-35.51,7.1c-1.2,0.65-2.33,1.51-3.61,1.91
		c-13.38,4.18-11.38,2.67-10.16,15.71c1.49,15.89,3.24,31.75,4.66,45.53c-16.5,11.23-31.92,21.73-47.85,32.56
		c-16.83-8.96-34.41-18.32-52.1-27.74c-16.03,17.34-27.92,36.73-37.81,57.89c14.4,11.7,28.42,23.14,42.52,34.48
		c2.53,2.04,3.61,3.64,2.69,7.43c-3.59,14.81-6.81,29.74-9.37,44.75c-0.74,4.33-2.38,5.7-6.09,6.82
		c-15.33,4.62-30.55,9.59-45.86,14.28c-3.8,1.16-5.57,2.76-5.37,7.27c0.86,20.19,5.94,39.38,12.69,58.26
		c1.34,3.74,3.75,3.84,7.09,3.45c15.45-1.78,30.94-3.18,46.38-5.06c4.45-0.54,6.66,0.33,9.19,4.56
		c8.73,14.65,18.31,28.78,28.3,44.27c-8.14,15.29-17.38,32.65-26.62,50c17.59,16.4,36.59,29.34,58.15,38.83
		c12.69-15.78,25.04-31.13,36.22-45.03c16.41,2.74,31.59,5.68,46.9,7.62c5.79,0.73,8.38,2.75,9.92,8.29
		c4.12,14.75,8.82,29.34,13.44,43.94c0.91,2.89,1.27,6.83,6.12,5.82c19.73-4.1,39.46-8.18,59.18-12.29
		c4.19-0.87,5.22-3.38,4.72-7.59c-1.88-15.67-3.08-31.42-5.23-47.05c-0.83-6.03,1.7-8.38,6.3-11.24
		c11.36-7.08,22.63-14.42,33.12-22.69c4.52-3.57,7.1-3.75,11.86-1.05c15.29,8.7,30.93,16.8,46.11,24.96
		c10.99-9.09,33.19-43.24,38.44-58.87c-13.98-11.16-28.01-22.59-42.34-33.62c-3.59-2.76-3.78-5.05-2.87-9.25
		c2.93-13.54,4.91-27.28,7.71-40.85c0.47-2.28,2.8-5.25,4.92-5.95c13.44-4.42,27.04-8.37,40.64-12.32
		c7.6-2.21,10.68-3.07,11.63-6.29l-12.6-63.01C881.36,1001.85,877.54,1002.19,867.27,1003.19z M767.45,1059.95
		c11.27,56.33-25.26,111.12-81.59,122.38l0,0c-56.32,11.27-111.12-25.26-122.38-81.59l0,0c-11.27-56.32,25.26-111.12,81.59-122.38
		l0,0C701.39,967.1,756.18,1003.62,767.45,1059.95L767.45,1059.95z"/>
	<path opacity="0.2" fill="#9BC1F9" d="M840.87,675.68c-5.09-2.41-10.26-4.65-15.3-7.16c-0.92-0.46-1.88-1.85-1.94-2.86
		c-0.38-6.51-0.38-13.05-0.8-19.56c-0.12-1.89,0.15-2.94,1.84-3.91c5.94-3.43,11.79-7.02,17.68-10.55c0.95-0.57,1.89-1.18,3.53-2.21
		c-4.46-9.17-8.86-18.25-13.38-27.55c-7.83,2.83-15,5.28-22.05,8.03c-2.49,0.97-3.93,0.88-5.95-1.25
		c-4.12-4.36-8.86-8.15-13.22-12.3c-0.67-0.64-1.13-2.06-0.93-2.95c1.51-6.8,3-13.61,4.92-20.3c0.92-3.21-0.01-4.72-2.91-5.71
		c-1.11-0.38-2.09-1.16-3.13-1.76c-5.02-1.79-10.04-3.58-15.06-5.37c-0.6-0.03-1.23,0.04-1.8-0.1c-6.01-1.46-4.92-1.58-7.41,3.64
		c-3.04,6.35-5.98,12.76-8.57,18.3c-8.8,0.5-17.02,0.98-25.51,1.46c-4.34-7.21-8.87-14.75-13.43-22.33
		c-10.01,2.92-18.91,7.57-27.46,13.33c2.8,7.7,5.51,15.21,8.27,22.71c0.5,1.34,0.54,2.2-0.67,3.42c-4.72,4.79-9.33,9.71-13.71,14.82
		c-1.26,1.47-2.2,1.62-3.86,1.2c-6.85-1.73-13.75-3.3-20.6-5.01c-1.7-0.42-2.73-0.22-3.68,1.53c-4.26,7.84-6.7,16.26-8.43,24.94
		c-0.34,1.72,0.55,2.3,1.9,2.92c6.25,2.84,12.44,5.82,18.71,8.62c1.81,0.8,2.45,1.64,2.44,3.81c-0.02,7.53,0.4,15.05,0.66,23.19
		c-6.56,3.94-13.99,8.41-21.43,12.88c2.94,10.21,7.19,19.42,13.2,27.91c8.39-3.09,16.55-6.1,23.94-8.83
		c5.59,4.76,10.67,9.32,16.03,13.54c2.02,1.59,2.54,2.94,1.87,5.39c-1.79,6.52-3.32,13.11-4.89,19.69c-0.31,1.3-1.07,2.87,0.99,3.59
		c8.4,2.93,16.8,5.86,25.2,8.78c1.79,0.62,2.74-0.09,3.51-1.8c2.84-6.36,5.97-12.6,8.7-19c1.06-2.47,2.55-2.79,4.94-2.83
		c5.91-0.1,11.84-0.32,17.69-1.07c2.52-0.32,3.54,0.19,4.73,2.3c3.81,6.77,7.89,13.38,11.79,19.92c6.23-0.95,22.38-8.84,27.92-13.56
		c-2.76-7.4-5.47-14.91-8.4-22.34c-0.73-1.86-0.29-2.77,1.01-4.16c4.19-4.46,8.05-9.21,12.2-13.72c0.7-0.76,2.25-1.35,3.21-1.14
		c6.09,1.38,12.14,2.97,18.18,4.56c3.38,0.89,4.74,1.26,5.83,0.26l9.54-26.72C846.5,678.37,844.98,677.63,840.87,675.68z
		 M790.19,674.5c-8.52,23.88-34.79,36.33-58.68,27.81l0,0c-23.88-8.52-36.33-34.8-27.81-58.68l0,0
		c8.52-23.88,34.79-36.33,58.68-27.81l0,0C786.26,624.35,798.71,650.62,790.19,674.5L790.19,674.5z"/>
	<path fill="#355389" d="M760.03,1891.49l-15.11-0.06c1.99-65.94,3.75-166.08,0.42-171.7c0.01,0.02,0.22,0.36,1.01,0.76l12.26-3.2
		c1.98,1,3.18,1.6,3.59,29.64c0.21,14.43,0.13,34.36-0.24,59.23C761.33,1848.49,760.05,1891.06,760.03,1891.49z"/>
	<path fill="#355389" d="M804.31,1890.68H702.36c-4.7,0-8.5,3.81-8.5,8.5l0,0c0,0.82,0.67,1.49,1.49,1.49h115.98
		c0.82,0,1.49-0.67,1.49-1.49l0,0C812.81,1894.49,809,1890.68,804.31,1890.68z"/>
	<path fill="#355389" d="M758.38,1882.3H745.9c-3.69,0-6.69,3-6.69,6.69l0,0c0,3.7,3,6.69,6.69,6.69h12.49c3.69,0,6.69-3,6.69-6.69
		l0,0C765.07,1885.29,762.08,1882.3,758.38,1882.3z"/>
	<rect x="390.88" y="1599.89" fill="#13375B" width="6.03" height="300.59"/>
	<path fill="#13375B" d="M700.96,1433.58c-0.55-13.36,1.41-26.55,7.39-38.99c5.14-10.7,17.87-16.77,29.47-16.79
		c36.85-0.05,41.53,48.63,64.98,67.41c7.17,5.74,15.18,10.41,21.96,16.6c25.04,22.85,13.76,65.14-9.23,85.18
		c-15.96,13.9-41.03,21.8-60.7,10.93c-10.27-5.67-18.06-15.1-23.61-25.43c-7.88-14.66-12.96-31.58-18.56-47.21
		C706.69,1468.65,701.7,1451.34,700.96,1433.58z"/>
	<path fill="#F48C7F" d="M599.31,1573.56l80.18-22.35c0,0,16.89-22.69,38.62-53.13c7.11,7.03,11.05,17.84,18.21,24.8l-53.07,58.7
		c-1.91,2.12-4.63,3.33-7.49,3.34l-73.68,0.25l-25.21,2.01v-16.14L599.31,1573.56z"/>
	<path fill="#96D9C9" d="M714.74,1556.54c0,0,27.52-28.22,34.6-40.47c7.08-12.26-4.82-4.28-16.98-7.5
		c-4.6-1.22-3.44-28.2-12.14-19.43c-14.28,14.39-32.23,39.55-32.23,39.55L714.74,1556.54z"/>
	<path fill="#50BFA5" d="M753.86,1476.75c0,0,24.7-4.88,35.96,4.54c11.27,9.42-2.41,93.12-2.4,107c0.01,13.88,7.74,53.08,7.74,53.08
		s-74.85,13.1-86.74-7.73c0,0-3.38-79.37-2.88-89.35c0.5-9.98,11.6-50.8,14.67-55.17C723.28,1484.76,753.86,1476.75,753.86,1476.75z
		"/>
	<path fill="#F7A491" d="M754.02,1438.55c0,0,0.13,0.74,0.36,2c1.12,6.03,5.43,26.02,8.35,31.52c3.52,6.64-12.06,27.83-27.05,25.24
		c-4.46-0.77,3.77-19.47,3.38-21.45c-0.76-3.79-1.79-8.96-2.84-14.27c-0.59-2.99-1.19-6.03-1.76-8.88
		c-1.6-8.1-2.91-14.73-2.91-14.73L754.02,1438.55z"/>
	<path fill="#F47458" d="M754.38,1440.54c-0.23-1.26-0.36-2-0.36-2l-22.47-0.56c0,0,1.31,6.63,2.91,14.73
		c0.56,2.83,1.16,5.85,1.75,8.83c3.47-0.51,7.09-2.19,10.73-5.37c3.96-3.46,6.56-7.62,8.12-12.06
		C754.78,1442.7,754.55,1441.48,754.38,1440.54z"/>
	<path fill="#F7A491" d="M738.9,1387.59c0,0,10.59-1.22,17.23,7.35c6.64,8.57,13.79,35.06-2.7,49.47
		c-16.49,14.4-32.78-1.9-35.19-19.19C715.81,1407.92,714.88,1386.96,738.9,1387.59z"/>
	<path fill="#F7A491" d="M713.35,1424.96c1.97,3.82,5.27,5.93,7.38,4.72c2.11-1.21,2.22-5.29,0.25-9.1
		c-1.97-3.82-5.27-5.93-7.38-4.72C711.5,1417.06,711.38,1421.14,713.35,1424.96z"/>
	<path fill="#13375B" d="M737.71,1384.76c0,0,14.15,25.19,24.27,26.36c10.12,1.17,11.45,14.55,11.45,14.55s-3.62-30.85-13.64-36.8
		C749.77,1382.92,737.71,1384.76,737.71,1384.76z"/>
	<path fill="#F7A491" d="M759.32,1417.45c-0.82,4.47,0.83,8.58,3.7,9.16c2.87,0.59,5.85-2.56,6.68-7.04
		c0.82-4.47-0.83-8.58-3.7-9.17C763.14,1409.82,760.15,1412.97,759.32,1417.45z"/>
	<g>
		<path fill="#F48C7F" d="M664.12,1832.4c0,0,22.72,27.24,22.87,29.61c0.15,2.37-0.9,28.24-3.6,30.61s-10.64,4.05-8.09,6.72
			c1.93,2.02,16.77,1.58,26.6,1.04c2.87-0.16,6.47-23.06,7.61-26.43c1.65-4.89,5.67-15.9,4.17-19.31c-0.73-1.66-4.23-5.07-9.16-8.26
			c-5.19-3.35-25.02-30.95-25.02-30.95L664.12,1832.4z"/>
		<path fill="#B75742" d="M704.18,1846.22c0,0-15.26,42.95-21.23,45.03c-1.59,0.55-9.19,1.95-10.63,5.31c-0.43,1.01,0,4.4,0,4.4
			h31.8c0,0,4.02-18.93,5.61-27.24c0,0,8.42-20.32,7.48-22.16C716.28,1849.71,704.18,1846.22,704.18,1846.22z"/>
		<path fill="#F7A491" d="M528.03,1845.48c0,0-18.55,26.12-16.92,34.38c0.87,4.42,4.77,10.22,2.53,14.38
			c-2.23,4.16-4.79,5.21-4.79,5.21l-57.87,0.93c-3.15,0.05-1.07-1.97,1.47-3.84c4.16-3.05,7.52-5.07,20.81-11.49
			c0.87-0.42,4.02-2.42,5.16-3.11c2.89-1.76,5.78-4.53,8.28-7.3c4.16-4.62,22.43-42.24,22.43-42.24L528.03,1845.48z"/>
		<path fill="#B75742" d="M478.43,1881.93c15.31,3.92,26.62,1.25,32.95-1.29c1.63,4.62,3.8,10.41,2.65,13.75
			c-1.4,4.09-3.41,5.01-5.17,5.06c-13.98,0.37-51.21,0.87-61.87,1c-1.49,0.02-2.31-1.72-1.35-2.86
			C448.28,1894.44,477.29,1882.63,478.43,1881.93z"/>
		<path fill="#B75742" d="M595.14,1684.34c0,0,22.97,26.22,28.83,30.37c5.86,4.15,62.09,107.7,62.09,107.7l-20.03,14.63
			c0,0-50.26-62.66-73.86-96.18c-19.96-28.34-12.61-26.54-24.34-43.79c-6.46-9.5-5-22.34,3.52-30.04c1.06-0.96,2.21-1.96,3.46-3
			c17.37-14.48,136.44-30.77,136.44-30.77l76.16,7.46c0,0-62.23,43.64-64.55,44.8c-2.32,1.16-85.93,13.35-87.67,13.35
			C633.46,1698.86,595.14,1684.34,595.14,1684.34z"/>
		<path fill="#F47458" d="M795.16,1641.37c0,0,13.06,39.19-6.53,57.48c-19.6,18.29-136.01,16.26-174.33,16.26
			c0,0-15.68,42.97-17.42,49.93c-1.74,6.97-77.8,96.96-77.8,96.96l-20.9-13.35c0,0,81.87-159.09,88.25-166.06
			c6.39-6.97,97.54-34.84,120.19-41.22C729.26,1634.99,795.16,1641.37,795.16,1641.37z"/>
	</g>
	<path fill="#F7A491" d="M643.69,1570.87l69.52-15.38c0,0,25.14-32.3,49.29-60.11c7.11,7.03,11.05,17.84,18.21,24.8l-53.07,58.71
		c-1.91,2.12-4.63,3.33-7.49,3.34l-73.68,0.25l-25.21,2.01v-16.14L643.69,1570.87z"/>
	<path fill="#96D9C9" d="M759.11,1553.85c0,0,27.52-28.21,34.6-40.47c7.08-12.26,1.83-32.8-10.33-36.02
		c-12.16-3.22-51.03,48.63-51.03,48.63L759.11,1553.85z"/>
	<g>
		<path fill="#B75742" d="M500.87,1491.73h114.65c3.03,0,5.77,1.83,6.92,4.64l35.3,86.1h63.21c1.77,0,3.2,1.43,3.2,3.2l0,0
			c0,1.77-1.43,3.2-3.2,3.2H541.05c-4.95,0-9.43-2.9-11.46-7.42l-35.55-79.18C491.83,1497.32,495.45,1491.73,500.87,1491.73z"/>
		<path fill="#FFFFFF" d="M562.6,1541.87c0.77,3.87,4.15,6.45,7.53,5.78c3.39-0.68,5.5-4.36,4.73-8.23
			c-0.77-3.87-4.15-6.45-7.54-5.78C563.94,1534.32,561.82,1538,562.6,1541.87z"/>
	</g>
	<path fill="#184655" d="M733.03,1603.39H390.5c-4.01,0-7.26-3.25-7.26-7.26l0,0c0-4.01,3.25-7.26,7.26-7.26h342.53
		c4.01,0,7.26,3.25,7.26,7.26l0,0C740.29,1600.14,737.04,1603.39,733.03,1603.39z"/>
	<path fill="#FFFFFF" d="M732.52,1434.88l15.53-0.8c0,0-0.05,5.92-6.87,6.47C732.87,1441.22,732.52,1434.88,732.52,1434.88z"/>
	<path fill="#355389" d="M683.93,1719.13l7.01-29.2c4.91-20.42,22.99-35.28,43.98-36.13l88.85-3.59l2.74-9.04l-91.95,3.72
		c-24.96,1.01-46.47,18.68-52.3,42.97l-7.45,31.03C677.33,1718.98,680.41,1719.07,683.93,1719.13z"/>
	<path fill="#184655" d="M803.1,1703.58c0,0-122.07,2.09-134.8,0c-12.73-2.09-18.23,13.87-14.44,22.22s14.25,11.59,29.63,12.35
		c15.39,0.76,143.41,4.37,147.01,0.95c2.95-2.79,41.76-135.47,55.88-184c2.82-9.7-2.74-19.83-12.44-22.68l0,0
		c-9.65-2.83-19.77,2.64-22.69,12.26L803.1,1703.58z"/>
	<rect x="727.02" y="1599.89" fill="#13375B" width="6.03" height="300.59"/>
	<rect x="390.88" y="1619.35" fill="#13375B" width="340.67" height="3.23"/>
	<g>
		<path fill="#E25A44" d="M1640.08,153.52c0,0,44.26,28.65,153.34,24.75c0,0-116.92,44.15-162.63,50.98l-18.81-74.31L1640.08,153.52
			z"/>
		<path fill="#B75742" d="M1660.94,190.94c0,0-8.93,20.92-30.15,38.31l-9.8-38.72l0.63-18.73L1660.94,190.94z"/>
		<path fill="#F47458" d="M1492.72,111.13c0,0,127.81-8.64,147.68-1.34l20.54,81.14c0,0-72.75-6.25-143.62,17.39L1492.72,111.13z"/>
		<path fill="#F48C7F" d="M1415.73,1015.59c0,0-6.16,10.05-5.6,13.03c0.56,2.98,7.96,34.48,12.04,36.57
			c4.08,2.08,14.41,1.68,12.09,5.77c-1.75,3.09-20.22,7.2-32.54,9.61c-3.6,0.7-15.21-26.47-17.67-30.27
			c-3.57-5.52-11.97-17.87-11.19-22.55c0.38-2.28,3.64-7.59,8.74-13.07c5.36-5.76,9.16-16.53,9.16-16.53L1415.73,1015.59z"/>
		<path fill="#F7A491" d="M1505.15,1012.72c0,0-2.08,22.53-2.08,22.58c0.29,3.41,0.19,12.05,0.95,15.02
			c2.83,11.19,48.04-22.27,35.48-24.36c-1.14-0.19-5.25-2.96-6.55-6.68c-2-5.73,0.9-14.3,0.9-14.3L1505.15,1012.72z"/>
		<path fill="#3C8F7C" d="M1486.82,607.72c0,0,13.06,36.13,13.2,36.68c15.18,59.95,56.71,174.05,57.31,185.89
			c1.45,28.89-22.39,184.16-22.39,184.16l-33.04,4.29l-0.72-178.49l-32.49-63.69l-55.59-128.08L1486.82,607.72z"/>
		<path fill="#50BFA5" d="M1387.48,667.76l2.81,36.67l20.14,148.73l-26.93,157.17c0,0,14.03,18.33,27.77,17.92l63.07-170.33
			l15-201.32l-12.62-40.69L1387.48,667.76z"/>
		<path fill="#13375B" d="M1381.96,1014.37c0,0,32.28,48.29,40.31,48.99c2.13,0.18,11.97-0.47,14.79,3.24
			c0.85,1.12,2.65,6.71,2.65,6.71l-40.5,11.66c0,0-10.95-25.11-15.51-34.88c0,0-16.75-22.47-16.18-25.04
			C1368.1,1022.47,1381.96,1014.37,1381.96,1014.37z"/>
		<path fill="#13375B" d="M1502,1056.06l1.23-21.02c0,0,13.43,2.06,19.28-0.33c5.85-2.39,16.83-8.81,16.83-8.81
			c26.23,1.84,47.04,0.68,45.06,8.01l0,0L1502,1056.06z"/>
		<path fill="#F48C7F" d="M1564.68,485.79l17.47,13.4c3.37-2.59,10.73-13.52,15.49-16.92l-15.96-17.41l0,0
			c-1.32-0.96-2.02-2.55-1.87-4.17c0.11-1.14,0.27-2.23,0.44-2.68c0.5-1.38,0.94-3.02,1.44-4.39c0.5-1.38-2.8-4.14-4.53-4.63
			c-1.73-0.49-2.3,6.14-3.05,8.12c-2.26,5.95-4.99,22.24-5.51,24.94L1564.68,485.79z"/>
		<path fill="#13375B" d="M1584.04,497.49c-4.91-5.23-11.83-8.17-16.96-13.61l-77.51,53.37c0,0-59.93-70.87-92.47-45.76
			c14.24,23.98,31.41,46.96,40.25,57.91c19.9,24.64,50.29,36.4,56.22,33.68C1500.24,580.02,1582.29,499.6,1584.04,497.49z"/>
		<path fill="#F8A492" d="M1245.01,320.1c2.56,6.83,7,17.58,7,17.58c0.12,3.09,0.76,15.92,1.57,31.64l21.81-11.95
			c0,0-3.35-25.38-2.51-27.05c0.71-1.42,2.36,0.05,8.17-10.86c1.68-3.15,1.43-8.38,1.43-8.38s-0.35-6.43-1.86-6.85
			c-1.5-0.42-3.03,0.73-3.42,1.9c-0.39,1.17,0.06,3.72-0.33,4.88s-3.54,2.9-4.94,3c-1.4,0.1-2.11-18.9-2.11-18.9
			s0.13-5.43,0.32-7.22c0.16-1.53,0.98-6.06,0.98-6.06s0.82-6.52-1.2-6.77c-1.19-0.14-3.52,5.36-4.89,11.06
			c-1.47,6.14-1.95,12.53-2.58,12.52c-1.49-0.02-1.96-10.43-1.96-10.43s0.89-4.9,0.58-7.12c1.05-2.9,1.35-8.08-1.13-8.2
			c-0.46-0.02-2.87,6.8-2.87,6.8s-0.71,4.68-1.18,6.89c-0.84,3.89-0.32,9.82-0.68,12.5c-0.3,2.23-0.91,1.4-1.13,1.52
			c-0.17,0.09-0.22-2.93-0.36-7.08c-0.07-2.09-0.6-4.44-0.3-6.87c0.27-2.24,0.2-5.4,0.11-7.3c-0.25-5.38-3.54-4.43-4.12,0.59
			c-0.22,1.91-0.44,3.99-0.65,6.11c-0.84,8.21,0.15,15.91-0.71,16.08c-1.11,0.22-2.07-13.9-2.07-13.9s-2.66-7.56-3.49-0.14
			c-0.97,8.6,0.06,15.39,0.13,15.69C1243.04,305.79,1242.45,313.27,1245.01,320.1z"/>
		<path fill="#F47458" d="M1398.03,385.37c0,0-13.15-10.89-20.73,5.21c0,0-7.72-3.18-11.92,4.66c0,0-13.54-2.35-14.34,17.56
			c0,0-6.87-0.46-6.79,7.64s4.78,12.93,4.78,12.93s-3.43,3.29-0.83,10.42c2.21,6.07,7.5,6.39,7.5,6.39s2.67,10.36,7.62,12.97
			s10.98,0.34,10.98,0.34s2.34,5.51,7.6,4.35c5.26-1.15,11.24-7.02,17.48-5.46c6.24,1.56,21.41-2.72,21.41-2.72
			s16.44-9.84,9.09-26.96c0,0,8.13-9.35-1.05-18.27c0,0,3.96-16.18-8.68-23.91C1407.5,382.81,1398.03,385.37,1398.03,385.37z"/>
		<path fill="#F7CC7F" d="M1435.25,497.28l-26.77-13.77c0,0-23.78,3.47-26.73,3.83c-2.95,0.36-8.5,111.15-8.97,152.65
			c-0.47,41.5,4.6,48.22,4.6,48.22s38.75,3.92,66.36-1.93c28.71-6.08,59.46-25.7,59.46-25.7s-34.3-75.49-42.19-99.4
			C1453.13,537.26,1435.25,497.28,1435.25,497.28z"/>
		<path fill="#13375B" d="M1382.81,487.06l-87.92-70.28c0,0-20.03-74.09-21.15-76.84c-1.1-2.7-20.72-1.85-28.64-1.67
			c-2.54,0.06,11.03,80.16,16.42,93.21c6.36,15.42,74.31,80.95,74.31,80.95s15.37,38.09,16.31,67.28
			c1.56,48.48-1.89,115.84,0.41,117.67c13.69,6.47,62.61,1.42,65.1-3.93C1445.12,634.37,1382.81,487.06,1382.81,487.06z"/>
		<path fill="#F7A491" d="M1406.16,469.11l4.01,15.41c0,0,7.46,22,1.9,27.09c-5.56,5.09-29.22-24.43-29.22-24.43l-2.71-39.95
			L1406.16,469.11z"/>
		<path fill="#F47458" d="M1381.02,460.17c6.67,12.93,19.65,19.81,28.54,22.01l-3.4-13.07l-26.02-21.89L1381.02,460.17z"/>
		<path fill="#F47458" d="M1344.49,424.17c0.73,6.05,4.76,10.53,9,10.02c4.24-0.51,7.09-5.83,6.35-11.88s-4.76-10.53-9-10.02
			C1346.6,412.8,1343.76,418.12,1344.49,424.17z"/>
		<path fill="#F47458" d="M1364.68,397.85c0.42,3.47,4.95,5.79,10.11,5.16c5.16-0.62,9-3.95,8.58-7.42
			c-0.42-3.47-4.94-5.79-10.11-5.16C1368.1,391.05,1364.26,394.37,1364.68,397.85z"/>
		<path fill="#F7A491" d="M1389.16,403.82c11.84-5.75,25.99,0.87,29.42,13.37c1.49,5.43,3.07,12.3,4.13,19.89
			c2.55,18.26-4.77,37.21-13.08,38.22c-8.31,1.01-32.71-8.06-36.68-33.94C1370.49,425.39,1376.74,409.85,1389.16,403.82z"/>
		<path fill="#F7A491" d="M1379.32,442.67c0.49,4.04-1.79,7.63-5.09,8.03c-3.3,0.4-6.37-2.55-6.86-6.59
			c-0.49-4.04,1.79-7.63,5.09-8.03C1375.76,435.69,1378.83,438.64,1379.32,442.67z"/>
		<path fill="#F47458" d="M1424.05,390.36c9.41,5.76,13.66,15.73,9.51,22.26c-4.15,6.53-15.14,7.16-24.55,1.4
			c-9.4-5.76-13.66-15.73-9.51-22.26C1403.66,385.22,1414.65,384.6,1424.05,390.36z"/>
		<path fill="#F47458" d="M1402.29,398.65c0.36,2.95-2.92,5.78-7.32,6.31c-4.4,0.53-8.26-1.43-8.62-4.39
			c-0.36-2.95,2.92-5.78,7.32-6.31C1398.07,393.73,1401.93,395.69,1402.29,398.65z"/>
		<path fill="#F47458" d="M1428.75,418.52c0.46,3.8-2.21,7.25-5.97,7.7c-3.76,0.45-7.18-2.26-7.63-6.06
			c-0.46-3.8,2.21-7.25,5.97-7.7S1428.29,414.72,1428.75,418.52z"/>
		<path fill="#13375B" d="M1457.57,513.75c0,0,37.16,87.84,50.38,118.81c1.43,3.35,8.62,25.24,8.88,27.43
			c0.59,4.85-19.78,13.56-22.33,13.5c-2.28-0.06-32.2-92.83-49.58-137.89c-5.89-15.27-14.53-29.33-25.49-41.49l-8.44-6.97
			l-0.82-2.61C1410.17,484.52,1447.91,487.88,1457.57,513.75z"/>
		
			<rect x="1561.15" y="86.4" transform="matrix(0.9694 -0.2454 0.2454 0.9694 -49.0854 396.1002)" fill="#13375B" width="6.87" height="617.15"/>
		<g>
			<path fill="#F7A491" d="M1600.9,474.45c-0.24-1.32-0.67-2.68-1.21-4.03c-0.62-1.44-1.63-3.18-2.31-3.69
				c-0.44-0.32-0.76-1.37-1.17-2.44c-0.13-0.34-0.31-0.67-0.52-0.97c0-0.01-0.01-0.01-0.01-0.02c-0.63-0.86-1.42-1.59-2.29-2.21
				c-0.83-0.59-1.54-1.36-2.46-2.67c-0.71-1.02-1.65-1.89-2.77-2.44c-1.1-0.54-1.95-0.55-2.34,0.13c-1.83,3.14-10.97,13.16-7.26,18
				c3.1,4.05,7.14,8.27,7.97,10.19c1.14,2.63,5.16,2.45,7.56,1.53C1598.6,484.12,1602.15,481.27,1600.9,474.45z"/>
		</g>
	</g>
	<g>
		<path fill="#F47458" d="M1464.56,358.41c0.37-0.82,1.61-0.96,2.21-0.34c0.96,1,1.94,1.98,2.92,2.97c2.15,2.18,2.17,2.34,2.49,2.29
			c0.77-0.12,0.79-1.51,0.75-2.02c-0.09-1.14-0.46-2.26-0.31-3.41c0.29-2.24,2.35-3.39,4.19-1.89c1.69,1.38,3.31,2.86,4.92,4.35
			c0.13-2.45,0.19-4.9,0.35-7.34c0.06-0.87,0.94-1.25,1.62-0.72c1.5,1.18,5.96,4.66,7.43,5.81c0.38,0.3,1.99,1.89,2.45,1.6
			c0.41-0.26,0.39-1.97,0.43-2.35c0.23-2.1,0.34-2.83,1.25-9.64c0.11-0.81,1.35-1.19,1.88-0.56c5.23,6.26,6.02,5.6,6.49,7.48
			c0.11,0.42-0.23,0.7-0.63,0.67c-1-0.1-1.24-0.2-3.85-2.72c-0.68-0.65-1.33-1.32-1.98-2.01c-0.94,8.28-0.98,10.39-3.05,11.01
			c-1.44,0.43-1.68-0.02-10.09-6.63c0,2.57-0.16,5.13-0.27,7.7c-0.04,0.98-1.09,1.43-1.84,0.82c-6.02-4.96-5.98-5.33-6.63-5.63
			c-0.02-0.01,0-0.45-0.11,0.19c-0.18,1.09,0.85,3.44,0.09,5.41c-0.67,1.73-2.57,3.06-4.41,2.16c-1.07-0.53-1.36-1.05-4.58-4.15
			c-0.96,1.99-2.15,3.86-3.65,5.7c-0.65,0.8-1.18,1.24-2.15,1.6c-0.79,0.29-1.74-0.57-1.47-1.39
			C1459.74,365.05,1461.84,364.5,1464.56,358.41z"/>
		<path fill="#66CCB2" d="M1436.85,328.04c2.27,0.39,4.45,0.6,6.85,0.59c0.45,0,1.29,0.09,1.58-0.36c0.71-1.09-1.14-2.77-1.96-7.03
			c-0.36-1.85-1.26-5.63,1.22-6.38c1.27-0.39,2.86-0.08,4.17-0.05c0.99,0.03,1.99,0.01,2.98,0.02c-1.77-6.91-2.18-6.53-1.47-8.07
			c0.19-0.4,0.81-0.6,1.18-0.35c1.39,0.92,0.99,0.73,3.31,9.43c0.21,0.79-0.36,1.75-1.25,1.73c-1.34-0.04-7.42-0.52-8.18-0.46
			c0.05,0.07-0.02,0.4-0.02,0.47c0.03,2.87,1.01,5.31,2.02,7.93c0.83,2.15,0.78,5.05-1.96,5.66c-1.49,0.33-4.53,0.11-6.87-0.16
			c1.24,4.21,2.5,8.42,3.71,12.64c0.24,0.83-0.4,1.99-1.38,1.9c-2.72-0.24-5.44-0.4-8.16-0.53c0.75,2.48,1.88,4.83,3.35,6.97
			c1.08,1.58-1.14,3.51-3.59-0.66c-1.45-2.29-2.49-4.79-3.12-7.46c-0.21-0.88,0.38-1.93,1.38-1.91c2.7,0.05,5.4,0.22,8.09,0.45
			c-1.18-4.21-2.32-8.44-3.5-12.65C1434.93,328.73,1435.84,327.87,1436.85,328.04z"/>
		<path fill="#07345A" d="M1373.65,304.57c-0.79-0.03-1.27-0.54-1.38-1.3c-0.54-3.7-0.75-7.36-0.01-11.06
			c0.39-1.93,3.19-1.2,2.93,0.68c-0.41,2.95-0.68,6-0.4,8.99c2.19-0.05,4.35-0.3,6.49-0.82c0.81-0.2,1.87,0.35,1.81,1.31
			c-0.14,2.38-0.95,11.4-1.05,11.47c0.02-0.01,0.08-0.02,0.24,0.01c0.94,0.19,4.17-0.48,5.63-0.39c1.64,0.1,2.17,2.33,2.25,3.68
			c0.17,2.73-1.87,5.74-0.91,8.41c0.92,2.57,4.96-0.26,7.98,1.84c2.33,1.62,1.52,4.34,0.56,8.65c-0.24,1.06-0.48,2.08-1.52,2.61
			c-0.26,0.13-0.63,0.15-0.84-0.09c-1.14-1.31-0.56-2.86,0.21-6.8c0.1-0.5,0.42-1.35,0.07-1.8c-1.17-1.5-4.58,0.64-7.34-1.16
			c-2.15-1.4-2.46-4.15-2.11-6.48c0.28-1.82,1.4-4.07,0.81-5.93c-1.57,0.08-3.15,0.21-4.7,0.17c-1.7-0.04-2.86-0.94-2.94-2.68
			c-0.09-1.93,0.23-3.93,0.38-5.85c0.1-1.29,0.2-2.59,0.31-3.88C1377.97,304.49,1375.82,304.64,1373.65,304.57z"/>
		<path fill="#3C8F7C" d="M1486.54,399.14c6.51,8.35,0.38,12.39-2.35,9.97c-1.17-1.04-1.22-2.84,0.15-3.71
			c0.63-0.4,1.64,0.23,1.38,1c-0.21,0.63,0.5,0.8,0.8,0.13c0.4-0.9-0.24-2.03-0.64-2.83c-0.93-1.86-2.1-4.28-4.39-4.64
			c-3.42-0.54-7.12,2.88-5.25,8.1c2.71,7.53,14.9,7.44,17.11-0.44c1.2-4.29-0.51-8.96-3.99-11.68c-0.68-0.53,0.15-1.44,0.84-1.14
			c5.2,2.23,7.04,8.99,5.14,14.05c-1.95,5.19-7.5,7.67-12.79,6.78c-5.55-0.94-10.07-5.81-9.34-11.63
			C1474.01,396.72,1481.98,393.31,1486.54,399.14z"/>
		<path fill="#F7CC7F" d="M1352.08,329.41c0.9,1.36,1.41,4.13-0.43,4.99c-0.85,0.4-1.89,0.14-2.19-0.85
			c-0.29-0.97,0.24-1.86-0.63-2.62c-0.75-0.65-1.85-0.29-2.55,0.27c-2.12,1.73-1.57,5.52-0.47,7.67c1.76,3.41,6.55,4.1,8.93,0.52
			c0.75-1.12,0.93-2.44,1.26-3.71c0.18-0.71,1.31-1.02,1.67-0.27c1.38,2.91-0.56,6.43-3.05,8.08c-2.61,1.74-6.26,1.59-8.84-0.13
			c-2.88-1.92-4.24-5.7-4.13-9.06C1341.92,327.3,1349.17,325.01,1352.08,329.41z"/>
	</g>
	<path fill="#FFFFFF" d="M1021.65,1306.35c0,0,3.1,5.04,9.23,1.99c7.47-3.72,4.49-9.32,4.49-9.32L1021.65,1306.35z"/>
	<path fill="#FFFFFF" d="M1399.97,454.79c0,0,0.61,5.89,7.46,5.79c8.34-0.12,8.09-6.46,8.09-6.46L1399.97,454.79z"/>
</g>
<g>
</g>
<g>
</g>
<g>
</g>
<g>
</g>
<g>
</g>
<g>
</g>
<g>
</g>
<g>
</g>
<g>
</g>
<g>
</g>
<g>
</g>
</svg>
