<svg width="1405" height="1160" viewBox="0 0 1405 1160" fill="none" xmlns="http://www.w3.org/2000/svg">
<path d="M696.094 0.580078V1.30565H700.447L696.094 0.580078ZM687.387 1.30565V2.03125H693.192L687.387 1.30565Z" fill="#4EB152"/>
<path d="M693.192 1.61304C672.445 4.337 654.232 9.92636 638.054 24.0012C629.581 31.3737 622.645 40.6401 617.566 50.6321C595.492 94.0617 611.719 149.992 655.462 173.001C672.82 182.132 692.73 185.059 712.05 182.458C756.661 176.445 791.617 134.878 789.643 89.8005C787.54 41.7899 744 -5.06466 693.192 1.61304Z" fill="#2598F1"/>
<path d="M703.343 1.30566V2.03125H709.874L703.343 1.30566ZM682.308 2.03125V2.75681H685.936L682.308 2.03125ZM711.325 2.03125V2.75681H714.953L711.325 2.03125ZM678.68 2.75681V3.48238H680.857L678.68 2.75681ZM716.404 2.75681V3.48238H718.58L716.404 2.75681ZM675.052 3.47622V4.20181H677.229L675.052 3.47622ZM719.306 3.47622V4.20181H721.483L719.306 3.47622ZM673.361 4.44776L673.841 4.68756L673.361 4.44776ZM722.208 4.20181V4.92737H724.385L722.208 4.20181ZM670.459 5.17333L670.939 5.41314L670.459 5.17333ZM725.596 5.17333L726.076 5.41314L725.596 5.17333ZM669.008 5.89889L669.488 6.13871L669.008 5.89889ZM727.773 5.89889L728.253 6.13871L727.773 5.89889ZM666.831 6.62447L667.311 6.86427L666.831 6.62447ZM728.738 6.3785V7.10409H730.915L728.738 6.3785ZM665.38 7.35004L665.86 7.58984L665.38 7.35004ZM731.401 7.35004L731.88 7.58984L731.401 7.35004ZM663.21 8.0756L663.689 8.31542L663.21 8.0756ZM733.578 8.0756L734.057 8.31542L733.578 8.0756ZM661.267 8.55522L661.992 9.28078L661.267 8.55522ZM735.029 8.80117L735.508 9.04099L735.029 8.80117ZM659.822 9.28078L660.547 10.0064L659.822 9.28078ZM736.48 9.52674L736.959 9.76655L736.48 9.52674ZM658.37 10.0064L659.096 10.7319L658.37 10.0064ZM737.931 10.2523L738.411 10.4921L737.931 10.2523ZM656.919 10.7319L657.645 11.4575L656.919 10.7319ZM739.382 10.9779L739.862 11.2177L739.382 10.9779ZM655.468 11.4575L656.194 12.1831L655.468 11.4575ZM740.833 11.7034L741.313 11.9433L740.833 11.7034ZM654.017 12.1831L654.743 12.9086L654.017 12.1831ZM742.278 12.429L742.758 12.6688L742.278 12.429ZM653.052 13.1546L653.531 13.3944L653.052 13.1546ZM743.244 12.9086L743.969 13.6342L743.244 12.9086ZM651.6 13.8802L652.08 14.12L651.6 13.8802ZM744.695 13.6342L745.42 14.3598L744.695 13.6342ZM650.389 14.3598L651.115 15.0853L650.389 14.3598ZM745.906 14.6057L746.386 14.8455L745.906 14.6057ZM648.938 15.0853L649.664 15.8109L648.938 15.0853ZM747.357 15.3252L747.837 15.565L747.357 15.3252ZM647.973 16.0507L648.452 16.2905L647.973 16.0507ZM748.323 15.8109L749.048 16.5365L748.323 15.8109ZM646.761 16.5365L647.487 17.2621L646.761 16.5365ZM749.534 16.7763L750.014 17.0161L749.534 16.7763ZM645.796 17.5019L646.276 17.7417L645.796 17.5019ZM750.499 17.2621L751.225 17.9876L750.499 17.2621ZM644.585 17.9876L645.31 18.7132L644.585 17.9876ZM751.225 17.9876L751.95 18.7132L751.225 17.9876ZM643.859 18.7132L644.585 19.4388L643.859 18.7132ZM752.676 18.7132L753.402 19.4388L752.676 18.7132ZM642.894 19.6786L643.373 19.9184L642.894 19.6786ZM753.402 19.4388L754.127 20.1643L753.402 19.4388ZM641.682 20.1643L642.408 20.8899L641.682 20.1643ZM754.613 20.4041L755.093 20.644L754.613 20.4041ZM640.957 20.8899L641.682 21.6155L640.957 20.8899ZM755.578 20.8899L756.304 21.6155L755.578 20.8899ZM640.231 21.6155L640.957 22.3411L640.231 21.6155ZM756.304 21.6155L757.029 22.3411L756.304 21.6155ZM639.266 22.5808L639.745 22.8207L639.266 22.5808ZM757.029 22.3411L757.755 23.0666L757.029 22.3411ZM638.054 23.0666L638.78 23.7922L638.054 23.0666ZM757.755 23.0666L758.481 23.7922L757.755 23.0666ZM637.329 23.7922L638.054 24.5177L637.329 23.7922ZM758.481 23.7922L759.206 24.5177L758.481 23.7922ZM636.603 24.5177L637.329 25.2433L636.603 24.5177ZM759.206 24.5177L759.932 25.2433L759.206 24.5177ZM635.878 25.2433L636.603 25.9689L635.878 25.2433ZM760.418 25.4831L760.897 25.7229L760.418 25.4831ZM635.152 25.9689L635.878 26.6945L635.152 25.9689ZM761.383 25.9689L762.108 26.6945L761.383 25.9689ZM634.427 26.6945L635.152 27.42L634.427 26.6945ZM762.108 26.6945L762.834 27.42L762.108 26.6945ZM633.701 27.42L634.427 28.1456L633.701 27.42ZM762.834 27.42L763.56 28.1456L762.834 27.42ZM632.975 28.1456L633.701 28.8712L632.975 28.1456ZM763.56 28.1456L764.285 28.8712L763.56 28.1456ZM632.25 28.8712L632.975 29.5967L632.25 28.8712ZM764.285 28.8712L765.011 29.5967L764.285 28.8712ZM631.524 29.5967L632.25 30.3223L631.524 29.5967ZM765.011 29.5967L765.736 30.3223L765.011 29.5967ZM630.799 30.3223L631.524 31.0479L630.799 30.3223ZM630.073 31.0479L630.799 31.7735L630.073 31.0479ZM765.736 31.0479L766.462 31.7735L765.736 31.0479ZM629.348 31.7735L630.073 32.499L629.348 31.7735ZM766.462 31.7735L767.187 32.499L766.462 31.7735ZM628.862 32.9786L629.108 33.4644L628.862 32.9786ZM767.187 32.499L767.913 33.2246L767.187 32.499ZM767.913 33.2246L768.639 33.9502L767.913 33.2246ZM627.896 33.9502L628.622 34.6757L627.896 33.9502ZM768.639 33.9502L769.364 34.6757L768.639 33.9502ZM627.171 34.6757L627.896 35.4013L627.171 34.6757ZM769.604 35.1553L769.85 35.6411L769.604 35.1553ZM626.445 35.4013L627.171 36.1269L626.445 35.4013ZM625.96 36.6065L626.206 37.0922L625.96 36.6065ZM770.09 36.1269L770.815 36.8524L770.09 36.1269ZM770.815 36.8524L771.541 37.578L770.815 36.8524ZM624.994 37.578L625.72 38.3036L624.994 37.578ZM771.541 37.578L772.266 38.3036L771.541 37.578ZM624.269 38.3036L624.994 39.0292L624.269 38.3036ZM623.783 39.5088L624.029 39.9945L623.783 39.5088ZM772.266 39.0292L772.992 39.7547L772.266 39.0292ZM772.992 39.7547L773.718 40.4803L772.992 39.7547ZM622.818 40.4803L623.543 41.2059L622.818 40.4803ZM773.957 40.9599L774.203 41.4457L773.957 40.9599ZM622.332 41.6855L622.578 42.1712L622.332 41.6855ZM774.443 41.9314L775.169 42.657L774.443 41.9314ZM621.373 42.6508L622.098 43.3764L621.373 42.6508ZM775.409 43.1366L775.654 43.6224L775.409 43.1366ZM620.881 43.8622L621.127 44.3479L620.881 43.8622ZM775.894 44.102L776.62 44.8276L775.894 44.102ZM620.155 45.3133L620.401 45.7991L620.155 45.3133ZM776.62 45.5531L777.345 46.2787L776.62 45.5531ZM619.196 46.2787L619.921 47.0043L619.196 46.2787ZM777.579 46.7644L777.825 47.2502L777.579 46.7644ZM618.47 47.7298L619.196 48.4554L618.47 47.7298ZM778.305 48.2156L778.551 48.7014L778.305 48.2156ZM617.984 48.9412L618.23 49.4269L617.984 48.9412ZM778.79 49.181L779.516 49.9066L778.79 49.181ZM617.259 50.3923L617.505 50.8781L617.259 50.3923ZM779.516 50.6321L780.242 51.3577L779.516 50.6321ZM616.533 51.8434L616.779 52.3292L616.533 51.8434ZM780.481 52.569L780.727 53.0548L780.481 52.569ZM615.808 53.2946L616.054 53.7804L615.808 53.2946ZM781.207 54.0201L781.453 54.5059L781.207 54.0201ZM615.082 54.7457L615.328 55.2315L615.082 54.7457ZM781.933 55.4713L782.178 55.9571L781.933 55.4713ZM614.357 56.1969L614.603 56.6826L614.357 56.1969ZM782.658 56.9224L782.904 57.4082L782.658 56.9224ZM613.631 58.3736L613.877 58.8594L613.631 58.3736ZM783.384 59.0991L783.63 59.5849L783.384 59.0991ZM612.666 59.3389V61.5156H613.391L612.666 59.3389ZM784.109 61.2759L784.355 61.7616L784.109 61.2759ZM612.18 62.0014L612.426 62.4872L612.18 62.0014ZM784.835 63.4526L785.081 63.9383L784.835 63.4526ZM611.454 64.1781L611.7 64.6639L611.454 64.1781ZM785.56 64.9037L785.806 65.3895L785.56 64.9037ZM610.729 66.3549L610.975 66.8406L610.729 66.3549ZM786.046 66.5946V68.7714H786.772L786.046 66.5946ZM609.763 68.7714V70.9481H610.489L609.763 68.7714ZM786.772 69.4969V71.6736H787.497L786.772 69.4969ZM609.038 71.6736V73.8503H609.763L609.038 71.6736ZM787.497 72.3992V74.5759H788.223L787.497 72.3992ZM608.312 75.3015V78.2038H609.038L608.312 75.3015ZM788.223 76.0271V78.9293H788.948L788.223 76.0271ZM607.587 79.6549V83.2828H608.312L607.587 79.6549ZM788.948 81.1061V86.9106H789.674L788.948 81.1061ZM606.861 86.1789V99.2391H607.587L606.861 86.1789ZM789.674 89.8067V94.8857H790.4L789.674 89.8067ZM788.948 97.788V103.593H789.674L788.948 97.788ZM607.587 102.141V105.769H608.312L607.587 102.141ZM788.223 105.769V108.672H788.948L788.223 105.769ZM608.312 106.495V110.123H609.038L608.312 106.495ZM787.497 110.123V112.299H788.223L787.497 110.123ZM609.038 110.848V113.025H609.763L609.038 110.848ZM786.772 113.025V115.202H787.497L786.772 113.025ZM609.763 113.751V115.927H610.489L609.763 113.751ZM786.046 115.927V118.104H786.772L786.046 115.927ZM610.729 117.858L610.975 118.344L610.729 117.858ZM785.56 119.309L785.806 119.795L785.56 119.309ZM611.454 120.035L611.7 120.52L611.454 120.035ZM784.835 121.486L785.081 121.972L784.835 121.486ZM612.18 122.211L612.426 122.697L612.18 122.211ZM783.869 122.451V124.628H784.595L783.869 122.451ZM612.905 124.388L613.151 124.874L612.905 124.388ZM783.384 125.114L783.63 125.599L783.384 125.114ZM613.631 126.565L613.877 127.051L613.631 126.565ZM782.658 127.29L782.904 127.776L782.658 127.29ZM614.357 128.016L614.603 128.502L614.357 128.016ZM781.933 128.742L782.178 129.227L781.933 128.742ZM615.082 129.467L615.328 129.953L615.082 129.467ZM615.808 130.918L616.054 131.404L615.808 130.918ZM780.967 130.432L781.693 131.158L780.967 130.432ZM780.242 131.884L780.967 132.609L780.242 131.884ZM616.294 132.609L617.019 133.335L616.294 132.609ZM617.259 133.821L617.505 134.306L617.259 133.821ZM779.516 133.335L780.242 134.06L779.516 133.335ZM778.79 134.786L779.516 135.511L778.79 134.786ZM617.745 135.511L618.47 136.237L617.745 135.511ZM618.71 136.723L618.956 137.209L618.71 136.723ZM778.071 136.237L778.797 136.963L778.071 136.237ZM777.579 137.448L777.825 137.934L777.579 137.448ZM619.196 137.688L619.921 138.414L619.196 137.688ZM776.854 138.9L777.099 139.385L776.854 138.9ZM619.921 139.139L620.647 139.865L619.921 139.139ZM620.881 140.351L621.127 140.83L620.881 140.351ZM775.894 139.865L776.62 140.59L775.894 139.865ZM775.409 141.076L775.654 141.556L775.409 141.076ZM621.373 141.316L622.098 142.042L621.373 141.316ZM774.443 142.042L775.169 142.767L774.443 142.042ZM622.092 142.767L622.818 143.493L622.092 142.767ZM622.818 143.493L623.543 144.218L622.818 143.493ZM773.718 143.493L774.443 144.218L773.718 143.493ZM772.992 144.218L773.718 144.944L772.992 144.218ZM623.543 144.944L624.269 145.669L623.543 144.944ZM772.266 144.944L772.992 145.669L772.266 144.944ZM624.269 145.669L624.994 146.395L624.269 145.669ZM624.994 146.395L625.72 147.121L624.994 146.395ZM771.541 146.395L772.266 147.121L771.541 146.395ZM770.815 147.121L771.541 147.846L770.815 147.121ZM625.72 147.846L626.445 148.572L625.72 147.846ZM770.33 148.332L770.576 148.812L770.33 148.332ZM626.445 148.572L627.171 149.297L626.445 148.572ZM627.171 149.297L627.896 150.023L627.171 149.297ZM769.364 149.297L770.09 150.023L769.364 149.297ZM768.639 150.023L769.364 150.748L768.639 150.023ZM627.896 150.748L628.622 151.474L627.896 150.748ZM767.913 150.748L768.639 151.474L767.913 150.748ZM628.622 151.474L629.348 152.2L628.622 151.474ZM767.187 151.474L767.913 152.2L767.187 151.474ZM629.348 152.2L630.073 152.925L629.348 152.2ZM630.073 152.925L630.799 153.651L630.073 152.925ZM766.462 152.925L767.187 153.651L766.462 152.925ZM630.799 153.651L631.524 154.376L630.799 153.651ZM765.736 153.651L766.462 154.376L765.736 153.651ZM631.524 154.376L632.25 155.102L631.524 154.376ZM765.011 154.376L765.736 155.102L765.011 154.376ZM632.25 155.102L632.975 155.827L632.25 155.102ZM764.285 155.102L765.011 155.827L764.285 155.102ZM913.728 155.102V155.827L931.142 170.339C927.348 164.946 920.412 156.448 913.728 155.102ZM632.975 155.827L633.701 156.553L632.975 155.827ZM763.56 155.827L764.285 156.553L763.56 155.827ZM907.198 158.004V158.73L913.002 156.553L907.198 158.004Z" fill="#4EB152"/>
<path d="M1084.21 531.611C1087.03 524.909 1084.02 513.97 1083.07 506.948C1080.55 488.194 1077.77 469.606 1073.81 451.085C1056.83 371.574 1023.61 290.482 975.309 224.744C962.089 206.74 948.617 189.597 933.386 173.235C928.731 168.23 922.619 158.576 915.911 156.399C913.162 155.502 910.34 157.352 907.929 158.459C901.485 161.417 895.257 164.805 889.065 168.261C862.348 183.172 839.24 204.213 820.615 228.372C815.456 235.068 810.543 242.121 806.257 249.407C805.034 251.498 801.892 255.304 802.599 257.893C803.288 260.396 807.973 260.322 809.984 260.832C817.602 262.738 825.122 264.89 832.47 267.682C860.214 278.221 886.347 293.993 909.368 312.71C964.893 357.868 1008.52 414.548 1048.28 473.572C1061.01 492.467 1071.69 512.623 1084.21 531.611Z" fill="#2598F1"/>
<path d="M633.701 156.553L634.427 157.279L633.701 156.553ZM762.834 156.553L763.56 157.279L762.834 156.553ZM634.427 157.279L635.152 158.004L634.427 157.279ZM762.108 157.279L762.834 158.004L762.108 157.279ZM635.152 158.004L635.878 158.73L635.152 158.004ZM761.383 158.004L762.108 158.73L761.383 158.004ZM635.878 158.73L636.603 159.455L635.878 158.73ZM760.657 158.73L761.383 159.455L760.657 158.73ZM905.747 158.73L906.472 159.455L905.747 158.73ZM636.603 159.455L637.329 160.181L636.603 159.455ZM759.932 159.455L760.657 160.181L759.932 159.455ZM904.781 159.689L905.261 159.935L904.781 159.689ZM637.329 160.175L638.054 160.9L637.329 160.175ZM757.755 161.626L759.932 160.175L757.755 161.626ZM902.844 160.175L903.57 160.9L902.844 160.175ZM638.054 160.9L638.78 161.626L638.054 160.9ZM901.393 160.9L902.119 161.626L901.393 160.9ZM638.78 161.626L639.506 162.351L638.78 161.626ZM757.029 161.626L757.755 162.351L757.029 161.626ZM899.942 161.626L900.668 162.351L899.942 161.626ZM639.506 162.351L640.231 163.077L639.506 162.351ZM756.304 162.351L757.029 163.077L756.304 162.351ZM898.977 162.591L899.456 162.837L898.977 162.591ZM640.957 163.077L641.682 163.803L640.957 163.077ZM755.578 163.077L756.304 163.803L755.578 163.077ZM897.532 163.317L898.011 163.563L897.532 163.317ZM641.682 163.803L642.408 164.528L641.682 163.803ZM754.853 163.803L755.578 164.528L754.853 163.803ZM896.081 164.042L896.56 164.288L896.081 164.042ZM642.408 164.528L643.133 165.254L642.408 164.528ZM753.887 164.768L754.367 165.014L753.887 164.768ZM894.629 164.768L895.109 165.014L894.629 164.768ZM643.619 165.493L644.099 165.739L643.619 165.493ZM752.676 165.254L753.402 165.979L752.676 165.254ZM893.178 165.493L893.658 165.739L893.178 165.493Z" fill="#4EB152"/>
<path d="M438.553 551.921C438.228 544.837 434.452 537.717 432.571 530.886C429.416 519.461 427.098 507.169 426.286 495.339C422.825 445.102 430.88 395.727 444.672 347.347C456.25 306.715 471.874 266.569 489.903 228.372C496.439 214.525 502.975 200.727 509.831 187.021C513.17 180.337 518.489 173.401 519.805 165.985C511.535 169.121 504.125 176.58 497.318 182.089C482.143 194.356 467.589 207.318 453.79 221.116C397.706 277.2 353.004 342.723 320.138 414.813C309.876 437.33 301.845 461.262 295.555 485.181C294.091 490.764 288.367 504.396 291.312 509.715C293.077 512.888 297.762 514.991 300.72 516.866C308.461 521.773 316.381 526.089 324.657 529.994C361.293 547.309 398.555 551.921 438.553 551.921Z" fill="#FE9804"/>
<path d="M644.585 165.979L645.31 166.705L644.585 165.979ZM751.95 165.979L752.676 166.705L751.95 165.979ZM891.967 165.979L892.693 166.705L891.967 165.979ZM645.31 166.705L646.036 167.43L645.31 166.705ZM750.985 166.945L751.465 167.191L750.985 166.945ZM890.516 166.705L891.241 167.43L890.516 166.705ZM646.522 167.67L647.001 167.916L646.522 167.67ZM749.774 167.43L750.499 168.156L749.774 167.43ZM889.551 167.67L890.03 167.916L889.551 167.67ZM647.487 168.156L648.212 168.882L647.487 168.156ZM749.048 168.156L749.774 168.882L749.048 168.156ZM888.099 168.396L888.579 168.642L888.099 168.396ZM648.698 169.121L649.178 169.367L648.698 169.121ZM747.597 168.882L748.323 169.607L747.597 168.882ZM886.888 168.882L887.614 169.607L886.888 168.882ZM649.664 169.607L650.389 170.333L649.664 169.607ZM746.632 169.847L747.111 170.093L746.632 169.847ZM885.437 169.607L886.163 170.333L885.437 169.607ZM651.115 170.333L651.84 171.058L651.115 170.333ZM745.42 170.333L746.146 171.058L745.42 170.333ZM883.986 170.333L884.711 171.058L883.986 170.333ZM652.326 171.298L652.806 171.544L652.326 171.298ZM743.969 171.058L744.695 171.784L743.969 171.058ZM883.26 171.058L883.986 171.784L883.26 171.058ZM931.142 171.058L931.867 171.784L931.142 171.058ZM653.291 171.784L654.017 172.509L653.291 171.784ZM743.004 172.024L743.483 172.27L743.004 172.024ZM881.809 171.784L882.535 172.509L881.809 171.784ZM931.867 171.784L932.593 172.509L931.867 171.784ZM654.743 172.509L655.468 173.235L654.743 172.509ZM741.793 172.509L742.518 173.235L741.793 172.509ZM880.844 172.749L881.323 172.995L880.844 172.749ZM932.593 172.509L933.318 173.235L932.593 172.509ZM656.194 173.235L656.919 173.961L656.194 173.235ZM740.108 173.475L740.587 173.721L740.108 173.475ZM879.632 173.235L880.358 173.961L879.632 173.235ZM933.318 173.235L934.044 173.961L933.318 173.235ZM657.645 173.961L658.37 174.686L657.645 173.961ZM738.657 174.2L739.136 174.446L738.657 174.2ZM878.667 174.2L879.147 174.446L878.667 174.2ZM934.044 173.961L934.769 174.686L934.044 173.961ZM659.582 174.926L660.061 175.172L659.582 174.926ZM737.205 174.926L737.685 175.172L737.205 174.926ZM877.456 174.686L878.181 175.412L877.456 174.686ZM934.769 174.686L935.495 175.412L934.769 174.686ZM661.033 175.651L661.512 175.897L661.033 175.651ZM735.269 175.412L735.994 176.137L735.269 175.412ZM876.005 175.412L876.73 176.137L876.005 175.412ZM935.489 175.412L936.214 176.137L935.489 175.412ZM662.484 176.377L662.964 176.623L662.484 176.377ZM733.578 176.377L734.057 176.623L733.578 176.377ZM875.039 176.377L875.519 176.623L875.039 176.377ZM936.214 176.137L936.94 176.863L936.214 176.137ZM664.655 177.103L665.134 177.349L664.655 177.103ZM732.126 177.103L732.606 177.349L732.126 177.103ZM873.828 176.863L874.553 177.588L873.828 176.863ZM936.94 176.863L937.666 177.588L936.94 176.863ZM666.831 177.828L667.311 178.074L666.831 177.828ZM729.95 177.828L730.429 178.074L729.95 177.828ZM873.102 177.588L873.828 178.314L873.102 177.588ZM937.666 177.588L938.391 178.314L937.666 177.588ZM668.282 178.554L668.762 178.8L668.282 178.554ZM727.773 178.554L728.253 178.8L727.773 178.554ZM872.137 178.554L872.616 178.8L872.137 178.554ZM938.391 178.314L939.117 179.04L938.391 178.314ZM670.459 179.279L670.939 179.525L670.459 179.279ZM725.596 179.279L726.076 179.525L725.596 179.279ZM870.926 179.04L871.651 179.765L870.926 179.04ZM939.117 179.04L939.842 179.765L939.117 179.04ZM672.636 180.005L673.115 180.251L672.636 180.005ZM722.934 179.765V180.491H725.111L722.934 179.765ZM870.2 179.765L870.926 180.491L870.2 179.765ZM939.842 179.765L940.568 180.491L939.842 179.765ZM675.052 180.491V181.216H677.229L675.052 180.491ZM720.032 180.491V181.216H722.208L720.032 180.491ZM868.749 180.491L869.474 181.216L868.749 180.491ZM940.568 180.491L941.293 181.216L940.568 180.491ZM678.44 181.456L678.92 181.702L678.44 181.456ZM717.129 181.216V181.942H719.306L717.129 181.216ZM868.023 181.216L868.749 181.942L868.023 181.216ZM941.293 181.216L942.019 181.942L941.293 181.216ZM680.857 181.942V182.667H683.759L680.857 181.942ZM712.776 181.942V182.667H716.404L712.776 181.942ZM867.058 182.182L867.537 182.428L867.058 182.182ZM685.21 182.667V183.393H690.289L685.21 182.667ZM706.971 182.667V183.393H711.325L706.971 182.667ZM865.847 182.667L866.572 183.393L865.847 182.667ZM942.019 182.667L942.745 183.393L942.019 182.667ZM693.192 183.393V184.118H704.075L693.192 183.393ZM865.121 183.393L865.847 184.118L865.121 183.393ZM942.745 183.393L943.47 184.118L942.745 183.393ZM864.156 184.358L864.635 184.604L864.156 184.358ZM943.47 184.118L944.196 184.844L943.47 184.118ZM862.944 184.844L863.67 185.57L862.944 184.844ZM944.196 184.844L944.921 185.57L944.196 184.844ZM862.219 185.57L862.944 186.295L862.219 185.57ZM944.921 185.57L945.647 186.295L944.921 185.57ZM861.493 186.295L862.219 187.021L861.493 186.295ZM945.647 186.295L946.372 187.021L945.647 186.295ZM860.528 187.261L861.007 187.507L860.528 187.261ZM946.372 187.021L947.098 187.746L946.372 187.021ZM859.316 187.746L860.042 188.472L859.316 187.746ZM858.591 188.472L859.316 189.197L858.591 188.472ZM947.098 188.472L947.824 189.197L947.098 188.472ZM857.632 189.437L858.111 189.683L857.632 189.437ZM947.824 189.197L948.549 189.923L947.824 189.197ZM856.42 189.923L857.146 190.649L856.42 189.923ZM948.549 189.923L949.275 190.649L948.549 189.923ZM855.695 190.649L856.42 191.374L855.695 190.649ZM949.275 190.649L950 191.374L949.275 190.649ZM854.969 191.374L855.695 192.1L854.969 191.374ZM950 191.374L950.726 192.1L950 191.374ZM854.244 192.1L854.969 192.825L854.244 192.1ZM950.726 192.1L951.451 192.825L950.726 192.1ZM853.518 192.825L854.244 193.551L853.518 192.825ZM852.792 193.551L853.518 194.276L852.792 193.551ZM951.451 193.551L952.177 194.276L951.451 193.551ZM851.827 194.516L852.307 194.762L851.827 194.516ZM952.177 194.276L952.903 195.002L952.177 194.276ZM850.616 195.002L851.341 195.728L850.616 195.002ZM952.903 195.002L953.628 195.728L952.903 195.002ZM849.89 195.728L850.616 196.453L849.89 195.728ZM953.868 196.213L954.114 196.693L953.868 196.213ZM849.165 196.453L849.89 197.179L849.165 196.453ZM848.439 197.179L849.165 197.904L848.439 197.179ZM954.354 197.179L955.079 197.904L954.354 197.179ZM847.713 197.904L848.439 198.63L847.713 197.904ZM955.079 197.904L955.805 198.63L955.079 197.904ZM846.988 198.63L847.713 199.355L846.988 198.63ZM955.805 198.63L956.53 199.355L955.805 198.63ZM846.262 199.349L846.988 200.075L846.262 199.349ZM956.53 199.349L957.256 200.075L956.53 199.349ZM845.537 200.075L846.262 200.8L845.537 200.075ZM957.496 200.567L957.742 201.046L957.496 200.567ZM844.086 200.8V202.252L845.537 200.8H844.086ZM957.982 201.526L958.707 202.252L957.982 201.526ZM843.12 202.491L843.6 202.737L843.12 202.491ZM958.707 202.252L959.433 202.977L958.707 202.252ZM841.909 202.977L842.634 203.703L841.909 202.977ZM959.433 202.977L960.158 203.703L959.433 202.977ZM841.183 203.703L841.909 204.428L841.183 203.703ZM840.458 204.428L841.183 205.154L840.458 204.428ZM960.158 204.428L960.884 205.154L960.158 204.428ZM839.732 205.154L840.458 205.879L839.732 205.154ZM960.884 205.154L961.609 205.879L960.884 205.154ZM839.007 205.879L839.732 206.605L839.007 205.879ZM961.609 205.879L962.335 206.605L961.609 205.879ZM838.281 206.605L839.007 207.331L838.281 206.605ZM962.575 207.091L962.821 207.57L962.575 207.091ZM837.555 207.331L836.83 209.507L837.555 207.331ZM963.061 208.056L963.786 208.782L963.061 208.056ZM963.786 208.782L964.512 209.507L963.786 208.782ZM836.104 209.507L836.83 210.233L836.104 209.507ZM964.512 209.507L965.237 210.233L964.512 209.507ZM835.379 210.233L836.104 210.958L835.379 210.233ZM834.653 210.958L835.379 211.684L834.653 210.958ZM965.237 210.958L965.963 211.684L965.237 210.958ZM833.928 211.684L834.653 212.41L833.928 211.684ZM965.963 211.684L966.688 212.41L965.963 211.684ZM833.202 212.41L833.928 213.135L833.202 212.41ZM966.928 212.895L967.174 213.375L966.928 212.895ZM832.476 213.135L833.202 213.861L832.476 213.135ZM831.751 213.861L832.476 214.586L831.751 213.861ZM967.414 213.861L968.14 214.586L967.414 213.861ZM831.025 214.586L831.751 215.312L831.025 214.586ZM968.14 214.586L968.865 215.312L968.14 214.586ZM830.3 215.312L831.025 216.037L830.3 215.312ZM969.105 215.798L969.351 216.277L969.105 215.798ZM829.574 216.763L830.3 217.489L829.574 216.763ZM969.591 216.763L970.316 217.489L969.591 216.763ZM828.849 217.489L829.574 218.214L828.849 217.489ZM970.316 217.489L971.042 218.214L970.316 217.489ZM828.123 218.214L828.849 218.94L828.123 218.214ZM971.282 218.7L971.528 219.18L971.282 218.7ZM827.397 218.94L828.123 219.665L827.397 218.94ZM826.912 220.151L827.158 220.631L826.912 220.151ZM971.767 219.665L972.493 220.391L971.767 219.665ZM972.727 220.877L972.973 221.356L972.727 220.877ZM825.946 221.116L826.672 221.842L825.946 221.116ZM825.221 221.842L825.946 222.568L825.221 221.842ZM973.219 221.842L973.944 222.568L973.219 221.842ZM824.495 222.568L825.221 223.293L824.495 222.568ZM974.178 223.053L974.424 223.533L974.178 223.053ZM823.77 223.293L824.495 224.019L823.77 223.293ZM823.284 224.504L823.53 224.984L823.284 224.504ZM974.664 224.019L975.389 224.744L974.664 224.019ZM975.389 224.744L976.115 225.47L975.389 224.744ZM822.318 225.47L823.044 226.195L822.318 225.47ZM821.593 226.195L822.318 226.921L821.593 226.195ZM976.115 226.195L976.84 226.921L976.115 226.195ZM820.867 226.921L821.593 227.647L820.867 226.921ZM976.84 226.921L977.566 227.647L976.84 226.921ZM977.566 227.647L978.291 228.372L977.566 227.647ZM820.142 228.372L820.867 229.098L820.142 228.372ZM819.416 229.098L820.142 229.823L819.416 229.098ZM978.291 229.098L979.017 229.823L978.291 229.098ZM818.691 229.823L819.416 230.549L818.691 229.823ZM979.017 229.823L979.743 230.549L979.017 229.823ZM818.205 231.035L818.451 231.514L818.205 231.035ZM979.743 231.274L980.468 232L979.743 231.274ZM817.246 232L817.971 232.726L817.246 232ZM980.708 232.486L980.954 232.965L980.708 232.486ZM816.52 232.726L817.246 233.451L816.52 232.726ZM981.194 233.451L981.919 234.177L981.194 233.451ZM815.794 234.177L816.52 234.902L815.794 234.177ZM981.919 234.177L982.645 234.902L981.919 234.177ZM815.069 234.902L815.794 235.628L815.069 234.902ZM982.885 235.388L983.131 235.868L982.885 235.388ZM814.583 236.114L814.829 236.593L814.583 236.114ZM983.37 236.353L984.096 237.079L983.37 236.353ZM813.618 237.079L814.343 237.805L813.618 237.079ZM812.892 237.805L813.618 238.53L812.892 237.805ZM984.096 237.805L984.822 238.53L984.096 237.805ZM985.061 239.016L985.307 239.495L985.061 239.016ZM812.167 239.25L812.892 239.975L812.167 239.25ZM811.681 240.467L811.927 240.947L811.681 240.467ZM985.547 239.975L986.273 240.701L985.547 239.975ZM986.512 241.186L986.758 241.666L986.512 241.186ZM810.715 241.426L811.441 242.152L810.715 241.426ZM810.23 242.638L810.476 243.117L810.23 242.638ZM986.998 242.152L987.724 242.877L986.998 242.152ZM809.264 243.603L809.99 244.328L809.264 243.603ZM987.724 243.603L988.449 244.328L987.724 243.603ZM808.779 244.814L809.025 245.294L808.779 244.814ZM988.449 244.328L989.175 245.054L988.449 244.328ZM807.813 245.78L808.539 246.505L807.813 245.78ZM989.175 245.78L989.901 246.505L989.175 245.78ZM807.327 246.991L807.573 247.471L807.327 246.991ZM989.901 246.505L990.626 247.231L989.901 246.505ZM806.362 247.956L807.088 248.682L806.362 247.956ZM990.626 247.956L991.352 248.682L990.626 247.956ZM991.591 249.168L991.837 249.647L991.591 249.168ZM805.636 249.407L806.362 250.133L805.636 249.407ZM805.151 250.619L805.397 251.098L805.151 250.619ZM992.077 250.133L992.803 250.859L992.077 250.133ZM804.425 252.07L804.671 252.55L804.425 252.07ZM992.803 251.584L993.528 252.31L992.803 251.584ZM993.768 252.796L994.014 253.275L993.768 252.796ZM803.46 253.035L804.185 253.761L803.46 253.035ZM994.254 253.761L994.98 254.486L994.254 253.761ZM802.734 254.486L803.46 255.212L802.734 254.486ZM802.248 255.698L802.494 256.177L802.248 255.698ZM994.98 255.212L995.705 255.938L994.98 255.212ZM995.705 255.938L996.431 256.663L995.705 255.938ZM801.283 256.663L802.734 259.565L801.283 256.663ZM996.431 257.389L997.156 258.114L996.431 257.389ZM997.156 258.84L997.882 259.565L997.156 258.84ZM803.46 259.565V260.291H805.636L803.46 259.565ZM998.122 260.051L998.368 260.531L998.122 260.051ZM807.088 260.291V261.017H809.99L807.088 260.291ZM809.99 261.017V261.742H812.167L809.99 261.017ZM998.607 261.017L999.333 261.742L998.607 261.017ZM812.892 261.742V262.468H815.069L812.892 261.742ZM815.794 262.468V263.193H817.971L815.794 262.468ZM999.333 262.468L1000.06 263.193L999.333 262.468ZM818.691 263.193V263.919H820.867L818.691 263.193ZM1000.06 263.193L1000.78 263.919L1000.06 263.193ZM820.867 263.919V264.644H823.044L820.867 263.919ZM824.255 264.884L824.735 265.13L824.255 264.884ZM1000.78 264.644L1001.51 265.37L1000.78 264.644ZM825.221 265.37V266.096H827.397L825.221 265.37ZM1001.75 265.856L1002 266.335L1001.75 265.856ZM828.609 266.335L829.088 266.581L828.609 266.335ZM830.785 267.061L831.265 267.307L830.785 267.061ZM1002.48 267.307L1002.72 267.787L1002.48 267.307ZM832.237 267.787L832.716 268.033L832.237 267.787ZM834.413 268.512L834.893 268.758L834.413 268.512ZM1002.96 268.272L1003.69 268.998L1002.96 268.272ZM836.59 269.238L837.07 269.484L836.59 269.238ZM838.041 269.963L838.521 270.209L838.041 269.963ZM1003.69 269.723L1004.41 270.449L1003.69 269.723ZM839.007 270.449V271.175H841.183L839.007 270.449ZM1004.65 270.935L1004.9 271.414L1004.65 270.935ZM841.669 271.414L842.149 271.66L841.669 271.414ZM843.12 272.14L843.6 272.386L843.12 272.14ZM1005.38 272.386L1005.62 272.866L1005.38 272.386ZM844.571 272.866L845.051 273.112L844.571 272.866ZM846.748 273.591L847.228 273.837L846.748 273.591ZM1005.86 273.351L1006.59 274.077L1005.86 273.351ZM848.199 274.317L848.679 274.563L848.199 274.317ZM849.65 275.036L850.13 275.282L849.65 275.036ZM1006.59 274.802L1007.31 275.528L1006.59 274.802ZM851.101 275.762L851.581 276.008L851.101 275.762ZM852.553 276.487L853.032 276.733L852.553 276.487ZM1007.31 276.254L1008.04 276.979L1007.31 276.254ZM854.004 277.213L854.483 277.459L854.004 277.213ZM1008.28 277.465L1008.53 277.945L1008.28 277.465ZM855.455 277.938L855.934 278.184L855.455 277.938ZM856.906 278.664L857.386 278.91L856.906 278.664ZM1008.77 278.424L1009.49 279.15L1008.77 278.424ZM858.357 279.39L858.837 279.635L858.357 279.39ZM859.802 280.115L860.282 280.361L859.802 280.115ZM1009.49 279.875L1010.22 280.601L1009.49 279.875ZM861.253 280.841L861.733 281.087L861.253 280.841ZM1010.46 281.087L1010.7 281.566L1010.46 281.087ZM862.219 281.326L862.944 282.052L862.219 281.326ZM863.67 282.052L864.395 282.778L863.67 282.052ZM1011.18 282.538L1011.43 283.017L1011.18 282.538ZM864.881 283.017L865.361 283.263L864.881 283.017ZM866.332 283.743L866.812 283.989L866.332 283.743ZM1011.9 283.989L1012.15 284.469L1011.9 283.989ZM867.783 284.469L868.263 284.714L867.783 284.469ZM869.235 285.194L869.714 285.44L869.235 285.194ZM1012.63 285.44L1012.87 285.92L1012.63 285.44ZM870.2 285.68L870.926 286.405L870.2 285.68ZM871.411 286.645L871.891 286.891L871.411 286.645ZM1013.12 286.405L1013.84 287.131L1013.12 286.405ZM872.377 287.131L873.102 287.857L872.377 287.131ZM873.828 287.857L874.553 288.582L873.828 287.857ZM1013.84 287.857L1014.57 288.582L1013.84 287.857ZM875.039 288.822L875.519 289.068L875.039 288.822ZM876.005 289.308L876.73 290.033L876.005 289.308ZM1014.56 289.308L1015.29 290.033L1014.56 289.308ZM877.456 290.033L878.181 290.759L877.456 290.033ZM878.667 290.999L879.147 291.245L878.667 290.999ZM1015.29 290.759L1016.01 291.484L1015.29 290.759ZM879.632 291.484L880.358 292.21L879.632 291.484ZM1016.25 291.97L1016.5 292.45L1016.25 291.97ZM880.844 292.45L881.323 292.696L880.844 292.45ZM881.809 292.936L882.535 293.661L881.809 292.936ZM883.26 293.661L883.986 294.387L883.26 293.661ZM1016.74 293.661L1017.47 294.387L1016.74 293.661ZM883.986 294.387L884.711 295.112L883.986 294.387ZM885.437 295.112L886.163 295.838L885.437 295.112ZM1017.47 295.112L1018.19 295.838L1017.47 295.112ZM886.163 295.838L886.888 296.563L886.163 295.838ZM887.374 296.803L887.853 297.049L887.374 296.803ZM1018.19 296.563L1018.92 297.289L1018.19 296.563ZM888.339 297.289L889.065 298.015L888.339 297.289ZM889.551 298.254L890.03 298.5L889.551 298.254ZM1018.92 298.015L1019.64 298.74L1018.92 298.015ZM890.516 298.74L891.241 299.466L890.516 298.74ZM1019.88 299.226L1020.13 299.705L1019.88 299.226ZM891.241 299.466L891.967 300.191L891.241 299.466ZM892.693 300.191L893.418 300.917L892.693 300.191ZM1020.61 300.677L1020.85 301.157L1020.61 300.677ZM893.418 300.917L894.144 301.642L893.418 300.917ZM894.63 301.882L895.109 302.128L894.63 301.882ZM1021.33 302.128L1021.58 302.608L1021.33 302.128ZM895.595 302.368L896.32 303.094L895.595 302.368ZM896.806 303.333L897.286 303.579L896.806 303.333ZM1022.06 303.579L1022.31 304.059L1022.06 303.579ZM897.765 303.819L898.491 304.545L897.765 303.819ZM898.491 304.545L899.217 305.27L898.491 304.545ZM899.702 305.51L900.182 305.756L899.702 305.51ZM1022.55 305.27L1023.27 305.996L1022.55 305.27ZM900.668 305.996L901.393 306.721L900.668 305.996ZM1023.51 306.482L1023.76 306.961L1023.51 306.482ZM901.393 306.721L902.119 307.447L901.393 306.721ZM902.605 307.687L903.084 307.933L902.605 307.687ZM1024.24 307.933L1024.48 308.412L1024.24 307.933ZM903.57 308.173L904.296 308.898L903.57 308.173ZM904.296 308.898L905.021 309.624L904.296 308.898ZM1024.96 309.384L1025.21 309.863L1024.96 309.384ZM905.507 309.863L905.987 310.109L905.507 309.863ZM906.472 310.349L907.198 311.075L906.472 310.349ZM907.198 311.075L907.923 311.8L907.198 311.075ZM1025.45 311.075L1026.17 311.8L1025.45 311.075ZM908.409 312.04L908.889 312.286L908.409 312.04ZM909.375 312.526L910.1 313.251L909.375 312.526ZM1026.41 313.012L1026.66 313.491L1026.41 313.012ZM910.1 313.251L910.826 313.977L910.1 313.251ZM910.826 313.977L911.551 314.703L910.826 313.977ZM1027.14 314.463L1027.38 314.942L1027.14 314.463ZM911.551 314.703L912.277 315.428L911.551 314.703ZM912.763 315.662L913.242 315.908L912.763 315.662ZM1027.86 315.914L1028.11 316.394L1027.86 315.914ZM913.728 316.154L914.454 316.879L913.728 316.154ZM914.454 316.873L915.179 317.599L914.454 316.873ZM1028.59 317.365L1028.84 317.845L1028.59 317.365ZM915.179 317.599L915.905 318.324L915.179 317.599ZM915.905 318.324L916.63 319.05L915.905 318.324ZM1029.32 318.816L1029.56 319.296L1029.32 318.816ZM917.356 319.05L918.081 319.775L917.356 319.05ZM918.081 319.775L918.807 320.501L918.081 319.775ZM918.807 320.501L919.533 321.227L918.807 320.501ZM1030.04 320.987L1030.29 321.466L1030.04 320.987ZM919.533 321.227L920.258 321.952L919.533 321.227ZM920.258 321.952L920.984 322.678L920.258 321.952ZM1030.77 322.438L1031.01 322.918L1030.77 322.438ZM920.984 322.678L921.709 323.403L920.984 322.678ZM922.195 323.643L922.675 323.889L922.195 323.643ZM1031.49 323.889L1031.74 324.369L1031.49 323.889ZM923.16 324.129L923.886 324.854L923.16 324.129ZM923.886 324.854L924.612 325.58L923.886 324.854ZM1032.22 325.34L1032.46 325.82L1032.22 325.34ZM924.612 325.58L925.337 326.306L924.612 325.58ZM925.337 326.306L926.063 327.031L925.337 326.306ZM1032.94 326.791L1033.19 327.271L1032.94 326.791ZM926.063 327.031L926.788 327.757L926.063 327.031ZM926.788 327.757L927.514 328.482L926.788 327.757ZM928 328.722L928.479 328.968L928 328.722ZM1033.43 328.482L1034.15 329.208L1033.43 328.482ZM928.965 329.208L929.691 329.933L928.965 329.208ZM929.691 329.933L930.416 330.659L929.691 329.933ZM1034.39 330.419L1034.64 330.899L1034.39 330.419ZM930.416 330.659L931.142 331.385L930.416 330.659ZM931.142 331.385L931.867 332.11L931.142 331.385ZM1035.12 331.87L1035.37 332.35L1035.12 331.87ZM931.867 332.11L932.593 332.836L931.867 332.11ZM932.593 332.836L933.318 333.561L932.593 332.836ZM1035.85 333.322L1036.09 333.801L1035.85 333.322ZM933.318 333.561L934.044 334.287L933.318 333.561ZM934.044 334.287L934.769 335.012L934.044 334.287ZM1036.57 334.773L1036.82 335.252L1036.57 334.773ZM935.255 335.252L935.735 335.498L935.255 335.252ZM936.214 335.738L936.94 336.464L936.214 335.738ZM936.94 336.464L937.666 337.189L936.94 336.464ZM1037.06 336.464L1037.78 337.189L1037.06 336.464ZM937.666 337.189L938.391 337.915L937.666 337.189ZM938.391 337.915L939.117 338.64L938.391 337.915ZM1038.02 338.401L1038.27 338.88L1038.02 338.401ZM939.117 338.64L939.842 339.366L939.117 338.64ZM939.842 339.366L940.568 340.091L939.842 339.366ZM940.568 340.091L941.293 340.817L940.568 340.091ZM1038.75 340.577L1038.99 341.057L1038.75 340.577ZM941.293 340.817L942.019 341.543L941.293 340.817ZM942.019 341.543L942.745 342.268L942.019 341.543ZM1039.47 342.028L1039.72 342.508L1039.47 342.028ZM942.745 342.268L943.47 342.994L942.745 342.268ZM943.47 342.994L944.196 343.719L943.47 342.994ZM944.196 343.719L944.921 344.445L944.196 343.719ZM1039.96 343.719L1040.68 344.445L1039.96 343.719ZM944.921 344.445L945.647 345.17L944.921 344.445ZM945.647 345.17L946.372 345.896L945.647 345.17ZM1040.68 345.17L1041.41 345.896L1040.68 345.17ZM946.372 345.896L947.098 346.622L946.372 345.896ZM947.098 346.622L947.824 347.347L947.098 346.622ZM1041.65 347.107L1041.9 347.587L1041.65 347.107ZM947.824 347.347L948.549 348.073L947.824 347.347ZM948.549 348.073L949.275 348.798L948.549 348.073ZM949.275 348.798L950 349.524L949.275 348.798ZM1042.38 349.284L1042.62 349.764L1042.38 349.284ZM950 349.524L950.726 350.249L950 349.524ZM950.726 350.249L951.451 350.975L950.726 350.249ZM951.451 350.975L952.177 351.701L951.451 350.975ZM1043.1 351.461L1043.35 351.94L1043.1 351.461ZM952.177 351.701L952.903 352.426L952.177 351.701ZM952.903 352.426L953.628 353.152L952.903 352.426ZM1043.83 352.912L1044.07 353.391L1043.83 352.912ZM953.628 353.152L954.354 353.877L953.628 353.152ZM954.354 353.877L955.079 354.603L954.354 353.877ZM1044.55 354.363L1044.8 354.843L1044.55 354.363ZM955.079 354.603L955.805 355.328L955.079 354.603ZM955.805 355.328L956.53 356.054L955.805 355.328ZM956.53 356.048L957.256 356.773L956.53 356.048ZM1045.28 356.54L1045.52 357.019L1045.28 356.54ZM957.256 356.773L957.982 357.499L957.256 356.773ZM1046 358.71L1046.25 359.19L1046 358.71ZM958.707 358.95L959.433 359.676L958.707 358.95ZM959.433 359.676L960.158 360.401L959.433 359.676ZM1046.73 360.161L1046.97 360.641L1046.73 360.161ZM960.158 360.401L960.884 361.127L960.158 360.401ZM960.884 361.127L961.609 361.852L960.884 361.127ZM961.609 361.852L962.335 362.578L961.609 361.852ZM1047.45 362.338L1047.7 362.818L1047.45 362.338ZM962.335 362.578L963.061 363.303L962.335 362.578ZM963.061 363.303L963.786 364.029L963.061 363.303ZM1048.18 363.789L1048.43 364.269L1048.18 363.789ZM963.786 364.029L964.512 364.755L963.786 364.029ZM964.512 364.755L965.237 365.48L964.512 364.755ZM965.237 365.48L965.963 366.206L965.237 365.48ZM1048.91 365.966L1049.15 366.446L1048.91 365.966ZM965.963 366.206L966.688 366.931L965.963 366.206ZM966.688 366.931L967.414 367.657L966.688 366.931ZM967.414 367.657L968.14 368.382L967.414 367.657ZM1049.63 368.143L1049.88 368.622L1049.63 368.143ZM968.14 368.382L968.865 369.108L968.14 368.382ZM968.865 369.834L969.591 370.559L968.865 369.834ZM1050.36 370.319L1050.6 370.799L1050.36 370.319ZM969.591 370.559L970.316 371.285L969.591 370.559ZM970.316 371.285L971.042 372.01L970.316 371.285ZM1051.08 371.771L1051.32 372.25L1051.08 371.771ZM971.042 372.01L971.767 372.736L971.042 372.01ZM971.767 372.736L972.493 373.461L971.767 372.736ZM972.493 373.461L973.219 374.187L972.493 373.461ZM1051.8 373.947L1052.05 374.427L1051.8 373.947ZM973.219 374.187L973.944 374.913L973.219 374.187ZM973.944 374.913L974.67 375.638L973.944 374.913ZM974.903 376.124L975.149 376.604L974.903 376.124ZM1052.53 376.124L1052.77 376.604L1052.53 376.124ZM975.389 377.089L976.115 377.815L975.389 377.089ZM976.115 377.815L976.84 378.54L976.115 377.815ZM1053.25 378.301L1053.5 378.78L1053.25 378.301ZM976.84 378.54L977.566 379.266L976.84 378.54ZM977.566 379.266L978.291 379.992L977.566 379.266ZM978.291 379.992L979.017 380.717L978.291 379.992ZM1053.98 380.477L1054.22 380.957L1053.98 380.477ZM979.017 380.717L979.743 381.443L979.017 380.717ZM979.743 381.443L980.468 382.168L979.743 381.443ZM1054.46 381.443V383.619H1055.19L1054.46 381.443ZM980.468 382.894L981.194 383.619L980.468 382.894ZM981.194 383.619L981.919 384.345L981.194 383.619ZM1055.19 383.619V385.796H1055.92L1055.19 383.619ZM981.919 384.345L982.645 385.071L981.919 384.345ZM982.645 385.071L983.37 385.796L982.645 385.071ZM983.37 386.522L984.096 387.247L983.37 386.522ZM1056.15 387.008L1056.4 387.487L1056.15 387.008ZM984.096 387.247L984.822 387.973L984.096 387.247ZM984.822 387.973L985.547 388.698L984.822 387.973ZM985.547 388.698L986.273 389.424L985.547 388.698ZM1056.88 389.184L1057.13 389.664L1056.88 389.184ZM986.273 389.424L986.998 390.15L986.273 389.424ZM986.998 390.15L987.724 390.875L986.998 390.15ZM1057.61 391.361L1057.85 391.841L1057.61 391.361ZM987.724 391.601L988.449 392.326L987.724 391.601ZM988.449 392.326L989.175 393.052L988.449 392.326ZM989.175 393.052L989.901 393.777L989.175 393.052ZM1058.33 393.538L1058.58 394.017L1058.33 393.538ZM989.901 393.777L990.626 394.503L989.901 393.777ZM990.626 395.222L991.352 395.948L990.626 395.222ZM1058.82 395.222V397.399H1059.54L1058.82 395.222ZM991.352 395.948L992.077 396.674L991.352 395.948ZM992.077 396.674L992.803 397.399L992.077 396.674ZM992.803 397.399L993.528 398.125L992.803 397.399ZM1059.54 397.399V399.576H1060.27L1059.54 397.399ZM993.528 398.85L994.254 399.576L993.528 398.85ZM994.254 399.576L994.98 400.301L994.254 399.576ZM1060.27 399.576V401.753H1060.99L1060.27 399.576ZM994.98 400.301L995.705 401.027L994.98 400.301ZM995.705 401.027L996.431 401.753L995.705 401.027ZM996.67 402.238L996.916 402.718L996.67 402.238ZM1060.99 401.753V403.929H1061.72L1060.99 401.753ZM997.156 403.204L997.882 403.929L997.156 403.204ZM997.882 403.929L998.607 404.655L997.882 403.929ZM998.607 404.655L999.333 405.38L998.607 404.655ZM1061.96 405.141L1062.21 405.62L1061.96 405.141ZM999.573 405.866L999.819 406.346L999.573 405.866ZM1000.06 406.832L1000.78 407.557L1000.06 406.832ZM1062.69 407.317L1062.93 407.797L1062.69 407.317ZM1000.78 407.557L1001.51 408.283L1000.78 407.557ZM1001.51 408.283L1002.24 409.008L1001.51 408.283ZM1002.48 409.494L1002.72 409.974L1002.48 409.494ZM1063.17 409.008V411.185H1063.9L1063.17 409.008ZM1002.96 410.459L1003.69 411.185L1002.96 410.459ZM1003.69 411.185L1004.41 411.911L1003.69 411.185ZM1004.41 411.911L1005.14 412.636L1004.41 411.911ZM1064.14 412.396L1064.38 412.876L1064.14 412.396ZM1005.38 413.122L1005.62 413.602L1005.38 413.122ZM1005.86 414.087L1006.59 414.813L1005.86 414.087ZM1064.62 414.087V416.264H1065.35L1064.62 414.087ZM1006.59 414.813L1007.31 415.538L1006.59 414.813ZM1007.55 416.024L1007.8 416.504L1007.55 416.024ZM1008.04 416.99L1008.77 417.715L1008.04 416.99ZM1065.59 417.475L1065.83 417.955L1065.59 417.475ZM1008.77 417.715L1009.49 418.441L1008.77 417.715ZM1009.49 418.441L1010.22 419.166L1009.49 418.441ZM1066.07 419.166V422.069H1066.8L1066.07 419.166ZM1010.22 419.892L1010.94 420.617L1010.22 419.892ZM1010.94 420.617L1011.67 421.343L1010.94 420.617ZM1011.9 421.829L1012.15 422.308L1011.9 421.829ZM1012.39 422.794L1013.12 423.52L1012.39 422.794ZM1066.8 422.794V424.971H1067.52L1066.8 422.794ZM1013.12 423.52L1013.84 424.245L1013.12 423.52ZM1014.08 424.731L1014.32 425.211L1014.08 424.731ZM1014.56 425.696L1015.29 426.422L1014.56 425.696ZM1067.76 426.182L1068.01 426.662L1067.76 426.182ZM1015.29 426.422L1016.01 427.148L1015.29 426.422ZM1016.25 427.633L1016.5 428.113L1016.25 427.633ZM1068.25 427.873V430.05H1068.98L1068.25 427.873ZM1016.74 428.599L1017.47 429.324L1016.74 428.599ZM1017.47 429.324L1018.19 430.05L1017.47 429.324ZM1018.19 430.775L1018.92 431.501L1018.19 430.775ZM1068.98 430.775V432.952H1069.7L1068.98 430.775ZM1018.92 431.501L1019.64 432.227L1018.92 431.501ZM1019.88 432.712L1020.13 433.192L1019.88 432.712ZM1020.37 433.678L1021.09 434.403L1020.37 433.678ZM1069.7 433.678V435.854H1070.43L1069.7 433.678ZM1021.09 434.397L1021.82 435.123L1021.09 434.397ZM1022.06 435.615L1022.31 436.094L1022.06 435.615ZM1070.43 435.848V438.025H1071.15L1070.43 435.848ZM1022.55 436.574L1023.27 437.299L1022.55 436.574ZM1023.27 437.299L1024 438.025L1023.27 437.299ZM1024.24 438.511L1024.48 438.99L1024.24 438.511ZM1071.15 438.751V441.653H1071.88L1071.15 438.751ZM1024.72 439.476L1025.45 440.202L1024.72 439.476ZM1025.69 440.687L1025.93 441.167L1025.69 440.687ZM1026.17 441.653L1026.9 442.378L1026.17 441.653ZM1026.9 442.378L1027.62 443.104L1026.9 442.378ZM1071.88 442.378V444.555H1072.6L1071.88 442.378ZM1027.86 443.59L1028.11 444.069L1027.86 443.59ZM1028.35 444.555L1029.08 445.281L1028.35 444.555ZM1072.6 444.555V446.732H1073.33L1072.6 444.555ZM1029.08 445.281L1029.8 446.006L1029.08 445.281ZM1029.8 446.732L1030.53 447.457L1029.8 446.732ZM1030.53 447.457L1031.25 448.183L1030.53 447.457ZM1031.25 448.909L1031.98 449.634L1031.25 448.909ZM1073.33 448.909V451.085H1074.05L1073.33 448.909ZM1031.98 449.634L1032.7 450.36L1031.98 449.634ZM1032.94 450.845L1033.19 451.325L1032.94 450.845ZM1033.43 451.811L1034.15 452.536L1033.43 451.811ZM1074.05 451.811V453.987H1074.78L1074.05 451.811ZM1034.15 453.262L1034.88 453.987L1034.15 453.262ZM1034.88 453.987L1035.61 454.713L1034.88 453.987ZM1035.85 455.199L1036.09 455.678L1035.85 455.199ZM1074.78 454.713V457.615H1075.51L1074.78 454.713ZM1036.33 456.164L1037.06 456.89L1036.33 456.164ZM1037.3 457.375L1037.54 457.855L1037.3 457.375ZM1037.78 458.341L1038.51 459.066L1037.78 458.341ZM1038.75 459.552L1038.99 460.032L1038.75 459.552ZM1075.51 459.066V461.969H1076.23L1075.51 459.066ZM1039.23 460.518L1039.96 461.243L1039.23 460.518ZM1040.2 461.729L1040.44 462.209L1040.2 461.729ZM1040.68 462.694L1041.41 463.42L1040.68 462.694ZM1076.23 462.694V464.871H1076.96L1076.23 462.694ZM1041.41 463.42L1042.14 464.145L1041.41 463.42ZM1042.14 464.871L1042.86 465.597L1042.14 464.871ZM1043.1 466.082L1043.35 466.562L1043.1 466.082ZM1076.96 466.322V469.224H1077.68L1076.96 466.322ZM1043.59 467.048L1044.31 467.773L1043.59 467.048ZM1044.31 468.499L1045.04 469.224L1044.31 468.499ZM1045.04 469.224L1045.76 469.95L1045.04 469.224ZM1045.76 469.95L1046.49 470.676L1045.76 469.95ZM1077.68 469.95V472.852H1078.41L1077.68 469.95ZM1046.49 471.401L1047.21 472.127L1046.49 471.401ZM1047.21 472.127L1047.94 472.852L1047.21 472.127ZM1048.18 473.338L1048.43 473.818L1048.18 473.338ZM1078.41 473.572V477.2H1079.13L1078.41 473.572ZM1048.67 474.297L1049.39 475.023L1048.67 474.297ZM1049.39 475.748L1050.12 476.474L1049.39 475.748ZM1050.36 476.96L1050.6 477.439L1050.36 476.96ZM1050.84 477.925L1051.57 478.651L1050.84 477.925ZM1051.57 478.651L1052.29 479.376L1051.57 478.651ZM1079.13 478.651V481.553H1079.86L1079.13 478.651ZM1052.29 480.102L1053.02 480.827L1052.29 480.102ZM1053.25 481.313L1053.5 481.793L1053.25 481.313ZM1053.74 482.279L1054.46 483.004L1053.74 482.279ZM1079.86 482.279V485.181H1080.58L1079.86 482.279ZM1054.7 483.49L1054.95 483.969L1054.7 483.49ZM1055.19 484.455L1055.92 485.181L1055.19 484.455ZM1055.92 485.906L1056.64 486.632L1055.92 485.906ZM1056.64 486.632L1057.37 487.358L1056.64 486.632ZM1057.61 487.843L1057.85 488.323L1057.61 487.843ZM1080.58 487.358V490.985H1081.31L1080.58 487.358ZM1058.09 488.809L1058.82 489.534L1058.09 488.809ZM1059.06 490.02L1059.3 490.5L1059.06 490.02ZM1059.78 491.471L1060.03 491.951L1059.78 491.471ZM1081.31 491.711V495.339H1082.04L1081.31 491.711ZM1060.27 492.436L1060.99 493.162L1060.27 492.436ZM1061.23 493.648L1061.48 494.127L1061.23 493.648ZM1061.96 495.099L1062.21 495.579L1061.96 495.099ZM1062.45 496.064L1063.17 496.79L1062.45 496.064ZM1063.41 497.276L1063.66 497.755L1063.41 497.276ZM1082.04 497.515V501.143H1082.76L1082.04 497.515ZM1063.9 498.241L1064.62 498.967L1063.9 498.241ZM1064.62 499.692L1065.35 500.418L1064.62 499.692ZM1065.59 500.904L1065.83 501.383L1065.59 500.904ZM1066.07 501.869L1066.8 502.594L1066.07 501.869ZM1082.76 501.869V507.673H1083.49L1082.76 501.869ZM1066.8 503.32L1067.52 504.046L1066.8 503.32ZM1067.76 504.531L1068.01 505.011L1067.76 504.531ZM1068.25 505.497L1068.98 506.222L1068.25 505.497ZM1068.98 506.948L1069.7 507.673L1068.98 506.948ZM1069.7 507.673L1070.43 508.399L1069.7 507.673ZM1070.43 509.125L1071.15 509.85L1070.43 509.125ZM1083.49 509.125V513.478H1084.21L1083.49 509.125ZM1071.39 510.336L1071.64 510.816L1071.39 510.336ZM1072.12 511.787L1072.36 512.267L1072.12 511.787ZM1072.6 512.746L1073.33 513.472L1072.6 512.746ZM1073.57 513.964L1073.81 514.443L1073.57 513.964ZM1074.05 514.923L1074.78 515.649L1074.05 514.923ZM1074.78 516.374L1075.51 517.1L1074.78 516.374ZM1084.21 516.374V520.728H1084.94L1084.21 516.374ZM1075.75 517.586L1075.99 518.065L1075.75 517.586ZM1076.23 518.551L1076.96 519.276L1076.23 518.551ZM1076.96 520.002L1077.68 520.728L1076.96 520.002ZM1077.68 521.453L1078.41 522.179L1077.68 521.453ZM1078.65 522.664L1078.89 523.144L1078.65 522.664ZM1079.13 523.63L1079.86 524.355L1079.13 523.63ZM1080.1 524.841L1080.34 525.321L1080.1 524.841ZM1084.94 524.355C1084.94 527.27 1085.8 531.464 1083.49 530.886L1085.66 533.788L1084.94 524.355ZM1080.58 525.807L1081.31 526.532L1080.58 525.807ZM1081.31 527.258L1082.04 527.983L1081.31 527.258ZM1082.04 528.709L1082.76 529.434L1082.04 528.709ZM1083 529.92L1083.25 530.4L1083 529.92Z" fill="#4EB152"/>
<path d="M345.699 614.646C324.971 616.46 305.368 621.951 289.111 635.669C234.299 681.915 252.629 773.097 321.755 793.702C332.571 796.924 344.604 798.074 355.851 797.004C402.785 792.533 438.332 753.408 439.242 706.443C440.171 658.045 395.769 610.268 345.699 614.646Z" fill="#FE9804"/>
<path d="M1050.12 614.615C1019.5 618.624 992.803 629.637 975.561 657.11C935.495 720.942 988.929 805.877 1063.9 796.911C1103.08 792.232 1138.57 761.039 1143.49 720.948C1148.97 676.455 1126.3 635.306 1083.49 619.614C1073.58 615.999 1060.67 613.238 1050.12 614.615ZM487.886 855.166C494.582 860.571 505.884 862.311 514 864.845C536.456 871.854 559.625 878.046 582.917 881.477C663.941 893.418 745.42 896.339 825.946 878.126C844.571 873.914 863.129 869.013 881.084 862.459C887.091 860.264 896.105 858.462 901.086 854.391C903.625 852.307 902.863 847.923 902.851 845.008C902.808 836.387 901.959 827.435 900.766 818.894C896.566 788.66 886.833 760.91 872.537 734.014C869.062 727.478 864.82 721.249 860.632 715.15C859.175 713.022 857.361 709.062 854.865 708.023C852.313 706.965 850.456 710.618 849.251 712.247C845.303 717.548 840.987 722.528 836.621 727.484C819.035 747.431 796.444 762.902 773.718 776.38C713.28 812.21 642.057 830.159 573.491 842.53C555.911 845.691 538.264 848.581 520.531 850.696C510.028 851.956 497.958 851.981 487.886 855.166Z" fill="#4EB152"/>
<path d="M42.3803 984.594H0.973633V955.473H118.823V984.594H76.9617V1108.81H42.3803V984.594V984.594Z" fill="white"/>
<path d="M133.384 947.289H167.965V1010.99H168.42C172.061 1005.99 176.611 1002.12 182.071 999.389C187.304 996.659 193.674 995.066 200.044 995.066C222.113 995.066 238.948 1010.31 238.948 1043.98V1108.82H204.367V1047.62C204.367 1033.06 199.362 1023.05 186.394 1023.05C177.293 1023.05 171.606 1028.96 169.103 1035.34C168.193 1037.38 167.965 1040.34 167.965 1042.84V1108.82H133.384V947.289Z" fill="white"/>
<path d="M293.323 1064.22C294.233 1078.56 308.566 1085.38 324.719 1085.38C336.55 1085.38 346.105 1083.79 355.433 1080.6L359.983 1104.04C348.608 1108.81 334.73 1111.09 319.714 1111.09C281.947 1111.09 260.334 1089.25 260.334 1054.44C260.334 1026.23 277.852 995.06 316.529 995.06C352.475 995.06 366.126 1023.04 366.126 1050.57C366.126 1056.49 365.443 1061.72 364.988 1064.22H293.323V1064.22ZM334.047 1040.56C334.047 1032.14 330.407 1018.04 314.481 1018.04C299.921 1018.04 294.005 1031.46 293.095 1040.56H334.047Z" fill="white"/>
<path d="M433.924 957.755C446.664 955.707 463.272 954.342 480.563 954.342C509.912 954.342 529.023 959.802 543.583 970.723C559.509 982.553 569.519 1001.44 569.519 1028.51C569.519 1057.86 558.826 1078.11 544.266 1090.62C528.112 1104.04 503.314 1110.41 473.283 1110.41C455.309 1110.41 442.342 1109.28 433.924 1108.14V957.755ZM468.505 1082.65C471.463 1083.33 476.468 1083.33 480.563 1083.33C512.187 1083.56 532.89 1066.27 532.89 1029.64C532.89 997.79 514.234 980.954 484.203 980.954C476.695 980.954 471.463 981.637 468.505 982.319V1082.65V1082.65Z" fill="white"/>
<path d="M619.344 997.562L635.952 1052.39C637.772 1058.76 640.047 1067.18 641.412 1073.1H642.322C643.687 1066.95 645.507 1058.76 647.1 1052.16L660.978 997.562H697.834L671.898 1070.82C655.973 1115.18 645.28 1132.7 632.767 1143.85C620.936 1154.32 608.196 1158.18 599.55 1159.09L592.042 1129.97C596.365 1129.06 601.825 1127.02 607.058 1124.06C612.291 1121.33 618.206 1115.64 621.391 1110.18C622.529 1108.36 623.211 1106.54 623.211 1105.17C623.211 1103.81 622.984 1102.22 621.846 1099.49L580.895 997.562H619.344Z" fill="white"/>
<path d="M712.395 1033.05C712.395 1019.18 711.94 1007.57 711.485 997.562H741.516L743.109 1013.03H743.791C748.341 1005.75 759.489 995.06 778.145 995.06C800.896 995.06 817.959 1010.3 817.959 1043.06V1108.81H783.378V1047.16C783.378 1032.83 778.373 1023.04 765.86 1023.04C756.304 1023.04 750.616 1029.64 748.114 1036.01C747.204 1038.29 746.976 1041.47 746.976 1044.66V1108.81H712.395V1033.05V1033.05Z" fill="white"/>
<path d="M938.305 1081.97C938.305 1092.43 938.76 1102.67 940.125 1108.81H908.957L906.909 1097.67H906.227C898.946 1106.54 887.571 1111.32 874.375 1111.32C851.852 1111.32 838.429 1094.94 838.429 1077.19C838.429 1048.3 864.365 1034.65 903.724 1034.65V1033.28C903.724 1027.14 900.539 1018.72 883.476 1018.72C872.1 1018.72 860.042 1022.59 852.762 1027.14L846.392 1004.84C854.127 1000.52 869.37 994.832 889.618 994.832C926.702 994.832 938.305 1016.67 938.305 1043.06V1081.97V1081.97ZM904.861 1056.26C886.661 1056.26 872.555 1060.58 872.555 1073.78C872.555 1082.65 878.47 1086.97 886.206 1086.97C894.624 1086.97 901.904 1081.29 904.179 1074.23C904.634 1072.41 904.861 1070.37 904.861 1068.32V1056.26Z" fill="white"/>
<path d="M965.84 1033.05C965.84 1019.18 965.385 1007.57 964.93 997.562H994.279L995.644 1012.58H996.326C1001.1 1005.3 1011.11 994.832 1030 994.832C1044.56 994.832 1055.71 1002.34 1060.48 1013.94H1060.94C1065.26 1008.03 1070.04 1003.48 1075.5 1000.29C1081.64 996.88 1088.47 994.832 1096.66 994.832C1118.04 994.832 1134.2 1009.85 1134.2 1043.29V1108.81H1100.53V1048.3C1100.53 1032.14 1095.29 1022.82 1084.15 1022.82C1075.95 1022.82 1070.49 1028.28 1067.99 1034.87C1067.31 1037.38 1066.85 1040.79 1066.85 1043.75V1108.81H1033.18V1046.25C1033.18 1032.37 1028.18 1022.82 1017.03 1022.82C1008.16 1022.82 1002.92 1029.64 1000.88 1035.1C999.739 1037.83 999.512 1041.02 999.512 1043.97V1108.81H965.84V1033.05V1033.05Z" fill="white"/>
<path d="M1197.21 966.627C1197.21 976.183 1190.16 983.918 1178.56 983.918C1167.63 983.918 1160.58 976.183 1160.58 966.627C1160.58 956.844 1167.86 949.337 1179.01 949.337C1190.16 949.337 1196.98 956.844 1197.21 966.627ZM1161.49 1108.81V997.562H1196.07V1108.81H1161.49Z" fill="white"/>
<path d="M1307.32 1105.86C1301.18 1108.81 1289.57 1111.09 1276.38 1111.09C1240.43 1111.09 1217.45 1089.02 1217.45 1054.21C1217.45 1021.68 1239.75 995.06 1281.16 995.06C1290.26 995.06 1300.27 996.652 1307.55 999.383L1302.09 1025.09C1297.99 1023.27 1291.85 1021.68 1282.75 1021.68C1264.55 1021.68 1252.72 1034.65 1252.94 1052.85C1252.94 1073.1 1266.6 1084.02 1283.43 1084.02C1291.62 1084.02 1297.99 1082.65 1303.22 1080.38L1307.32 1105.86Z" fill="white"/>
<path d="M1326.2 1078.78C1332.57 1082.65 1345.77 1086.97 1356.01 1086.97C1366.47 1086.97 1370.79 1083.56 1370.79 1077.87C1370.79 1071.96 1367.38 1069.23 1354.64 1064.91C1331.44 1057.17 1322.56 1044.66 1322.79 1031.46C1322.79 1010.53 1340.54 994.832 1368.06 994.832C1381.03 994.832 1392.41 998.017 1399.23 1001.43L1393.32 1025.32C1388.31 1022.59 1378.53 1018.95 1369.2 1018.95C1360.78 1018.95 1356.01 1022.36 1356.01 1027.82C1356.01 1033.28 1360.33 1036.01 1373.98 1040.79C1395.14 1048.07 1403.78 1058.99 1404.01 1075.14C1404.01 1096.07 1387.86 1111.32 1356.01 1111.32C1341.45 1111.32 1328.48 1107.9 1320.06 1103.35L1326.2 1078.78Z" fill="white"/>
</svg>
