<svg width="42" height="52" viewBox="0 0 42 52" fill="none" xmlns="http://www.w3.org/2000/svg">
<path d="M0.961171 10.7801C1.05449 10.5824 1.18772 10.4005 1.35325 10.2445C1.51877 10.0886 1.71334 9.96176 1.92582 9.87128L24.5484 0.19645C24.977 0.0131699 25.4527 -0.0112447 25.871 0.128578C26.2892 0.268401 26.6158 0.561008 26.7787 0.942027C27.6143 2.89585 27.116 4.78793 26.5084 6.08445C26.2547 6.61775 25.9757 7.07359 25.7305 7.42995L31.1752 20.1614L31.4863 20.1915C32.2984 20.2759 33.4105 20.4359 34.5954 20.7482C36.8816 21.3475 39.874 22.6237 41.0696 25.4194C41.2326 25.8004 41.2186 26.2386 41.0308 26.6376C40.843 27.0366 40.4967 27.3638 40.0681 27.5471L27.1409 33.0755L32.6705 46.0053C33.0096 46.7983 33.7897 50.6248 32.8978 51.0062C32.0058 51.3877 29.7778 48.1804 29.4387 47.3874L23.9091 34.4577L10.9819 39.9861C10.5534 40.1694 10.0776 40.1938 9.65937 40.054C9.24111 39.9142 8.91459 39.6216 8.75164 39.2406C7.55602 36.4449 8.70033 33.3996 9.84302 31.3339C10.4031 30.3309 11.0526 29.3674 11.7845 28.4541L6.33968 15.7227C5.82242 15.6404 5.31725 15.5177 4.82944 15.3557C3.4722 14.8995 1.75867 13.9499 0.92432 11.999C0.843203 11.8104 0.804706 11.6056 0.811029 11.3965C0.817352 11.1873 0.868372 10.9778 0.961171 10.7801V10.7801Z" fill="#FF9700"/>
</svg>
