<svg width="78" height="50" viewBox="0 0 78 68" fill="none" xmlns="http://www.w3.org/2000/svg">
<path d="M10.1679 48.2608L34.3163 40.6617L30.0763 33.3656L1.90325 42.2312L0.950864 44.6885L10.1679 48.2608ZM40.722 33.2519C41.1294 33.4098 41.4699 33.6907 41.6687 34.0328C41.8675 34.3749 41.9082 34.7501 41.7819 35.076C41.6556 35.4018 41.3727 35.6516 40.9953 35.7704C40.6179 35.8891 40.177 35.8671 39.7696 35.7092C39.3622 35.5513 39.0216 35.2704 38.8228 34.9284C38.624 34.5863 38.5833 34.211 38.7096 33.8852C38.8359 33.5593 39.1189 33.3095 39.4962 33.1908C39.8736 33.072 40.3145 33.094 40.722 33.2519ZM66.2989 21.9669C67.9286 22.5985 69.2908 23.722 70.086 25.0903C70.8811 26.4586 71.044 27.9595 70.5388 29.263C70.0336 30.5664 68.9018 31.5655 67.3922 32.0406C65.8826 32.5156 64.119 32.4276 62.4894 31.796C60.8597 31.1644 59.4974 30.0409 58.7023 28.6726C57.9072 27.3043 57.7443 25.8033 58.2494 24.4999C58.7546 23.1965 59.8865 22.1973 61.3961 21.7223C62.9056 21.2473 64.6692 21.3352 66.2989 21.9669ZM54.8703 51.4543C56.4999 52.0859 57.8622 53.2095 58.6573 54.5778C59.4525 55.9461 59.6154 57.447 59.1102 58.7504C58.605 60.0539 57.4731 61.053 55.9636 61.528C54.454 62.0031 52.6904 61.9151 51.0607 61.2835C49.431 60.6519 48.0688 59.5283 47.2737 58.16C46.4785 56.7917 46.3156 55.2908 46.8208 53.9874C47.326 52.6839 48.4579 51.6848 49.9674 51.2098C51.477 50.7347 53.2406 50.8227 54.8703 51.4543ZM43.3441 48.0046C42.1612 48.9593 41.238 50.156 40.6761 51.6058C39.6658 54.2127 39.9916 57.2146 41.5818 59.9512C43.1721 62.6877 45.8966 64.9348 49.1559 66.1981C52.4153 67.4613 55.9425 67.6372 58.9616 66.6872C61.9808 65.7371 64.2445 63.7388 65.2549 61.132C66.2652 58.5251 65.9394 55.5232 64.3491 52.7866C62.7589 50.0501 60.0344 47.803 56.775 46.5397C54.9624 45.8372 53.1488 45.5017 51.3935 45.4715L46.3904 36.8621L55.8888 33.8731C57.2059 35.0337 58.7719 36.008 60.5846 36.7106C63.8439 37.9738 67.3711 38.1498 70.3903 37.1997C73.4094 36.2496 75.6731 34.2514 76.6835 31.6445C77.6939 29.0377 77.3681 26.0357 75.7778 23.2992C74.1875 20.5626 71.463 18.3155 68.2037 17.0523C64.9443 15.789 61.4171 15.6131 58.398 16.5632C55.3789 17.5133 53.1151 19.5115 52.1048 22.1184C51.5429 23.5682 51.4184 25.0745 51.6489 26.577L42.1505 29.566L27.3108 4.02961L18.0938 0.457306L17.1414 2.91459L43.3441 48.0046Z" fill="#FF9700"/>
</svg>
