<svg width="1832" height="1809" viewBox="0 0 1832 1809" fill="none" xmlns="http://www.w3.org/2000/svg">
<path d="M1831.77 464.42C1791.21 497.39 1733.58 533.98 1686.12 549.73L1756.63 563.01L1465.37 906.46L884.85 1073.53L197.86 1806.17L739.02 1805.98L1014.76 1363.27L1567.2 1035.05L1781.75 577.83L1827.46 633.16C1818.32 584 1822.51 515.86 1831.77 464.42Z" fill="#F7CC7F"/>
<path d="M105.08 1240.02C105.08 1240.02 73.6203 1183.62 65.9603 1171.63C58.3003 1159.64 38.3603 1112 37.6503 1110.12C36.9403 1108.24 51.3804 1085.7 48.1604 1084.93C44.9404 1084.16 41.3703 1096.82 37.9303 1095.3C34.4903 1093.79 24.4403 1063.32 22.4803 1064.83C18.8103 1067.66 27.9004 1083.73 25.9404 1084.75C23.9804 1085.76 18.0604 1067.06 14.2204 1067.61C10.3804 1068.16 21.5203 1084.75 20.4503 1086.21C19.3804 1087.67 7.81035 1072.05 5.72035 1075.38C4.58035 1077.19 16.3604 1089.02 14.1004 1090.13C11.8404 1091.24 1.37035 1083.6 0.260347 1085.8C-0.849653 1088 9.95035 1091.02 13.1704 1096.96C16.4004 1102.9 21.8903 1105.47 24.1803 1116.46C26.4703 1127.45 29.8704 1167.25 41.5704 1187.11C53.2604 1206.96 78.9804 1250.91 78.9804 1250.91L105.08 1240.02Z" fill="#F79C8D"/>
<path d="M96.3807 1221.74C96.3807 1221.74 131.181 1259.25 136.361 1274.37C141.541 1289.49 131.321 1311.11 117.201 1312.06C103.091 1313 71.6807 1245.48 71.6807 1245.48L96.3807 1221.74Z" fill="#355389"/>
<path d="M260.31 1493.31C257.78 1491.19 254.71 1492.15 245.92 1488.09C244.22 1487.3 239.74 1486.05 237.73 1485.65C237.35 1485.57 237.06 1485.29 236.96 1484.92C234.29 1474.81 222.58 1428.05 221.29 1414.57C219.98 1400.78 211.08 1342.33 209.73 1333.44C209.64 1332.84 209.04 1332.45 208.45 1332.61L182.9 1339.73C182.38 1339.88 182.06 1340.4 182.18 1340.94C183.76 1347.91 193.58 1391.65 196.46 1413.79C198.76 1431.44 225.05 1488.06 225.58 1491.68C225.58 1491.71 225.59 1491.75 225.59 1491.78C225.75 1492.87 226.68 1493.68 227.78 1493.68C234.27 1493.68 255.06 1493.67 256.25 1493.68C257.35 1493.69 261.11 1493.97 260.31 1493.31Z" fill="#F48C7F"/>
<path d="M203.43 1308.21C189.84 1266.97 174.63 1268.73 174.63 1268.73L186.39 1355.43C194.78 1353.14 205.72 1348.03 214.1 1345.66C211.32 1332.61 206.78 1318.36 203.43 1308.21Z" fill="#13375B"/>
<path d="M199.21 1200.98C195.05 1173.86 170.51 1154.36 144.85 1167.52C139.08 1170.48 131.27 1176.48 127.28 1181.6C116.5 1195.43 113.75 1212.52 102.62 1225.94C106.71 1229.04 111.65 1232.29 117.54 1235.42L124.47 1226.18L122.08 1237.71C139.31 1245.95 163.64 1252.76 196.91 1252.56C201.1 1233.72 201.43 1215.44 199.21 1200.98Z" fill="#F7CC7F"/>
<path d="M207.211 1802.15C203.291 1799.26 200.131 1797.36 187.621 1791.29C186.801 1790.89 183.831 1789 182.761 1788.35C180.041 1786.69 177.321 1784.07 174.971 1781.45C172.731 1778.95 171.661 1770.93 171.161 1764.54C172.451 1750.26 193.131 1521.3 197.501 1496.52C202.001 1470.94 195.141 1431.91 195.141 1431.91L179.171 1425.89L148.851 1530.97L151.241 1610.95C151.241 1610.95 144.111 1634 143.211 1647.78C142.311 1661.56 153.511 1773.39 153.511 1773.39C153.511 1777.39 153.351 1781.01 152.911 1783.27C152.091 1787.45 147.511 1796.06 149.611 1800C151.711 1803.94 154.111 1804.92 154.111 1804.92L208.591 1805.8C211.561 1805.83 209.601 1803.92 207.211 1802.15Z" fill="#F48C7F"/>
<path d="M124.53 1423.69C124.53 1423.69 105.61 1452.23 101.11 1475.84C96.6105 1499.46 104.42 1572.04 95.7505 1602.99C91.0605 1619.74 73.2805 1645.62 70.5805 1667.27C67.8805 1688.92 58.4705 1751.4 58.4705 1751.4C57.0505 1757.96 54.8205 1766.07 51.9305 1769.85C50.1605 1772.16 46.9305 1775.08 44.8005 1779.25C41.5005 1785.75 43.3205 1795.42 45.7605 1800.74C47.0105 1803.47 45.6705 1803.47 48.5205 1804.35C56.9605 1806.96 65.9305 1802.56 69.5305 1794.47C71.5405 1789.95 73.3005 1783.91 73.6505 1776.31C74.0305 1768.25 75.2905 1761.85 76.6305 1757.11L137.1 1608.78L180.88 1480.77L192.09 1414.84L124.53 1423.69Z" fill="#F79C8D"/>
<path d="M71.1699 1790.2C58.0799 1792.59 49.3799 1784.92 44.8399 1779.17C41.5099 1785.68 39.8899 1795.39 42.3399 1800.73C44.4899 1805.44 50.7899 1805.3 55.7499 1805.49C60.9899 1805.69 65.0499 1802.77 67.6499 1798.19C68.8699 1796.06 70.1199 1793.4 71.1699 1790.2Z" fill="#86B1F2"/>
<path d="M182.761 1788.34C168.351 1792.05 157.701 1789.53 151.751 1787.12C150.211 1791.48 148.181 1796.96 149.261 1800.12C150.581 1803.99 152.471 1804.86 154.131 1804.9C167.291 1805.25 202.331 1805.72 212.371 1805.85C213.771 1805.87 214.541 1804.23 213.641 1803.15C211.141 1800.17 183.831 1789 182.761 1788.34Z" fill="#86B1F2"/>
<path d="M136.8 1609.06C137.93 1609.14 139.07 1609.21 140.21 1609.28C140.27 1609.28 140.33 1609.29 140.39 1609.29C141.51 1609.36 142.64 1609.42 143.77 1609.48C143.84 1609.48 143.91 1609.49 143.98 1609.49C145.11 1609.55 146.25 1609.6 147.39 1609.65C147.45 1609.65 147.51 1609.65 147.56 1609.66C148.72 1609.71 149.88 1609.75 151.04 1609.79C163.95 1610.21 179.9 1610.05 190.14 1608.31C195.36 1556.08 197.3 1508.41 199.23 1497.86C203.91 1472.27 195.15 1431.89 195.15 1431.89L190.97 1431.14L193.62 1416.18L123.37 1425.04C123.37 1425.04 103.7 1453.58 99.0105 1477.19C94.3305 1500.81 102.45 1573.39 93.4404 1604.34C93.4204 1604.35 113.48 1607.48 136.8 1609.06Z" fill="#F7CC7F"/>
<path d="M139.85 1261.32C139.85 1261.32 114.8 1259.72 104.89 1270.55C94.9805 1281.37 126.87 1367 128.67 1380.78C130.47 1394.56 119.49 1431.19 119.49 1431.19C119.49 1431.19 178.33 1443.06 195.14 1431.9C195.14 1431.9 196.94 1332.83 195.14 1322.99C193.34 1313.15 178.32 1273.13 174.72 1269.19C171.12 1265.26 139.85 1261.32 139.85 1261.32Z" fill="#355389"/>
<path d="M148.18 1227.78C148.18 1227.78 148.05 1228.52 147.82 1229.78C146.7 1235.82 142.4 1255.84 139.5 1261.34C135.99 1267.99 151.52 1289.21 166.47 1286.62C170.92 1285.85 162.71 1267.13 163.1 1265.15C163.86 1261.35 164.88 1256.17 165.93 1250.86C166.52 1247.86 167.12 1244.83 167.68 1241.97C169.28 1233.86 170.58 1227.22 170.58 1227.22L148.18 1227.78Z" fill="#F7A491"/>
<path d="M147.82 1229.78C148.05 1228.52 148.18 1227.78 148.18 1227.78L170.58 1227.22C170.58 1227.22 169.28 1233.85 167.68 1241.97C167.12 1244.81 166.53 1247.83 165.94 1250.81C162.48 1250.3 158.87 1248.61 155.25 1245.44C151.3 1241.98 148.71 1237.81 147.15 1233.36C147.42 1231.94 147.65 1230.71 147.82 1229.78Z" fill="#F47458"/>
<path d="M163.26 1176.75C163.26 1176.75 152.7 1175.53 146.09 1184.11C139.47 1192.69 132.34 1219.22 148.78 1233.64C165.22 1248.06 181.46 1231.74 183.87 1214.43C186.27 1197.11 187.21 1176.13 163.26 1176.75Z" fill="#F7A491"/>
<path d="M188.73 1214.17C186.77 1217.99 183.47 1220.11 181.37 1218.9C179.27 1217.69 179.16 1213.61 181.12 1209.78C183.08 1205.96 186.38 1203.84 188.48 1205.05C190.58 1206.26 190.69 1210.35 188.73 1214.17Z" fill="#F7A491"/>
<path d="M164.441 1173.92C164.441 1173.92 150.341 1199.15 140.251 1200.31C130.161 1201.48 128.841 1214.88 128.841 1214.88C128.841 1214.88 132.451 1183.99 142.441 1178.04C152.421 1172.08 164.441 1173.92 164.441 1173.92Z" fill="#F7CC7F"/>
<path d="M142.89 1206.65C143.71 1211.13 142.06 1215.24 139.2 1215.83C136.34 1216.42 133.36 1213.26 132.54 1208.78C131.72 1204.3 133.37 1200.19 136.23 1199.6C139.09 1199.01 142.07 1202.17 142.89 1206.65Z" fill="#F7A491"/>
<path d="M155.32 1222.92L170.58 1225.92C170.58 1225.92 169.09 1231.65 162.34 1230.52C154.11 1229.15 155.32 1222.92 155.32 1222.92Z" fill="white"/>
<path d="M1412.68 1807.72L1418.94 1806.53L1391.75 1663.13L1385.49 1664.32L1412.68 1807.72Z" fill="#3C8F7C"/>
<path d="M1123.15 1808.36H1115.62L1143.68 1663.1L1149.93 1664.29L1123.15 1808.36Z" fill="#3C8F7C"/>
<path d="M1342.9 1808.36H1335.38L1363.43 1663.1L1369.68 1664.29L1342.9 1808.36Z" fill="#3C8F7C"/>
<path d="M1191.74 1808.36L1197.85 1808.44L1170.95 1663.75L1164.7 1664.94L1191.74 1808.36Z" fill="#184655"/>
<path d="M1300.05 1348.29C1333.46 1351.87 1376.7 1355.64 1420.11 1429.31C1467.55 1509.82 1442.58 1630.08 1405.13 1663.5C1367.69 1696.92 1245.39 1738.18 1142.58 1676.41C1142.58 1676.41 1080.5 1638.97 1112.36 1576.84C1161.38 1481.23 1154.46 1461.29 1176.38 1423.82C1198.3 1386.35 1229.13 1340.7 1300.05 1348.29Z" fill="#F47458"/>
<path d="M1420.11 1429.31C1390.48 1379.03 1360.94 1361.32 1334.54 1353.99C1344.75 1364.56 1355.1 1378.15 1365.46 1395.74C1412.9 1476.25 1387.93 1596.51 1350.48 1629.93C1317.27 1659.57 1217.34 1695.36 1123.44 1660C1133.09 1670.68 1142.58 1676.41 1142.58 1676.41C1245.39 1738.18 1367.68 1696.92 1405.13 1663.5C1442.58 1630.08 1467.55 1509.82 1420.11 1429.31Z" fill="#B75742"/>
<path d="M1192.78 1470.66L1184.19 1496.43L1210.37 1486.13L1192.78 1470.66Z" fill="#F79C8D"/>
<path d="M1219.76 1393.99C1218.01 1394.06 1213.23 1395.66 1206.24 1408.82C1197.31 1425.64 1184.26 1476.44 1184.26 1476.44L1223.21 1490.9L1228.21 1480.3L1236.45 1398.67C1236.46 1398.67 1220.25 1393.97 1219.76 1393.99Z" fill="#6394DB"/>
<path d="M1271.25 1386.67C1260.11 1386.68 1232.55 1389.92 1219.76 1394C1219.76 1394 1210.36 1474.49 1228.22 1535.65C1232.22 1549.34 1224.91 1592.41 1224.91 1592.41L1340.33 1590.89C1340.33 1590.89 1326.66 1486.78 1331.81 1469.96C1336.96 1453.14 1337.08 1394.54 1337.08 1394.54C1337.08 1394.54 1336.29 1394.42 1311.15 1390.09C1299.43 1388.07 1283.14 1386.66 1271.25 1386.67Z" fill="#86B1F2"/>
<path d="M1284.7 1741.8C1284.7 1741.8 1282.15 1771.17 1277.45 1779.3C1272.76 1787.43 1277.7 1801.26 1277.94 1803.16C1278.18 1805.06 1287.82 1807.77 1303.14 1806.14C1318.46 1804.51 1318.21 1800.99 1316.98 1795.3C1315.75 1789.61 1307.59 1782.29 1307.1 1776.86C1306.61 1771.44 1311.79 1751.92 1311.79 1751.92L1284.7 1741.8Z" fill="#F7A491"/>
<path d="M1237.94 1568.17C1237.94 1568.17 1158.27 1563.76 1140.48 1574.5C1122.69 1585.24 1143.7 1607.29 1143.7 1607.29C1143.7 1607.29 1208.56 1635.4 1317.15 1641.64C1342.86 1643.12 1345.08 1574.82 1340.27 1569.17C1335.46 1563.51 1237.94 1568.17 1237.94 1568.17Z" fill="#E5B05C"/>
<path d="M1305.06 1808.43C1320.84 1806.76 1318.88 1799.03 1317.61 1793.17C1316.81 1789.5 1312.29 1785.17 1309.59 1781.08C1308.18 1782.2 1305.89 1784.18 1299.04 1786.19C1291.93 1788.28 1282.17 1784.14 1275.96 1781.54C1273.75 1789.75 1273.64 1800.23 1273.85 1801.82C1274.1 1803.78 1289.29 1810.1 1305.06 1808.43Z" fill="#F47458"/>
<path d="M1296.35 1624.97C1293.17 1648.98 1277.41 1768.48 1277.41 1768.48L1313.98 1773C1313.98 1773 1358.95 1617.02 1356.65 1593.16C1354.34 1569.3 1337.51 1567.29 1337.51 1567.29C1337.51 1567.29 1304.78 1561.43 1296.35 1624.97Z" fill="#F7CC7F"/>
<path d="M1338.34 1403.49C1327.55 1399.46 1322.27 1496.36 1320.81 1536.24C1301.7 1538.07 1268.39 1536.25 1260.1 1535.63C1256.2 1535.34 1247.21 1532.05 1243.33 1531.55C1239.35 1531.03 1235.75 1530.76 1233.8 1531.1C1233.08 1531.22 1213.16 1539.34 1211.46 1541.12C1209.35 1543.33 1203.63 1548.9 1204.6 1551.31C1205.57 1553.72 1215.59 1544.6 1215.59 1544.6L1220.49 1541.86C1214.39 1547.8 1202.76 1555.62 1204.44 1558.46C1206.07 1561.24 1216.57 1553.3 1224.04 1547.89C1217.63 1553.66 1209.66 1564 1211.49 1565.61C1213.14 1567.06 1222.2 1555.1 1231.89 1551.65C1235.48 1550.37 1239.06 1553.91 1241.88 1554.34C1243.96 1554.65 1247.16 1555.32 1249.2 1554.75L1259.69 1551.79C1263.26 1552.11 1263.35 1554.22 1266.96 1554.98C1271.15 1555.87 1278.02 1556.8 1283.35 1558.1C1314.07 1565.58 1324.31 1569.05 1333.72 1569.05C1362.19 1569.03 1363.85 1413.02 1338.34 1403.49Z" fill="#F7A491"/>
<path d="M1358.82 1494.46C1360.84 1453.6 1360.55 1403.25 1337.57 1394.66C1328.5 1391.27 1312.52 1411.65 1315.39 1495.29C1327.66 1496.3 1345.67 1497.11 1358.82 1494.46Z" fill="#86B1F2"/>
<path d="M1177.76 1766.93C1177.76 1766.93 1180.95 1777.13 1175.24 1783.87C1169.53 1790.61 1145.78 1797.23 1142.67 1800.88C1139.55 1804.53 1139.79 1807.64 1139.79 1807.64L1206.43 1805.81L1205.7 1785.75L1202.63 1771.34L1177.76 1766.93Z" fill="#F7A491"/>
<path d="M1171.1 1787.23C1171.1 1787.23 1188.22 1794.13 1196.49 1790.05C1204.76 1785.97 1204.51 1784.83 1206.9 1786.35C1209.29 1787.87 1210.15 1808.37 1210.15 1808.37L1135.22 1808.87C1130.01 1808.75 1127.37 1804.92 1131.61 1801.65C1134.51 1799.4 1137.87 1797.9 1139.78 1796.81C1145.64 1793.46 1171.1 1787.23 1171.1 1787.23Z" fill="#F47458"/>
<path d="M1180.29 1586.99C1175.14 1576.19 1163.43 1562.12 1142.82 1570.6C1123.16 1578.68 1117.89 1598.53 1124.09 1618.86C1130.29 1639.19 1171.12 1758.71 1172.55 1775.14L1205.15 1775.36C1205.15 1775.36 1199.23 1680.72 1197.77 1657.85C1196.36 1635.83 1189.2 1605.68 1180.29 1586.99Z" fill="#F7CC7F"/>
<path d="M1127.37 1476.91H1236.34C1239.22 1476.91 1241.82 1478.65 1242.91 1481.32L1276.46 1563.16H1336.54C1338.22 1563.16 1339.58 1564.52 1339.58 1566.2C1339.58 1567.88 1338.22 1569.24 1336.54 1569.24H1165.55C1160.85 1569.24 1156.59 1566.48 1154.66 1562.19L1120.87 1486.93C1118.77 1482.22 1122.21 1476.91 1127.37 1476.91Z" fill="#355389"/>
<path d="M1186.04 1524.56C1186.78 1528.24 1189.98 1530.69 1193.2 1530.05C1196.42 1529.41 1198.43 1525.9 1197.7 1522.23C1196.97 1518.56 1193.76 1516.1 1190.54 1516.74C1187.31 1517.38 1185.3 1520.89 1186.04 1524.56Z" fill="white"/>
<path d="M1284.49 1352.17L1289.82 1387.31C1289.82 1387.31 1270.35 1429.15 1258.72 1425.52C1248.97 1422.48 1254.97 1385.45 1254.97 1385.45C1254.97 1385.45 1260.29 1365.57 1258.69 1355.62C1257.11 1345.67 1284.49 1352.17 1284.49 1352.17Z" fill="#F7A491"/>
<path opacity="0.2" d="M1258.7 1355.62C1257.11 1345.67 1284.49 1352.16 1284.49 1352.16L1284.93 1355.07C1284.13 1357.02 1283.15 1358.69 1281.96 1359.97C1275.84 1366.55 1266.28 1370.51 1258.01 1370.81C1258.84 1365.45 1259.35 1359.7 1258.7 1355.62Z" fill="#F47458"/>
<path d="M1288.99 1302.45C1289.76 1302.17 1295.19 1342.47 1284.89 1353.57C1274.58 1364.66 1254.5 1368.29 1247.3 1359.55C1239.33 1349.89 1239.73 1306.57 1255.76 1295.16C1271.79 1283.75 1288.99 1302.45 1288.99 1302.45Z" fill="#F7A491"/>
<path d="M1261.86 1273.6C1274.24 1276.13 1282.27 1283.69 1285.21 1286.92C1290.83 1287.58 1298.48 1290.69 1306.37 1303.76C1316.08 1319.83 1308.91 1337.63 1297.61 1346.37C1286.31 1355.11 1286.47 1365.19 1286.47 1365.19L1284.68 1359.97C1283.36 1356.02 1282.82 1351.82 1283.26 1347.68C1283.52 1345.19 1284.06 1342.5 1285.09 1340.29C1287.81 1334.46 1279.25 1330.58 1276.85 1325.73C1275 1321.99 1274.91 1313.44 1272 1307.27L1268.52 1302.55C1268.52 1302.55 1260.5 1296.31 1252.66 1298.07C1244.84 1299.83 1245.96 1270.36 1261.86 1273.6Z" fill="#F7CC7F"/>
<path d="M1277.39 1332.9C1277.31 1337.82 1279.54 1341.84 1282.38 1341.89C1285.22 1341.94 1287.59 1337.99 1287.67 1333.07C1287.75 1328.15 1285.52 1324.13 1282.68 1324.08C1279.84 1324.04 1277.47 1327.98 1277.39 1332.9Z" fill="#F7A491"/>
<path d="M1263.47 1346.53L1247.94 1345.73C1247.94 1345.73 1247.99 1351.65 1254.81 1352.2C1263.13 1352.87 1263.47 1346.53 1263.47 1346.53Z" fill="white"/>
<path d="M1572.95 1150.62C1574.65 1157.58 1577.7 1168.59 1577.7 1168.59C1577.46 1171.62 1576.56 1184.21 1575.5 1199.64L1598.18 1190.56C1598.18 1190.56 1597.91 1165.41 1598.92 1163.87C1599.78 1162.57 1601.21 1164.19 1608.17 1154.24C1610.18 1151.37 1610.55 1146.24 1610.55 1146.24C1610.55 1146.24 1610.96 1139.92 1609.55 1139.34C1608.13 1138.75 1606.51 1139.69 1605.99 1140.79C1605.48 1141.88 1605.61 1144.42 1605.1 1145.52C1604.59 1146.61 1601.31 1147.93 1599.92 1147.86C1598.53 1147.79 1600.09 1129.18 1600.09 1129.18C1600.09 1129.18 1600.86 1123.9 1601.25 1122.17C1601.58 1120.7 1602.92 1116.38 1602.92 1116.38C1602.92 1116.38 1604.49 1110.11 1602.55 1109.64C1601.4 1109.36 1598.48 1114.45 1596.48 1119.85C1594.32 1125.67 1593.1 1131.84 1592.48 1131.75C1591.03 1131.56 1591.8 1121.35 1591.8 1121.35C1591.8 1121.35 1593.24 1116.67 1593.21 1114.47C1594.57 1111.77 1595.48 1106.75 1593.08 1106.34C1592.64 1106.26 1589.47 1112.63 1589.47 1112.63C1589.47 1112.63 1588.23 1117.12 1587.5 1119.21C1586.22 1122.91 1586.03 1128.75 1585.36 1131.32C1584.81 1133.46 1584.3 1132.58 1584.07 1132.67C1583.89 1132.74 1584.2 1129.79 1584.56 1125.72C1584.74 1123.68 1584.5 1121.32 1585.07 1118.99C1585.6 1116.83 1585.9 1113.75 1586.04 1111.88C1586.43 1106.6 1583.1 1107.14 1581.96 1111.97C1581.52 1113.81 1581.06 1115.81 1580.6 1117.85C1578.81 1125.76 1578.86 1133.39 1578.01 1133.45C1576.9 1133.53 1577.63 1119.65 1577.63 1119.65C1577.63 1119.65 1575.93 1111.97 1574.24 1119.1C1572.28 1127.38 1572.49 1134.12 1572.51 1134.42C1572.71 1136.44 1571.25 1143.66 1572.95 1150.62Z" fill="#F8A492"/>
<path d="M1813.72 1132.28C1812.02 1139.24 1808.97 1150.25 1808.97 1150.25C1809.21 1153.28 1810.11 1165.87 1811.17 1181.3L1788.49 1172.22C1788.49 1172.22 1788.76 1147.07 1787.75 1145.53C1786.89 1144.23 1785.46 1145.85 1778.5 1135.9C1776.49 1133.03 1776.12 1127.9 1776.12 1127.9C1776.12 1127.9 1775.71 1121.58 1777.12 1121C1778.54 1120.41 1780.16 1121.35 1780.68 1122.45C1781.2 1123.55 1781.06 1126.08 1781.57 1127.17C1782.08 1128.26 1785.36 1129.58 1786.75 1129.51C1788.14 1129.44 1786.58 1110.83 1786.58 1110.83C1786.58 1110.83 1785.81 1105.55 1785.42 1103.82C1785.09 1102.35 1783.75 1098.03 1783.75 1098.03C1783.75 1098.03 1782.18 1091.77 1784.12 1091.29C1785.27 1091.01 1788.19 1096.1 1790.19 1101.5C1792.35 1107.32 1793.57 1113.49 1794.19 1113.4C1795.64 1113.21 1794.87 1103 1794.87 1103C1794.87 1103 1793.43 1098.32 1793.46 1096.12C1792.1 1093.42 1791.19 1088.4 1793.59 1087.99C1794.03 1087.91 1797.2 1094.28 1797.2 1094.28C1797.2 1094.28 1798.44 1098.77 1799.17 1100.86C1800.45 1104.56 1800.64 1110.4 1801.31 1112.97C1801.86 1115.11 1802.37 1114.23 1802.6 1114.32C1802.78 1114.39 1802.47 1111.44 1802.11 1107.37C1801.93 1105.32 1802.17 1102.97 1801.6 1100.64C1801.07 1098.48 1800.77 1095.4 1800.63 1093.53C1800.24 1088.25 1803.56 1088.79 1804.71 1093.62C1805.15 1095.46 1805.61 1097.46 1806.07 1099.5C1807.86 1107.41 1807.81 1115.04 1808.66 1115.1C1809.77 1115.18 1809.04 1101.3 1809.04 1101.3C1809.04 1101.3 1810.74 1093.62 1812.43 1100.75C1814.39 1109.02 1814.18 1115.77 1814.16 1116.07C1813.95 1118.09 1815.41 1125.31 1813.72 1132.28Z" fill="#F8A492"/>
<path d="M1751.67 1723.96C1751.67 1723.96 1764.25 1739.55 1767.38 1741.47C1770.51 1743.39 1765.98 1766.05 1757.45 1767.53C1752.64 1768.37 1749.97 1763.07 1749.97 1763.07L1751.35 1756.54L1733.38 1738.03L1751.67 1723.96Z" fill="#F7A491"/>
<path d="M1686.87 1727.82C1686.87 1727.82 1697.35 1744.89 1700.22 1747.2C1703.08 1749.5 1695.69 1771.4 1687.04 1771.78C1682.16 1772 1680.19 1766.4 1680.19 1766.4L1682.39 1760.1L1666.93 1739.44L1686.87 1727.82Z" fill="#F7A491"/>
<path d="M1699.59 1746.52C1699.59 1746.52 1693.57 1754.2 1690.28 1757.25C1686.04 1761.2 1680.61 1765.05 1680.61 1765.05C1680.61 1765.05 1674.46 1776.22 1672.78 1780.11C1669.04 1788.78 1664.83 1798.45 1665.44 1803.3C1665.64 1804.86 1669.14 1806.51 1672.06 1805.61C1684.21 1801.87 1715.27 1773.46 1719.2 1765.83C1723.71 1757.05 1699.59 1746.52 1699.59 1746.52Z" fill="#13375B"/>
<path d="M1610.92 1486.48C1612.05 1483.32 1613.13 1480.4 1614.18 1477.65C1627.1 1480.47 1641.7 1483.57 1656.71 1486.77L1658.54 1541.8C1658.53 1537.55 1647.25 1629.58 1647.25 1629.58C1647.25 1629.58 1676.42 1694.17 1696.38 1731.82C1688.19 1742.04 1684.35 1745.33 1672.49 1752.3C1641.51 1715.17 1600.98 1647.22 1599.29 1635.92C1598.32 1629.42 1597.45 1524.37 1610.92 1486.48Z" fill="#3C8F7C"/>
<path d="M1726.25 1502.39C1722.3 1545.27 1713.52 1627.25 1714.26 1633.85C1716.46 1642.07 1755.51 1717.93 1762.54 1728.97C1756.96 1737.37 1748.32 1746.46 1739.03 1748.97C1737.2 1749.47 1672.76 1657.76 1669.24 1650.48C1665.27 1642.25 1658.65 1597.37 1658.53 1541.8L1656.7 1486.77C1681.72 1492.11 1704.72 1497.34 1726.25 1502.39Z" fill="#50BFA5"/>
<path d="M1644.1 1306.92L1673.55 1310.96C1673.55 1310.96 1697.1 1311.39 1700.02 1311.39C1702.94 1311.39 1721.49 1418.96 1726.84 1459.38C1732.19 1499.81 1728.05 1506.96 1728.05 1506.96C1728.05 1506.96 1690.72 1515.36 1663.09 1512.91C1634.37 1510.36 1602.05 1494.86 1602.05 1494.86C1602.05 1494.86 1626.6 1417.18 1631.47 1392.92C1636.34 1368.66 1644.1 1306.92 1644.1 1306.92Z" fill="#355389"/>
<path d="M1572.7 1176.8C1572.7 1176.8 1570.81 1256.89 1573.83 1263.01C1578.22 1271.92 1627.67 1335.11 1627.67 1335.11C1627.67 1335.11 1604.05 1433.96 1594.12 1468.09C1593.12 1471.53 1588.69 1493.73 1588.69 1495.9C1588.69 1500.7 1609.58 1506.79 1612.07 1506.43C1614.29 1506.11 1632.52 1412.08 1644.16 1366.07C1648.1 1350.48 1654.87 1335.75 1664.12 1322.6L1672.21 1311.1L1610.09 1248.84C1610.09 1248.84 1602.43 1179.54 1602.43 1173.79C1602.45 1172.28 1575.72 1171.15 1572.7 1176.8Z" fill="#86B1F2"/>
<path d="M1699.01 1311.4L1776.47 1232.47C1776.47 1232.47 1787.26 1157.83 1788.03 1155.02C1788.78 1152.26 1808.02 1150.77 1815.77 1150.01C1818.26 1149.77 1814.47 1229.51 1810.76 1242.87C1806.38 1258.66 1747.83 1330.6 1747.83 1330.6C1747.83 1330.6 1737.34 1369.57 1739.86 1398.15C1744.06 1445.62 1755.37 1510.93 1753.35 1512.97C1740.76 1520.9 1692.45 1521.75 1689.39 1516.82C1655.62 1462.45 1699.01 1311.4 1699.01 1311.4Z" fill="#86B1F2"/>
<path d="M1766.67 1740.89C1766.67 1740.89 1761.68 1749.27 1758.81 1752.73C1755.11 1757.18 1750.21 1761.7 1750.21 1761.7C1750.21 1761.7 1745.54 1773.56 1744.37 1777.64C1741.77 1786.72 1738.82 1797.68 1740.05 1802.42C1740.44 1803.94 1743.79 1806.85 1746.55 1805.05C1757.2 1798.11 1785.67 1765.62 1788.58 1757.56C1791.94 1748.25 1766.67 1740.89 1766.67 1740.89Z" fill="#13375B"/>
<path d="M1675.72 1208.56C1679.01 1208.68 1682.31 1208.65 1685.6 1208.36C1689.31 1208.03 1694.05 1207.79 1696.77 1208.37C1702.5 1209.58 1711.59 1213.64 1714.62 1221.15C1718.4 1230.5 1731.91 1229.11 1715.9 1264.59C1697.78 1304.75 1676.61 1291.6 1676.32 1290.7C1676.03 1289.8 1665.85 1256.68 1665.85 1256.68C1665.85 1256.68 1653.18 1269.24 1653.39 1268.68C1653.6 1268.14 1636.15 1207.13 1675.72 1208.56Z" fill="#0E2E35"/>
<path d="M1673.95 1296.38L1671.84 1312.09C1671.84 1312.09 1667.11 1334.73 1673.19 1339.09C1679.27 1343.45 1699.06 1311.44 1699.06 1311.44L1696.97 1271.63L1673.95 1296.38Z" fill="#F7A491"/>
<path d="M1697.64 1284.54C1692.62 1298.12 1680.65 1306.47 1672.15 1309.71L1673.94 1296.39L1696.96 1271.64L1697.64 1284.54Z" fill="#F47458"/>
<path d="M1690.09 1226.61C1678.76 1220.11 1664.29 1225.73 1660.03 1237.91C1658.18 1243.21 1656.14 1249.92 1654.57 1257.39C1650.79 1275.35 1656.72 1294.66 1664.88 1296.22C1673.04 1297.78 1697.82 1290.41 1703.55 1264.98C1707.08 1249.27 1701.97 1233.42 1690.09 1226.61Z" fill="#F7A491"/>
<path d="M1697.15 1265.85C1696.39 1269.83 1698.4 1273.55 1701.64 1274.17C1704.88 1274.79 1708.13 1272.07 1708.89 1268.09C1709.65 1264.11 1707.64 1260.39 1704.4 1259.77C1701.16 1259.15 1697.91 1261.87 1697.15 1265.85Z" fill="#F7A491"/>
<path d="M1704.4 1259.77C1704.4 1259.77 1694.28 1258.58 1693.09 1251.33C1691.9 1244.08 1684.47 1226.6 1666.84 1226.03C1649.22 1225.46 1685.47 1218.27 1686.72 1218.74C1687.97 1219.21 1703 1224.76 1703 1224.76C1703 1224.76 1710.97 1238.63 1710.99 1239.83C1711.01 1241.03 1710.05 1253.67 1710.05 1253.67L1704.4 1259.77Z" fill="#0E2E35"/>
<path d="M1678.09 1278.21L1660.03 1275.07C1660.03 1275.07 1659.24 1282.02 1667.14 1283.63C1676.78 1285.6 1678.09 1278.21 1678.09 1278.21Z" fill="white"/>
<path d="M765.351 1351.72C766.031 1354.07 766.421 1354.84 767.291 1356.42C772.871 1366.58 785.831 1381.09 785.831 1381.09L795.851 1358.51C795.851 1358.51 794.221 1351.42 791.381 1341.28C781.711 1343.81 772.491 1345.28 765.351 1351.72Z" fill="#F8A492"/>
<path d="M822.811 1332.14C822.811 1332.14 766.91 1356.21 765.1 1355.75C763.94 1355.45 742.17 1319.02 741.94 1284.76C741.83 1268.94 758.27 1249.9 776.6 1253.67C785.83 1255.57 785.691 1258.13 799.341 1277.98C813.001 1297.82 822.811 1332.14 822.811 1332.14Z" fill="#13375B"/>
<path d="M870.531 1763.73C870.531 1763.73 869.2 1785.68 869.2 1785.73C868.71 1788.52 866.791 1795.4 866.791 1797.94C866.791 1807.46 911.99 1789.86 901.86 1785.64C900.94 1785.26 896.14 1782.37 895.84 1779.13C895.38 1774.14 894.2 1764.04 894.2 1764.04L870.531 1763.73Z" fill="#F7A491"/>
<path d="M901.75 1785.55C901.75 1785.55 891.14 1788.46 885.7 1789.19C880.26 1789.92 873.1 1783.79 869.25 1785.44C865.02 1787.26 865.18 1803.67 865.18 1803.67C865.18 1803.67 922.09 1808.34 938.09 1803.51C944.44 1801.59 923.45 1792.33 901.75 1785.55Z" fill="#DD513A"/>
<path d="M778.06 1763.73C778.06 1763.73 776.73 1785.68 776.73 1785.73C776.24 1788.52 774.32 1795.4 774.32 1797.94C774.32 1807.46 819.52 1789.86 809.39 1785.64C808.47 1785.26 802.24 1780.21 801.94 1776.97C801.48 1771.98 801.72 1764.03 801.72 1764.03L778.06 1763.73Z" fill="#F7A491"/>
<path d="M809.28 1785.55C809.28 1785.55 798.67 1788.46 793.23 1789.19C787.79 1789.92 780.63 1783.79 776.78 1785.44C772.55 1787.26 772.38 1803.67 772.38 1803.67C772.38 1803.67 829.55 1809.11 845.63 1803.51C851.88 1801.33 830.98 1792.33 809.28 1785.55Z" fill="#DD513A"/>
<path d="M791.88 1363.89L831.69 1308.12C831.86 1307.63 832.22 1306.63 832.77 1305.11C834.78 1299.58 838.95 1288.06 842.58 1276.6L842.62 1276.48C843.76 1272.48 846.18 1265.49 848.52 1258.73C851.12 1251.22 854.35 1241.9 854.46 1240.31C854.36 1240.04 854.17 1239.55 853.92 1238.9C852.46 1235.11 850.49 1226.09 849.79 1222.16C849.35 1219.66 848.9 1213.59 851.87 1213.59C856.54 1213.59 854.31 1219.66 856.47 1223.44C857.26 1220.91 858.86 1215.89 859.71 1210.8L860.49 1198.94C860.64 1198.05 859.69 1191.5 862.96 1191.5L863.12 1191.51C866.06 1191.72 866 1198.68 867.22 1210.44C867.61 1209.09 867.99 1207.45 868.29 1205.95C868.26 1205.15 868.84 1201.61 869.29 1199.74C868.7 1196.46 869.04 1191.29 872.53 1191.78C874.28 1192.03 874.13 1199.24 874.13 1199.24C874.11 1200.23 874.01 1207.86 874.06 1209.36C874.42 1206.8 875.82 1195.88 878.56 1195.88C880.83 1195.88 881.01 1198.82 880.97 1201.14C880.94 1202.52 879.52 1214.34 879.44 1215.72C880.51 1213.93 881.78 1203.5 882.84 1203.5C887.27 1203.5 885.67 1218.32 884.04 1222.18C883.89 1222.57 883.72 1223.35 883.54 1224.25C882.99 1226.89 882.06 1231.31 879.74 1235.28C876.96 1240.04 873.12 1247.6 872.54 1248.76C872.11 1251.12 870.78 1259.62 869.1 1270.3C868.38 1274.87 867.6 1279.89 866.78 1285.08L866.74 1285.07C866.59 1286.19 865.76 1289.77 862.61 1303.17C858.3 1321.52 857.85 1322.31 857.66 1322.65C855.79 1325.96 812.86 1384.25 811.04 1386.73L809.96 1388.19L791.88 1363.89Z" fill="#F7A491"/>
<path d="M865.93 1233.82C865.93 1233.82 862.7 1225.56 856.95 1225.54C856.95 1225.54 860.16 1224.38 862.92 1226.56C865.67 1228.74 865.93 1233.82 865.93 1233.82Z" fill="#F47458"/>
<path d="M782.261 1217.85L777.141 1250.26C777.141 1250.26 796.671 1265.94 808.051 1262.63C817.601 1259.85 811.051 1247.37 811.051 1247.37C811.051 1247.37 805.961 1230.07 807.521 1221C809.081 1211.93 782.261 1217.85 782.261 1217.85Z" fill="#F7A491"/>
<path d="M785.94 1227.65C790.83 1229.96 800.511 1233.11 808.041 1233.88C807.321 1229.34 806.911 1224.55 807.521 1221C808.241 1216.81 802.91 1215.82 796.97 1215.97C789.19 1216.64 782.26 1217.85 782.26 1217.85L781.271 1224.08C782.751 1225.64 784.31 1226.88 785.94 1227.65Z" fill="#FE875E"/>
<path d="M757.62 1180.46C756.81 1180.46 765.34 1216.67 778.53 1222.9C791.72 1229.13 811.4 1225.88 815.09 1216.13C819.17 1205.34 804.28 1168.41 785.72 1163.71C767.16 1159.02 757.62 1180.46 757.62 1180.46Z" fill="#F7A491"/>
<path d="M772.88 1147.2C762.34 1153.28 757.5 1162.29 755.88 1165.99C750.93 1168.34 744.95 1173.41 742.08 1187.09C738.55 1203.91 751.11 1216.87 764.42 1220.77C777.73 1224.67 779.79 1233.48 779.79 1233.48L781.3 1224C781.3 1224 778.34 1215.74 773.88 1211.61C769.43 1207.48 775.99 1201.46 776.57 1196.55C777.01 1192.77 774.23 1185.43 774.83 1179.22C774.83 1179.22 782.23 1168.01 789.52 1165.24C801.96 1160.51 786.4 1139.4 772.88 1147.2Z" fill="#13375B"/>
<path d="M778.49 1202.85C780.21 1207.03 779.51 1211.18 776.92 1212.12C774.33 1213.06 770.83 1210.43 769.1 1206.25C767.38 1202.07 768.08 1197.92 770.67 1196.98C773.27 1196.04 776.77 1198.67 778.49 1202.85Z" fill="#F7A491"/>
<path d="M827.63 1364.79L904.42 1352.27C904.42 1352.27 895.68 1330.27 892.56 1330.27C889.44 1330.27 834.49 1354.26 834.49 1354.26L830.12 1363.04L827.63 1364.79Z" fill="#F8A492"/>
<path d="M788.3 1417.44C788.3 1417.44 780.64 1454.47 783.76 1482.56C786.88 1510.64 787.13 1610.39 787.13 1610.39L775.22 1770L803.49 1770.62C803.49 1770.62 837.01 1611.09 836.38 1615.19C835.76 1619.28 847.62 1502.87 847.62 1502.87L807.66 1413.95L788.3 1417.44Z" fill="#184655"/>
<path d="M795.79 1415.68C795.79 1415.68 790.79 1449.03 797.04 1463.65C803.28 1478.27 850.59 1621.78 851.22 1633.48C851.84 1645.18 867.58 1774.51 867.58 1774.51L900.45 1773.59L907.561 1629.8L892.671 1449.09L878.21 1403.4L795.79 1415.68Z" fill="#13375B"/>
<path d="M777.141 1250.26C777.141 1250.26 785.241 1255.58 792.801 1254.96C800.361 1254.34 811.051 1247.37 811.051 1247.37L809.561 1242.33C809.561 1242.33 790.001 1239.48 789.511 1239.79C789.021 1240.1 777.141 1250.26 777.141 1250.26Z" fill="#F7A491"/>
<path d="M863.521 1329.18C863.521 1329.18 892.571 1356.59 905.681 1351.91C918.791 1347.23 924.22 1331.23 892.23 1307.83C863.59 1286.88 863.521 1329.18 863.521 1329.18Z" fill="#F8A492"/>
<path d="M883.2 1363.03C878.89 1339.55 847.61 1266.5 845.11 1253.05C843.9 1246.51 827.03 1246.36 810.96 1247.22C793.99 1248.12 777.13 1250.27 777.13 1250.27C777.13 1250.27 762.11 1252.74 755.5 1258.93C748.89 1265.12 747.13 1282.25 756.64 1314.77C764.14 1340.44 773.44 1354.53 778.04 1373.23C778.97 1379.5 779.77 1385.69 780.83 1392.92C782.52 1420.88 780.81 1457.81 780.81 1457.81C780.81 1457.81 862.6 1474.78 893.19 1449.03C893.19 1449.03 887.62 1387.08 883.2 1363.03Z" fill="#355389"/>
<path d="M904.06 1312.55C904.06 1312.55 871.97 1339.04 870.09 1339.04C868.88 1339.04 824.29 1306.24 814 1279.29C808.31 1264.39 820.25 1247.72 833.88 1247.78C843.33 1247.82 847.53 1250.25 866.26 1266.05C884.99 1281.84 904.06 1312.55 904.06 1312.55Z" fill="#466EB6"/>
<path d="M1036.25 728.311C1028.4 723.011 1020.36 717.991 1012.62 712.541C1011.21 711.541 1009.96 709.001 1010.12 707.301C1011.14 696.381 1012.78 685.511 1013.73 674.591C1014 671.411 1014.72 669.741 1017.78 668.551C1028.53 664.351 1039.16 659.861 1049.83 655.461C1051.56 654.751 1053.26 653.971 1056.25 652.681C1051.15 636.301 1046.12 620.111 1040.95 603.511C1027.21 606.241 1014.69 608.511 1002.27 611.301C997.891 612.281 995.51 611.781 992.69 607.721C986.93 599.431 980.02 591.941 973.82 583.941C972.87 582.711 972.461 580.241 973.01 578.811C977.23 567.891 981.441 556.941 986.311 546.311C988.651 541.211 987.481 538.461 982.911 536.081C981.151 535.171 979.72 533.621 978.141 532.361C970.251 528.121 962.35 523.871 954.46 519.631C953.47 519.431 952.41 519.391 951.49 519.011C941.86 515.071 943.72 515.151 938.25 523.191C931.59 532.981 925.09 542.891 919.38 551.451C904.63 550.071 890.84 548.781 876.6 547.451C871.21 534.371 865.581 520.691 859.911 506.931C842.531 509.271 826.561 514.741 810.891 522.171C813.601 535.681 816.201 548.851 818.911 562.011C819.401 564.371 819.25 565.801 816.94 567.531C807.88 574.311 798.98 581.321 790.41 588.701C787.94 590.831 786.351 590.841 783.701 589.721C772.741 585.111 761.681 580.761 750.711 576.201C747.981 575.071 746.221 575.151 744.201 577.821C735.14 589.781 728.971 603.161 723.901 617.161C722.901 619.931 724.23 621.131 726.32 622.491C736 628.781 745.53 635.311 755.25 641.531C758.05 643.321 758.91 644.871 758.35 648.491C756.42 661.001 755.21 673.621 753.61 687.211C741.72 692.111 728.22 697.671 714.73 703.231C717.04 720.941 721.79 737.331 729.63 752.951C744.35 749.921 758.681 746.981 771.651 744.311C779.741 753.641 787.04 762.501 794.88 770.861C797.84 774.021 798.371 776.401 796.641 780.301C792.021 790.691 787.81 801.261 783.54 811.801C782.7 813.881 781.04 816.311 784.29 818.031C797.52 825.011 810.74 832.011 823.97 838.991C826.78 840.471 828.561 839.531 830.26 836.881C836.59 827.021 843.361 817.441 849.521 807.491C851.901 803.651 854.45 803.501 858.44 804.041C868.29 805.361 878.21 806.501 888.13 806.721C892.4 806.821 893.971 807.931 895.411 811.731C900.041 823.941 905.16 835.971 909.99 847.821C920.58 847.821 949.43 838.781 959.83 832.321C957.11 819.321 954.49 806.151 951.51 793.061C950.76 789.791 951.74 788.381 954.24 786.411C962.32 780.051 969.95 773.121 977.97 766.681C979.32 765.601 982.06 765.001 983.6 765.601C993.38 769.431 1003.03 773.601 1012.68 777.771C1018.07 780.101 1020.24 781.061 1022.31 779.681L1044.9 737.661C1044.95 734.211 1042.6 732.601 1036.25 728.311ZM952.291 713.581C932.101 751.141 885.28 765.211 847.72 745.021C810.16 724.821 796.091 678.011 816.281 640.451C836.471 602.891 883.29 588.821 920.85 609.011C958.41 629.201 972.491 676.021 952.291 713.581Z" fill="#CAE1F9"/>
<path d="M643.27 908.19C630.57 909.43 617.92 911.11 605.2 912.09C602.88 912.27 599.39 910.69 598.11 908.8C589.79 896.59 582.18 883.9 573.78 871.74C571.34 868.2 570.65 865.86 572.8 862C580.35 848.42 587.54 834.63 594.84 820.91C596.02 818.69 597.13 816.42 599.12 812.51C579.77 799.88 560.64 787.39 541.03 774.59C529.11 789.21 518.06 802.33 507.56 815.87C503.86 820.65 500.95 822.17 494.54 820.37C481.44 816.7 467.84 814.86 454.54 811.88C452.5 811.42 449.95 809.2 449.3 807.24C444.31 792.28 439.28 777.31 435.21 762.08C433.26 754.77 429.69 752.92 422.9 754.38C420.29 754.94 417.48 754.56 414.76 754.61C402.92 756.98 391.08 759.35 379.25 761.71C378.05 762.36 376.92 763.22 375.64 763.62C362.26 767.8 364.26 766.29 365.48 779.33C366.97 795.22 368.72 811.08 370.14 824.86C353.64 836.09 338.22 846.59 322.29 857.42C305.46 848.46 287.88 839.1 270.19 829.68C254.16 847.02 242.27 866.41 232.38 887.57C246.78 899.27 260.8 910.71 274.9 922.05C277.43 924.09 278.51 925.69 277.59 929.48C274 944.29 270.78 959.22 268.22 974.23C267.48 978.56 265.84 979.93 262.13 981.05C246.8 985.67 231.58 990.64 216.27 995.33C212.47 996.49 210.7 998.09 210.9 1002.6C211.76 1022.79 216.84 1041.98 223.59 1060.86C224.93 1064.6 227.34 1064.7 230.68 1064.31C246.13 1062.53 261.62 1061.13 277.06 1059.25C281.51 1058.71 283.72 1059.58 286.25 1063.81C294.98 1078.46 304.56 1092.59 314.55 1108.08C306.41 1123.37 297.17 1140.73 287.93 1158.08C305.52 1174.48 324.52 1187.42 346.08 1196.91C358.77 1181.13 371.12 1165.78 382.3 1151.88C398.71 1154.62 413.89 1157.56 429.2 1159.5C434.99 1160.23 437.58 1162.25 439.12 1167.79C443.24 1182.54 447.94 1197.13 452.56 1211.73C453.47 1214.62 453.83 1218.56 458.68 1217.55C478.41 1213.45 498.14 1209.37 517.86 1205.26C522.05 1204.39 523.08 1201.88 522.58 1197.67C520.7 1182 519.5 1166.25 517.35 1150.62C516.52 1144.59 519.05 1142.24 523.65 1139.38C535.01 1132.3 546.28 1124.96 556.77 1116.69C561.29 1113.12 563.87 1112.94 568.63 1115.64C583.92 1124.34 599.56 1132.44 614.74 1140.6C625.73 1131.51 647.93 1097.36 653.18 1081.73C639.2 1070.57 625.17 1059.14 610.84 1048.11C607.25 1045.35 607.06 1043.06 607.97 1038.86C610.9 1025.32 612.88 1011.58 615.68 998.01C616.15 995.73 618.48 992.76 620.6 992.06C634.04 987.64 647.64 983.69 661.24 979.74C668.84 977.53 671.92 976.67 672.87 973.45L660.27 910.44C657.36 906.85 653.54 907.19 643.27 908.19ZM543.45 964.95C554.72 1021.28 518.19 1076.07 461.86 1087.33C405.54 1098.6 350.74 1062.07 339.48 1005.74C328.21 949.42 364.74 894.62 421.07 883.36C477.39 872.1 532.18 908.62 543.45 964.95Z" fill="#9BC1F9"/>
<path opacity="0.2" d="M616.87 580.68C611.78 578.27 606.61 576.03 601.57 573.52C600.65 573.06 599.69 571.67 599.63 570.66C599.25 564.15 599.25 557.61 598.83 551.1C598.71 549.21 598.98 548.16 600.67 547.19C606.61 543.76 612.46 540.17 618.35 536.64C619.3 536.07 620.24 535.46 621.88 534.43C617.42 525.26 613.02 516.18 608.5 506.88C600.67 509.71 593.5 512.16 586.45 514.91C583.96 515.88 582.52 515.79 580.5 513.66C576.38 509.3 571.64 505.51 567.28 501.36C566.61 500.72 566.15 499.3 566.35 498.41C567.86 491.61 569.35 484.8 571.27 478.11C572.19 474.9 571.26 473.39 568.36 472.4C567.25 472.02 566.27 471.24 565.23 470.64C560.21 468.85 555.19 467.06 550.17 465.27C549.57 465.24 548.94 465.31 548.37 465.17C542.36 463.71 543.45 463.59 540.96 468.81C537.92 475.16 534.98 481.57 532.39 487.11C523.59 487.61 515.37 488.09 506.88 488.57C502.54 481.36 498.01 473.82 493.45 466.24C483.44 469.16 474.54 473.81 465.99 479.57C468.79 487.27 471.5 494.78 474.26 502.28C474.76 503.62 474.8 504.48 473.59 505.7C468.87 510.49 464.26 515.41 459.88 520.52C458.62 521.99 457.68 522.14 456.02 521.72C449.17 519.99 442.27 518.42 435.42 516.71C433.72 516.29 432.69 516.49 431.74 518.24C427.48 526.08 425.04 534.5 423.31 543.18C422.97 544.9 423.86 545.48 425.21 546.1C431.46 548.94 437.65 551.92 443.92 554.72C445.73 555.52 446.37 556.36 446.36 558.53C446.34 566.06 446.76 573.58 447.02 581.72C440.46 585.66 433.03 590.13 425.59 594.6C428.53 604.81 432.78 614.02 438.79 622.51C447.18 619.42 455.34 616.41 462.73 613.68C468.32 618.44 473.4 623 478.76 627.22C480.78 628.81 481.3 630.16 480.63 632.61C478.84 639.13 477.31 645.72 475.74 652.3C475.43 653.6 474.67 655.17 476.73 655.89C485.13 658.82 493.53 661.75 501.93 664.67C503.72 665.29 504.67 664.58 505.44 662.87C508.28 656.51 511.41 650.27 514.14 643.87C515.2 641.4 516.69 641.08 519.08 641.04C524.99 640.94 530.92 640.72 536.77 639.97C539.29 639.65 540.31 640.16 541.5 642.27C545.31 649.04 549.39 655.65 553.29 662.19C559.52 661.24 575.67 653.35 581.21 648.63C578.45 641.23 575.74 633.72 572.81 626.29C572.08 624.43 572.52 623.52 573.82 622.13C578.01 617.67 581.87 612.92 586.02 608.41C586.72 607.65 588.27 607.06 589.23 607.27C595.32 608.65 601.37 610.24 607.41 611.83C610.79 612.72 612.15 613.09 613.24 612.09L622.78 585.37C622.5 583.37 620.98 582.63 616.87 580.68ZM566.19 579.5C557.67 603.38 531.4 615.83 507.51 607.31C483.63 598.79 471.18 572.51 479.7 548.63C488.22 524.75 514.49 512.3 538.38 520.82C562.26 529.35 574.71 555.62 566.19 579.5Z" fill="#9BC1F9"/>
<path d="M536.03 1796.49L520.92 1796.43C522.91 1730.49 524.67 1630.35 521.34 1624.73C521.35 1624.75 521.56 1625.09 522.35 1625.49L534.61 1622.29C536.59 1623.29 537.79 1623.89 538.2 1651.93C538.41 1666.36 538.33 1686.29 537.96 1711.16C537.33 1753.49 536.05 1796.06 536.03 1796.49Z" fill="#355389"/>
<path d="M580.31 1795.68H478.36C473.66 1795.68 469.86 1799.49 469.86 1804.18C469.86 1805 470.53 1805.67 471.35 1805.67H587.33C588.15 1805.67 588.82 1805 588.82 1804.18C588.81 1799.49 585 1795.68 580.31 1795.68Z" fill="#355389"/>
<path d="M534.38 1787.3H521.9C518.21 1787.3 515.21 1790.3 515.21 1793.99C515.21 1797.69 518.21 1800.68 521.9 1800.68H534.39C538.08 1800.68 541.08 1797.68 541.08 1793.99C541.07 1790.29 538.08 1787.3 534.38 1787.3Z" fill="#355389"/>
<path d="M172.91 1504.89H166.88V1805.48H172.91V1504.89Z" fill="#13375B"/>
<path d="M476.961 1338.58C476.411 1325.22 478.371 1312.03 484.351 1299.59C489.491 1288.89 502.221 1282.82 513.821 1282.8C550.671 1282.75 555.351 1331.43 578.801 1350.21C585.971 1355.95 593.981 1360.62 600.761 1366.81C625.801 1389.66 614.521 1431.95 591.531 1451.99C575.571 1465.89 550.501 1473.79 530.831 1462.92C520.561 1457.25 512.771 1447.82 507.221 1437.49C499.341 1422.83 494.261 1405.91 488.661 1390.28C482.691 1373.65 477.701 1356.34 476.961 1338.58Z" fill="#13375B"/>
<path d="M375.31 1478.56L455.49 1456.21C455.49 1456.21 472.38 1433.52 494.11 1403.08C501.22 1410.11 505.16 1420.92 512.32 1427.88L459.25 1486.58C457.34 1488.7 454.62 1489.91 451.76 1489.92L378.08 1490.17L352.87 1492.18V1476.04L375.31 1478.56Z" fill="#F48C7F"/>
<path d="M490.74 1461.54C490.74 1461.54 518.26 1433.32 525.34 1421.07C532.42 1408.81 520.52 1416.79 508.36 1413.57C503.76 1412.35 504.92 1385.37 496.22 1394.14C481.94 1408.53 463.99 1433.69 463.99 1433.69L490.74 1461.54Z" fill="#96D9C9"/>
<path d="M529.86 1381.75C529.86 1381.75 554.56 1376.87 565.82 1386.29C577.09 1395.71 563.41 1479.41 563.42 1493.29C563.43 1507.17 571.16 1546.37 571.16 1546.37C571.16 1546.37 496.31 1559.47 484.42 1538.64C484.42 1538.64 481.04 1459.27 481.54 1449.29C482.04 1439.31 493.14 1398.49 496.21 1394.12C499.28 1389.76 529.86 1381.75 529.86 1381.75Z" fill="#50BFA5"/>
<path d="M530.02 1343.55C530.02 1343.55 530.15 1344.29 530.38 1345.55C531.5 1351.58 535.81 1371.57 538.73 1377.07C542.25 1383.71 526.67 1404.9 511.68 1402.31C507.22 1401.54 515.45 1382.84 515.06 1380.86C514.3 1377.07 513.27 1371.9 512.22 1366.59C511.63 1363.6 511.03 1360.56 510.46 1357.71C508.86 1349.61 507.55 1342.98 507.55 1342.98L530.02 1343.55Z" fill="#F7A491"/>
<path d="M530.38 1345.54C530.15 1344.28 530.02 1343.54 530.02 1343.54L507.55 1342.98C507.55 1342.98 508.86 1349.61 510.46 1357.71C511.02 1360.54 511.62 1363.56 512.21 1366.54C515.68 1366.03 519.3 1364.35 522.94 1361.17C526.9 1357.71 529.5 1353.55 531.06 1349.11C530.78 1347.7 530.55 1346.48 530.38 1345.54Z" fill="#F47458"/>
<path d="M514.901 1292.59C514.901 1292.59 525.491 1291.37 532.131 1299.94C538.771 1308.51 545.92 1335 529.43 1349.41C512.94 1363.81 496.65 1347.51 494.24 1330.22C491.81 1312.92 490.881 1291.96 514.901 1292.59Z" fill="#F7A491"/>
<path d="M489.35 1329.96C491.32 1333.78 494.62 1335.89 496.73 1334.68C498.84 1333.47 498.95 1329.39 496.98 1325.58C495.01 1321.76 491.71 1319.65 489.6 1320.86C487.5 1322.06 487.38 1326.14 489.35 1329.96Z" fill="#F7A491"/>
<path d="M513.71 1289.76C513.71 1289.76 527.86 1314.95 537.98 1316.12C548.1 1317.29 549.43 1330.67 549.43 1330.67C549.43 1330.67 545.81 1299.82 535.79 1293.87C525.77 1287.92 513.71 1289.76 513.71 1289.76Z" fill="#13375B"/>
<path d="M535.321 1322.45C534.501 1326.92 536.151 1331.03 539.021 1331.61C541.891 1332.2 544.871 1329.05 545.701 1324.57C546.521 1320.1 544.871 1315.99 542.001 1315.4C539.141 1314.82 536.151 1317.97 535.321 1322.45Z" fill="#F7A491"/>
<path d="M440.12 1737.4C440.12 1737.4 462.84 1764.64 462.99 1767.01C463.14 1769.38 462.09 1795.25 459.39 1797.62C456.69 1799.99 448.75 1801.67 451.3 1804.34C453.23 1806.36 468.07 1805.92 477.9 1805.38C480.77 1805.22 484.37 1782.32 485.51 1778.95C487.16 1774.06 491.18 1763.05 489.68 1759.64C488.95 1757.98 485.45 1754.57 480.52 1751.38C475.33 1748.03 455.5 1720.43 455.5 1720.43L440.12 1737.4Z" fill="#F48C7F"/>
<path d="M480.18 1751.22C480.18 1751.22 464.92 1794.17 458.95 1796.25C457.36 1796.8 449.76 1798.2 448.32 1801.56C447.89 1802.57 448.32 1805.96 448.32 1805.96H480.12C480.12 1805.96 484.14 1787.03 485.73 1778.72C485.73 1778.72 494.15 1758.4 493.21 1756.56C492.28 1754.71 480.18 1751.22 480.18 1751.22Z" fill="#B75742"/>
<path d="M304.03 1750.48C304.03 1750.48 285.48 1776.6 287.11 1784.86C287.98 1789.28 291.88 1795.08 289.64 1799.24C287.41 1803.4 284.85 1804.45 284.85 1804.45L226.98 1805.38C223.83 1805.43 225.91 1803.41 228.45 1801.54C232.61 1798.49 235.97 1796.47 249.26 1790.05C250.13 1789.63 253.28 1787.63 254.42 1786.94C257.31 1785.18 260.2 1782.41 262.7 1779.64C266.86 1775.02 285.13 1737.4 285.13 1737.4L304.03 1750.48Z" fill="#F7A491"/>
<path d="M254.43 1786.93C269.74 1790.85 281.05 1788.18 287.38 1785.64C289.01 1790.26 291.18 1796.05 290.03 1799.39C288.63 1803.48 286.62 1804.4 284.86 1804.45C270.88 1804.82 233.65 1805.32 222.99 1805.45C221.5 1805.47 220.68 1803.73 221.64 1802.59C224.28 1799.44 253.29 1787.63 254.43 1786.93Z" fill="#B75742"/>
<path d="M371.14 1589.34C371.14 1589.34 394.11 1615.56 399.97 1619.71C405.83 1623.86 462.06 1727.41 462.06 1727.41L442.03 1742.04C442.03 1742.04 391.77 1679.38 368.17 1645.86C348.21 1617.52 355.56 1619.32 343.83 1602.07C337.37 1592.57 338.83 1579.73 347.35 1572.03C348.41 1571.07 349.56 1570.07 350.81 1569.03C368.18 1554.55 487.25 1538.26 487.25 1538.26L563.41 1545.72C563.41 1545.72 501.18 1589.36 498.86 1590.52C496.54 1591.68 412.93 1603.87 411.19 1603.87C409.46 1603.86 371.14 1589.34 371.14 1589.34Z" fill="#B75742"/>
<path d="M571.16 1546.37C571.16 1546.37 584.22 1585.56 564.63 1603.85C545.03 1622.14 428.62 1620.11 390.3 1620.11C390.3 1620.11 374.62 1663.08 372.88 1670.04C371.14 1677.01 295.08 1767 295.08 1767L274.18 1753.65C274.18 1753.65 356.05 1594.56 362.43 1587.59C368.82 1580.62 459.97 1552.75 482.62 1546.37C505.26 1539.99 571.16 1546.37 571.16 1546.37Z" fill="#F47458"/>
<path d="M419.691 1475.87L489.211 1460.49C489.211 1460.49 514.351 1428.19 538.501 1400.38C545.611 1407.41 549.551 1418.22 556.711 1425.18L503.641 1483.89C501.731 1486.01 499.011 1487.22 496.151 1487.23L422.471 1487.48L397.261 1489.49V1473.35L419.691 1475.87Z" fill="#F7A491"/>
<path d="M535.111 1458.85C535.111 1458.85 562.631 1430.64 569.711 1418.38C576.791 1406.12 571.541 1385.58 559.381 1382.36C547.221 1379.14 508.351 1430.99 508.351 1430.99L535.111 1458.85Z" fill="#96D9C9"/>
<path d="M276.871 1396.73H391.521C394.551 1396.73 397.291 1398.56 398.441 1401.37L433.741 1487.47H496.951C498.721 1487.47 500.151 1488.9 500.151 1490.67C500.151 1492.44 498.721 1493.87 496.951 1493.87H317.051C312.101 1493.87 307.621 1490.97 305.591 1486.45L270.041 1407.27C267.831 1402.32 271.451 1396.73 276.871 1396.73Z" fill="#B75742"/>
<path d="M338.601 1446.87C339.371 1450.74 342.751 1453.32 346.131 1452.65C349.521 1451.97 351.631 1448.29 350.861 1444.42C350.091 1440.55 346.711 1437.97 343.321 1438.64C339.941 1439.32 337.821 1443 338.601 1446.87Z" fill="white"/>
<path d="M509.03 1508.39H166.5C162.49 1508.39 159.24 1505.14 159.24 1501.13C159.24 1497.12 162.49 1493.87 166.5 1493.87H509.03C513.04 1493.87 516.29 1497.12 516.29 1501.13C516.29 1505.14 513.04 1508.39 509.03 1508.39Z" fill="#184655"/>
<path d="M508.521 1339.88L524.05 1339.08C524.05 1339.08 524 1345 517.18 1345.55C508.87 1346.22 508.521 1339.88 508.521 1339.88Z" fill="white"/>
<path d="M459.931 1624.13L466.941 1594.93C471.851 1574.51 489.931 1559.65 510.921 1558.8L599.771 1555.21L602.511 1546.17L510.561 1549.89C485.601 1550.9 464.091 1568.57 458.261 1592.86L450.811 1623.89C453.331 1623.98 456.411 1624.07 459.931 1624.13Z" fill="#355389"/>
<path d="M579.1 1608.58C579.1 1608.58 457.03 1610.67 444.3 1608.58C431.57 1606.49 426.07 1622.45 429.86 1630.8C433.65 1639.15 444.11 1642.39 459.49 1643.15C474.88 1643.91 602.9 1647.52 606.5 1644.1C609.45 1641.31 648.26 1508.63 662.38 1460.1C665.2 1450.4 659.64 1440.27 649.94 1437.42C640.29 1434.59 630.17 1440.06 627.25 1449.68L579.1 1608.58Z" fill="#184655"/>
<path d="M509.05 1504.89H503.021V1805.48H509.05V1504.89Z" fill="#13375B"/>
<path d="M507.55 1524.35H166.88V1527.58H507.55V1524.35Z" fill="#13375B"/>
<path d="M1416.08 58.52C1416.08 58.52 1460.34 87.17 1569.42 83.27C1569.42 83.27 1452.5 127.42 1406.79 134.25L1387.98 59.94L1416.08 58.52Z" fill="#E25A44"/>
<path d="M1436.94 95.9403C1436.94 95.9403 1428.01 116.86 1406.79 134.25L1396.99 95.5303L1397.62 76.8003L1436.94 95.9403Z" fill="#B75742"/>
<path d="M1268.72 16.1304C1268.72 16.1304 1396.53 7.49045 1416.4 14.7904L1436.94 95.9304C1436.94 95.9304 1364.19 89.6805 1293.32 113.32L1268.72 16.1304Z" fill="#F47458"/>
<path d="M1191.73 920.59C1191.73 920.59 1185.57 930.64 1186.13 933.62C1186.69 936.6 1194.09 968.1 1198.17 970.19C1202.25 972.27 1212.58 971.87 1210.26 975.96C1208.51 979.05 1190.04 983.16 1177.72 985.57C1174.12 986.27 1162.51 959.1 1160.05 955.3C1156.48 949.78 1148.08 937.43 1148.86 932.75C1149.24 930.47 1152.5 925.16 1157.6 919.68C1162.96 913.92 1166.76 903.15 1166.76 903.15L1191.73 920.59Z" fill="#F48C7F"/>
<path d="M1281.15 917.72C1281.15 917.72 1279.07 940.251 1279.07 940.301C1279.36 943.711 1279.26 952.35 1280.02 955.32C1282.85 966.51 1328.06 933.05 1315.5 930.96C1314.36 930.77 1310.25 928.001 1308.95 924.281C1306.95 918.551 1309.85 909.98 1309.85 909.98L1281.15 917.72Z" fill="#F7A491"/>
<path d="M1262.82 512.72C1262.82 512.72 1275.88 548.85 1276.02 549.4C1291.2 609.35 1332.73 723.45 1333.33 735.29C1334.78 764.18 1310.94 919.45 1310.94 919.45L1277.9 923.74L1277.18 745.25L1244.69 681.56L1189.1 553.48L1262.82 512.72Z" fill="#3C8F7C"/>
<path d="M1163.48 572.76L1166.29 609.43L1186.43 758.16L1159.5 915.33C1159.5 915.33 1173.53 933.66 1187.27 933.25L1250.34 762.92L1265.34 561.6L1252.72 520.91L1163.48 572.76Z" fill="#50BFA5"/>
<path d="M1157.96 919.37C1157.96 919.37 1190.24 967.66 1198.27 968.36C1200.4 968.54 1210.24 967.89 1213.06 971.6C1213.91 972.72 1215.71 978.31 1215.71 978.31L1175.21 989.97C1175.21 989.97 1164.26 964.86 1159.7 955.09C1159.7 955.09 1142.95 932.62 1143.52 930.05C1144.1 927.47 1157.96 919.37 1157.96 919.37Z" fill="#13375B"/>
<path d="M1278 961.06L1279.23 940.04C1279.23 940.04 1292.66 942.1 1298.51 939.71C1304.36 937.32 1315.34 930.9 1315.34 930.9C1341.57 932.74 1362.38 931.58 1360.4 938.91L1278 961.06Z" fill="#13375B"/>
<path d="M1340.68 390.79L1358.15 404.19C1361.52 401.6 1368.88 390.67 1373.64 387.27L1357.68 369.86C1356.36 368.9 1355.66 367.31 1355.81 365.69C1355.92 364.55 1356.08 363.46 1356.25 363.01C1356.75 361.63 1357.19 359.99 1357.69 358.62C1358.19 357.24 1354.89 354.48 1353.16 353.99C1351.43 353.5 1350.86 360.13 1350.11 362.11C1347.85 368.06 1345.12 384.35 1344.6 387.05L1340.68 390.79Z" fill="#F48C7F"/>
<path d="M1360.04 402.49C1355.13 397.26 1348.21 394.32 1343.08 388.88L1265.57 442.25C1265.57 442.25 1205.64 371.38 1173.1 396.49C1187.34 420.47 1204.51 443.45 1213.35 454.4C1233.25 479.04 1263.64 490.8 1269.57 488.08C1276.24 485.02 1358.29 404.6 1360.04 402.49Z" fill="#13375B"/>
<path d="M1021.01 225.1C1023.57 231.93 1028.01 242.68 1028.01 242.68C1028.13 245.77 1028.77 258.6 1029.58 274.32L1051.39 262.37C1051.39 262.37 1048.04 236.99 1048.88 235.32C1049.59 233.9 1051.24 235.37 1057.05 224.46C1058.73 221.31 1058.48 216.08 1058.48 216.08C1058.48 216.08 1058.13 209.65 1056.62 209.23C1055.12 208.81 1053.59 209.96 1053.2 211.13C1052.81 212.3 1053.26 214.85 1052.87 216.01C1052.48 217.17 1049.33 218.91 1047.93 219.01C1046.53 219.11 1045.82 200.11 1045.82 200.11C1045.82 200.11 1045.95 194.68 1046.14 192.89C1046.3 191.36 1047.12 186.83 1047.12 186.83C1047.12 186.83 1047.94 180.31 1045.92 180.06C1044.73 179.92 1042.4 185.42 1041.03 191.12C1039.56 197.26 1039.08 203.65 1038.45 203.64C1036.96 203.62 1036.49 193.21 1036.49 193.21C1036.49 193.21 1037.38 188.31 1037.07 186.09C1038.12 183.19 1038.42 178.01 1035.94 177.89C1035.48 177.87 1033.07 184.69 1033.07 184.69C1033.07 184.69 1032.36 189.37 1031.89 191.58C1031.05 195.47 1031.57 201.4 1031.21 204.08C1030.91 206.31 1030.3 205.48 1030.08 205.6C1029.91 205.69 1029.86 202.67 1029.72 198.52C1029.65 196.43 1029.12 194.08 1029.42 191.65C1029.69 189.41 1029.62 186.25 1029.53 184.35C1029.28 178.97 1025.99 179.92 1025.41 184.94C1025.19 186.85 1024.97 188.93 1024.76 191.05C1023.92 199.26 1024.91 206.96 1024.05 207.13C1022.94 207.35 1021.98 193.23 1021.98 193.23C1021.98 193.23 1019.32 185.67 1018.49 193.09C1017.52 201.69 1018.55 208.48 1018.62 208.78C1019.04 210.79 1018.45 218.27 1021.01 225.1Z" fill="#F8A492"/>
<path d="M1174.03 290.37C1174.03 290.37 1160.88 279.48 1153.3 295.58C1153.3 295.58 1145.58 292.4 1141.38 300.24C1141.38 300.24 1127.84 297.89 1127.04 317.8C1127.04 317.8 1120.17 317.34 1120.25 325.44C1120.33 333.54 1125.03 338.37 1125.03 338.37C1125.03 338.37 1121.6 341.66 1124.2 348.79C1126.41 354.86 1131.7 355.18 1131.7 355.18C1131.7 355.18 1134.37 365.54 1139.32 368.15C1144.27 370.76 1150.3 368.49 1150.3 368.49C1150.3 368.49 1152.64 374 1157.9 372.84C1163.16 371.69 1169.14 365.82 1175.38 367.38C1181.62 368.94 1196.79 364.66 1196.79 364.66C1196.79 364.66 1213.23 354.82 1205.88 337.7C1205.88 337.7 1214.01 328.35 1204.83 319.43C1204.83 319.43 1208.79 303.25 1196.15 295.52C1183.5 287.81 1174.03 290.37 1174.03 290.37Z" fill="#F47458"/>
<path d="M1211.25 402.28L1184.48 388.51C1184.48 388.51 1160.7 391.98 1157.75 392.34C1154.8 392.7 1149.25 503.49 1148.78 544.99C1148.31 586.49 1153.38 593.21 1153.38 593.21C1153.38 593.21 1192.13 597.13 1219.74 591.28C1248.45 585.2 1279.2 565.58 1279.2 565.58C1279.2 565.58 1244.9 490.09 1237.01 466.18C1229.13 442.26 1211.25 402.28 1211.25 402.28Z" fill="#F7CC7F"/>
<path d="M1158.81 392.06L1070.89 321.78C1070.89 321.78 1050.86 247.69 1049.74 244.94C1048.64 242.24 1029.02 243.09 1021.1 243.27C1018.56 243.33 1032.13 323.43 1037.52 336.48C1043.88 351.9 1111.83 417.43 1111.83 417.43C1111.83 417.43 1127.2 455.52 1128.14 484.71C1129.7 533.19 1126.25 600.55 1128.55 602.38C1142.24 608.85 1191.16 603.8 1193.65 598.45C1221.12 539.37 1158.81 392.06 1158.81 392.06Z" fill="#13375B"/>
<path d="M1182.16 374.11L1186.17 389.52C1186.17 389.52 1193.63 411.52 1188.07 416.61C1182.51 421.7 1158.85 392.18 1158.85 392.18L1156.14 352.23L1182.16 374.11Z" fill="#F7A491"/>
<path d="M1157.02 365.17C1163.69 378.1 1176.67 384.98 1185.56 387.18L1182.16 374.11L1156.14 352.22L1157.02 365.17Z" fill="#F47458"/>
<path d="M1120.49 329.17C1121.22 335.22 1125.25 339.7 1129.49 339.19C1133.73 338.68 1136.58 333.36 1135.84 327.31C1135.1 321.26 1131.08 316.78 1126.84 317.29C1122.6 317.8 1119.76 323.12 1120.49 329.17Z" fill="#F47458"/>
<path d="M1140.68 302.85C1141.1 306.32 1145.63 308.64 1150.79 308.01C1155.95 307.39 1159.79 304.06 1159.37 300.59C1158.95 297.12 1154.43 294.8 1149.26 295.43C1144.1 296.05 1140.26 299.37 1140.68 302.85Z" fill="#F47458"/>
<path d="M1165.16 308.82C1177 303.07 1191.15 309.69 1194.58 322.19C1196.07 327.62 1197.65 334.49 1198.71 342.08C1201.26 360.34 1193.94 379.29 1185.63 380.3C1177.32 381.31 1152.92 372.24 1148.95 346.36C1146.49 330.39 1152.74 314.85 1165.16 308.82Z" fill="#F7A491"/>
<path d="M1155.32 347.67C1155.81 351.71 1153.53 355.3 1150.23 355.7C1146.93 356.1 1143.86 353.15 1143.37 349.11C1142.88 345.07 1145.16 341.48 1148.46 341.08C1151.76 340.69 1154.83 343.64 1155.32 347.67Z" fill="#F7A491"/>
<path d="M1200.05 295.36C1209.46 301.12 1213.71 311.09 1209.56 317.62C1205.41 324.15 1194.42 324.78 1185.01 319.02C1175.61 313.26 1171.35 303.29 1175.5 296.76C1179.66 290.22 1190.65 289.6 1200.05 295.36Z" fill="#F47458"/>
<path d="M1178.29 303.65C1178.65 306.6 1175.37 309.43 1170.97 309.96C1166.57 310.49 1162.71 308.53 1162.35 305.57C1161.99 302.62 1165.27 299.79 1169.67 299.26C1174.07 298.73 1177.93 300.69 1178.29 303.65Z" fill="#F47458"/>
<path d="M1204.75 323.52C1205.21 327.32 1202.54 330.77 1198.78 331.22C1195.02 331.67 1191.6 328.96 1191.15 325.16C1190.69 321.36 1193.36 317.91 1197.12 317.46C1200.88 317.01 1204.29 319.72 1204.75 323.52Z" fill="#F47458"/>
<path d="M1233.57 418.75C1233.57 418.75 1270.73 506.59 1283.95 537.56C1285.38 540.91 1292.57 562.8 1292.83 564.99C1293.42 569.84 1273.05 578.55 1270.5 578.49C1268.22 578.43 1238.3 485.66 1220.92 440.6C1215.03 425.33 1206.39 411.27 1195.43 399.11L1186.99 392.14L1186.17 389.53C1186.17 389.52 1223.91 392.88 1233.57 418.75Z" fill="#13375B"/>
<path d="M1268.16 0.0645915L1261.5 1.75049L1412.95 600.016L1419.6 598.33L1268.16 0.0645915Z" fill="#13375B"/>
<path d="M1376.9 379.45C1376.66 378.13 1376.23 376.77 1375.69 375.42C1375.07 373.98 1374.06 372.24 1373.38 371.73C1372.94 371.41 1372.62 370.36 1372.21 369.29C1372.08 368.95 1371.9 368.62 1371.69 368.32C1371.69 368.31 1371.68 368.31 1371.68 368.3C1371.05 367.44 1370.26 366.71 1369.39 366.09C1368.56 365.5 1367.85 364.73 1366.93 363.42C1366.22 362.4 1365.28 361.53 1364.16 360.98C1363.06 360.44 1362.21 360.43 1361.82 361.11C1359.99 364.25 1350.85 374.27 1354.56 379.11C1357.66 383.16 1361.7 387.38 1362.53 389.3C1363.67 391.93 1367.69 391.75 1370.09 390.83C1374.6 389.12 1378.15 386.27 1376.9 379.45Z" fill="#F7A491"/>
<path d="M1240.56 263.41C1240.93 262.59 1242.17 262.45 1242.77 263.07C1243.73 264.07 1244.71 265.05 1245.69 266.04C1247.84 268.22 1247.86 268.38 1248.18 268.33C1248.95 268.21 1248.97 266.82 1248.93 266.31C1248.84 265.17 1248.47 264.05 1248.62 262.9C1248.91 260.66 1250.97 259.51 1252.81 261.01C1254.5 262.39 1256.12 263.87 1257.73 265.36C1257.86 262.91 1257.92 260.46 1258.08 258.02C1258.14 257.15 1259.02 256.77 1259.7 257.3C1261.2 258.48 1265.66 261.96 1267.13 263.11C1267.51 263.41 1269.12 265 1269.58 264.71C1269.99 264.45 1269.97 262.74 1270.01 262.36C1270.24 260.26 1270.35 259.53 1271.26 252.72C1271.37 251.91 1272.61 251.53 1273.14 252.16C1278.37 258.42 1279.16 257.76 1279.63 259.64C1279.74 260.06 1279.4 260.34 1279 260.31C1278 260.21 1277.76 260.11 1275.15 257.59C1274.47 256.94 1273.82 256.27 1273.17 255.58C1272.23 263.86 1272.19 265.97 1270.12 266.59C1268.68 267.02 1268.44 266.57 1260.03 259.96C1260.03 262.53 1259.87 265.09 1259.76 267.66C1259.72 268.64 1258.67 269.09 1257.92 268.48C1251.9 263.52 1251.94 263.15 1251.29 262.85C1251.27 262.84 1251.29 262.4 1251.18 263.04C1251 264.13 1252.03 266.48 1251.27 268.45C1250.6 270.18 1248.7 271.51 1246.86 270.61C1245.79 270.08 1245.5 269.56 1242.28 266.46C1241.32 268.45 1240.13 270.32 1238.63 272.16C1237.98 272.96 1237.45 273.4 1236.48 273.76C1235.69 274.05 1234.74 273.19 1235.01 272.37C1235.74 270.05 1237.84 269.5 1240.56 263.41Z" fill="#F47458"/>
<path d="M1212.85 233.04C1215.12 233.43 1217.3 233.64 1219.7 233.63C1220.15 233.63 1220.99 233.72 1221.28 233.27C1221.99 232.18 1220.14 230.5 1219.32 226.24C1218.96 224.39 1218.06 220.61 1220.54 219.86C1221.81 219.47 1223.4 219.78 1224.71 219.81C1225.7 219.84 1226.7 219.82 1227.69 219.83C1225.92 212.92 1225.51 213.3 1226.22 211.76C1226.41 211.36 1227.03 211.16 1227.4 211.41C1228.79 212.33 1228.39 212.14 1230.71 220.84C1230.92 221.63 1230.35 222.59 1229.46 222.57C1228.12 222.53 1222.04 222.05 1221.28 222.11C1221.33 222.18 1221.26 222.51 1221.26 222.58C1221.29 225.45 1222.27 227.89 1223.28 230.51C1224.11 232.66 1224.06 235.56 1221.32 236.17C1219.83 236.5 1216.79 236.28 1214.45 236.01C1215.69 240.22 1216.95 244.43 1218.16 248.65C1218.4 249.48 1217.76 250.64 1216.78 250.55C1214.06 250.31 1211.34 250.15 1208.62 250.02C1209.37 252.5 1210.5 254.85 1211.97 256.99C1213.05 258.57 1210.83 260.5 1208.38 256.33C1206.93 254.04 1205.89 251.54 1205.26 248.87C1205.05 247.99 1205.64 246.94 1206.64 246.96C1209.34 247.01 1212.04 247.18 1214.73 247.41C1213.55 243.2 1212.41 238.97 1211.23 234.76C1210.93 233.73 1211.84 232.87 1212.85 233.04Z" fill="#66CCB2"/>
<path d="M1149.65 209.57C1148.86 209.54 1148.38 209.03 1148.27 208.27C1147.73 204.57 1147.52 200.91 1148.26 197.21C1148.65 195.28 1151.45 196.01 1151.19 197.89C1150.78 200.84 1150.51 203.89 1150.79 206.88C1152.98 206.83 1155.14 206.58 1157.28 206.06C1158.09 205.86 1159.15 206.41 1159.09 207.37C1158.95 209.75 1158.14 218.77 1158.04 218.84C1158.06 218.83 1158.12 218.82 1158.28 218.85C1159.22 219.04 1162.45 218.37 1163.91 218.46C1165.55 218.56 1166.08 220.79 1166.16 222.14C1166.33 224.87 1164.29 227.88 1165.25 230.55C1166.17 233.12 1170.21 230.29 1173.23 232.39C1175.56 234.01 1174.75 236.73 1173.79 241.04C1173.55 242.1 1173.31 243.12 1172.27 243.65C1172.01 243.78 1171.64 243.8 1171.43 243.56C1170.29 242.25 1170.87 240.7 1171.64 236.76C1171.74 236.26 1172.06 235.41 1171.71 234.96C1170.54 233.46 1167.13 235.6 1164.37 233.8C1162.22 232.4 1161.91 229.65 1162.26 227.32C1162.54 225.5 1163.66 223.25 1163.07 221.39C1161.5 221.47 1159.92 221.6 1158.37 221.56C1156.67 221.52 1155.51 220.62 1155.43 218.88C1155.34 216.95 1155.66 214.95 1155.81 213.03C1155.91 211.74 1156.01 210.44 1156.12 209.15C1153.97 209.49 1151.82 209.64 1149.65 209.57Z" fill="#07345A"/>
<path d="M1262.54 304.14C1269.05 312.49 1262.92 316.53 1260.19 314.11C1259.02 313.07 1258.97 311.27 1260.34 310.4C1260.97 310 1261.98 310.63 1261.72 311.4C1261.51 312.03 1262.22 312.2 1262.52 311.53C1262.92 310.63 1262.28 309.5 1261.88 308.7C1260.95 306.84 1259.78 304.42 1257.49 304.06C1254.07 303.52 1250.37 306.94 1252.24 312.16C1254.95 319.69 1267.14 319.6 1269.35 311.72C1270.55 307.43 1268.84 302.76 1265.36 300.04C1264.68 299.51 1265.51 298.6 1266.2 298.9C1271.4 301.13 1273.24 307.89 1271.34 312.95C1269.39 318.14 1263.84 320.62 1258.55 319.73C1253 318.79 1248.48 313.92 1249.21 308.1C1250.01 301.72 1257.98 298.31 1262.54 304.14Z" fill="#3C8F7C"/>
<path d="M1128.08 234.41C1128.98 235.77 1129.49 238.54 1127.65 239.4C1126.8 239.8 1125.76 239.54 1125.46 238.55C1125.17 237.58 1125.7 236.69 1124.83 235.93C1124.08 235.28 1122.98 235.64 1122.28 236.2C1120.16 237.93 1120.71 241.72 1121.81 243.87C1123.57 247.28 1128.36 247.97 1130.74 244.39C1131.49 243.27 1131.67 241.95 1132 240.68C1132.18 239.97 1133.31 239.66 1133.67 240.41C1135.05 243.32 1133.11 246.84 1130.62 248.49C1128.01 250.23 1124.36 250.08 1121.78 248.36C1118.9 246.44 1117.54 242.66 1117.65 239.3C1117.92 232.3 1125.17 230.01 1128.08 234.41Z" fill="#F7CC7F"/>
<path d="M797.65 1211.35C797.65 1211.35 800.75 1216.39 806.88 1213.34C814.35 1209.62 811.37 1204.02 811.37 1204.02L797.65 1211.35Z" fill="white"/>
<path d="M1175.97 359.79C1175.97 359.79 1176.58 365.68 1183.43 365.58C1191.77 365.46 1191.52 359.12 1191.52 359.12L1175.97 359.79Z" fill="white"/>
</svg>
