<svg width="32" height="41" viewBox="0 0 32 41" fill="none" xmlns="http://www.w3.org/2000/svg">
<path d="M1.58399 25.5686C2.37965 28.5387 3.86354 31.2798 5.91552 33.5698C7.96751 35.8599 10.5299 37.6346 13.3953 38.7502C16.2607 39.8658 19.3485 40.291 22.4087 39.9913C25.469 39.6917 28.4157 38.6756 31.0102 37.0254C26.8461 36.8475 22.8473 35.3457 19.5955 32.7384C16.3438 30.1311 14.0087 26.5544 12.93 22.5284C11.8512 18.5025 12.0851 14.2374 13.5975 10.3535C15.11 6.46969 17.8221 3.16968 21.3395 0.933556C18.2674 0.801705 15.2075 1.39511 12.4074 2.66574C9.60729 3.93636 7.14576 5.8485 5.22208 8.24733C3.29839 10.6462 1.96662 13.4643 1.33457 16.4735C0.70252 19.4827 0.787965 22.5985 1.58399 25.5686Z" fill="#03A9F4"/>
</svg>
