<svg width="45" height="43" viewBox="0 0 45 43" fill="none" xmlns="http://www.w3.org/2000/svg">
<path d="M5.952 35.3075L8.71325 38.0688L12.2383 34.5633L9.45742 31.7825L5.952 35.3075ZM20.5416 42.9646H24.4583V37.1875H20.5416V42.9646ZM22.4999 9.77084C19.3836 9.77084 16.395 11.0088 14.1914 13.2123C11.9879 15.4159 10.7499 18.4045 10.7499 21.5208C10.7499 24.6371 11.9879 27.6258 14.1914 29.8293C16.395 32.0329 19.3836 33.2708 22.4999 33.2708C25.6162 33.2708 28.6049 32.0329 30.8084 29.8293C33.012 27.6258 34.2499 24.6371 34.2499 21.5208C34.2499 15.0192 28.982 9.77084 22.4999 9.77084ZM38.1666 23.4792H44.0416V19.5625H38.1666V23.4792ZM32.7616 34.5633L36.2866 38.0688L39.0478 35.3075L35.5424 31.7825L32.7616 34.5633ZM39.0478 7.73417L36.2866 4.97292L32.7616 8.47834L35.5424 11.2592L39.0478 7.73417ZM24.4583 0.0770874H20.5416V5.85417H24.4583V0.0770874ZM6.83325 19.5625H0.958252V23.4792H6.83325V19.5625ZM12.2383 8.47834L8.71325 4.97292L5.952 7.73417L9.45742 11.2592L12.2383 8.47834Z" fill="#03A9F4"/>
</svg>
