<svg width="250" height="150" viewBox="0 0 326 197" fill="none" xmlns="http://www.w3.org/2000/svg">
    <circle cx="177" cy="108" r="67" fill="#03A9F4"/>
    <path d="M177.709 83.9796C174.623 83.9796 171.967 85.7914 170.698 88.4002H184.695C183.427 85.7914 180.772 83.9796 177.709 83.9796Z" fill="white"/>
    <path d="M206.682 93.8344V100.212H208.429V93.8344C208.142 93.9313 207.855 93.9797 207.543 93.9797C207.233 93.9797 206.946 93.9313 206.682 93.8344Z" fill="white"/>
    <path d="M188.571 104.366C190.317 104.366 191.705 105.768 191.705 107.506C191.705 109.271 190.317 110.671 188.571 110.671C186.847 110.671 185.46 109.271 185.46 107.506C185.46 105.768 186.847 104.366 188.571 104.366ZM182.517 107.506C182.517 110.913 185.22 113.642 188.571 113.642C191.943 113.642 194.647 110.913 194.647 107.506C194.647 104.125 191.943 101.396 188.571 101.396C185.22 101.396 182.517 104.125 182.517 107.506Z" fill="white"/>
    <path d="M187.422 86.2986H192.566C192.112 90.7429 190.317 94.7046 188.212 98.5456C191.537 96.4441 196.036 93.327 199.122 86.2986H206.204C210.414 86.2986 213.86 82.8205 213.86 78.5691C213.86 74.3177 210.414 70.8387 206.204 70.8387H187.422C183.211 70.8387 179.766 74.3177 179.766 78.5691C179.766 82.8205 183.211 86.2986 187.422 86.2986Z" fill="white"/>
    <path d="M210.343 90.4284C210.343 88.8827 209.075 87.6268 207.543 87.6268C206.012 87.6268 204.768 88.8827 204.768 90.4284C204.768 91.9988 206.012 93.2548 207.543 93.2548C209.075 93.2548 210.343 91.9988 210.343 90.4284Z" fill="white"/>
    <path d="M148.902 100.937H145.84C144.309 100.937 143.088 102.193 143.088 103.715V111.324C143.088 112.845 144.309 114.102 145.84 114.102H148.902C148.113 112.048 147.682 109.825 147.682 107.506C147.682 105.212 148.113 102.99 148.902 100.937Z" fill="white"/>
    <path d="M147.849 93.2548C149.381 93.2548 150.624 91.9988 150.624 90.4284C150.624 88.8827 149.381 87.6268 147.849 87.6268C146.318 87.6268 145.074 88.8827 145.074 90.4284C145.074 91.9988 146.318 93.2548 147.849 93.2548Z" fill="white"/>
    <path d="M209.122 100.937H206.491C207.28 102.99 207.711 105.212 207.711 107.506C207.711 109.825 207.28 112.048 206.491 114.102H209.122C210.63 114.102 211.874 112.845 211.874 111.324V103.715C211.874 102.193 210.63 100.937 209.122 100.937Z" fill="white"/>
    <path d="M168.306 131.952H187.087V126.638H168.306V131.952Z" fill="white"/>
    <path d="M197.231 91.2502C196.059 92.965 194.719 94.4385 193.164 95.8151C197.83 97.6031 201.179 102.193 201.179 107.506C201.179 114.415 195.605 120.043 188.762 120.043H166.631C159.788 120.043 154.213 114.415 154.213 107.506C154.213 100.622 159.788 94.9943 166.631 94.9943H188.762C188.929 94.9943 189.073 94.9943 189.217 94.9943C190.078 93.1588 190.82 91.274 191.298 89.2941C190.484 89.1734 189.623 89.124 188.762 89.124H166.631C156.606 89.124 148.399 97.3856 148.399 107.506C148.399 117.627 156.606 125.913 166.631 125.913H188.762C198.787 125.913 206.993 117.627 206.993 107.506C206.993 100.478 203.022 94.3426 197.231 91.2502Z" fill="white"/>
    <path d="M146.988 93.8344V100.212H148.71V93.8344C148.448 93.9313 148.16 93.9797 147.849 93.9797C147.539 93.9797 147.251 93.9313 146.988 93.8344Z" fill="white"/>
    <path d="M169.933 107.506C169.933 109.271 168.545 110.671 166.823 110.671C165.076 110.671 163.689 109.271 163.689 107.506C163.689 105.768 165.076 104.366 166.823 104.366C168.545 104.366 169.933 105.768 169.933 107.506ZM160.746 107.506C160.746 110.913 163.448 113.642 166.823 113.642C170.172 113.642 172.899 110.913 172.899 107.506C172.899 104.125 170.172 101.396 166.823 101.396C163.448 101.396 160.746 104.125 160.746 107.506Z" fill="white"/>
    <path d="M84.3415 87.3608L77.8455 82.7217C76.2771 81.571 74.918 80.6878 73.3818 79.7867L73.3999 79.7412C75.1397 80.197 76.7022 80.5032 78.6052 80.8135L86.4398 82.0903L87.6246 79.1143L73.959 68.8838L72.8284 71.7235L79.1015 76.0632C80.8243 77.2228 82.4288 78.2827 84.0014 79.2246L83.9833 79.27C82.2345 78.837 80.395 78.4994 78.4329 78.1393L70.7844 76.8577L69.6177 79.7882L75.8863 84.2052C77.6455 85.4056 79.2911 86.5607 80.8045 87.4528L80.7865 87.4982C79.1649 87.1422 77.0664 86.7278 75.0498 86.3724L67.5194 85.0587L66.3346 88.0348L83.1386 90.3822L84.3415 87.3608Z" fill="black"/>
    <path d="M91.772 58.5161C89.6077 57.046 86.987 56.596 84.8437 59.7514C83.7857 61.3089 83.3449 62.8717 83.2953 63.9021L85.2432 64.5158C85.2718 63.5598 85.6554 62.3424 86.3149 61.3715C87.4964 59.632 88.7471 60.0972 89.3943 60.5369L89.5561 60.6468C87.0628 64.2739 86.8395 67.3442 89.3072 69.0204C90.804 70.0371 92.9957 69.9001 94.3422 67.9179C95.2215 66.6234 95.3761 65.2209 95.0059 64.1122L95.0471 64.0515L96.263 64.6114L97.7881 62.3662C97.0989 62.0754 96.2016 61.5251 95.3117 60.9205L91.772 58.5161ZM92.5707 62.6058C92.7527 62.7295 92.9348 62.8531 93.0756 63.0375C93.6187 63.7611 93.785 64.9087 93.0981 65.92C92.5622 66.7088 91.6913 67.0336 90.7204 66.3741C89.2237 65.3574 90 63.4313 91.2155 61.6853L92.5707 62.6058Z" fill="black"/>
    <path d="M102.325 56.6879L104.438 54.5473L99.4431 49.6178C99.1995 49.3773 98.9728 49.0849 98.8675 48.8435C98.4468 47.9818 98.4217 46.7889 99.2633 45.9361C100.414 44.7701 101.783 45.2279 103.001 46.4303L107.787 51.1537L109.9 49.0131L104.87 44.0492C102.19 41.4041 99.7215 41.9909 98.2616 43.4702C96.8703 44.8798 96.7605 46.5923 97.044 47.6279L96.9925 47.6801L95.619 46.5306L93.7811 48.3928C94.5464 49.0794 95.3987 49.8519 96.3733 50.8137L102.325 56.6879Z" fill="black"/>
    <path d="M115.581 44.1951L118.06 42.4922L114.086 36.7078C113.893 36.4256 113.725 36.0956 113.667 35.8387C113.417 34.913 113.618 33.7368 114.605 33.0584C115.956 32.1308 117.214 32.8391 118.183 34.2499L121.99 39.7925L124.469 38.0896L120.468 32.2648C118.336 29.161 115.801 29.2708 114.088 30.4476C112.455 31.5691 112.024 33.23 112.106 34.3004L112.046 34.342L110.914 32.9537L108.758 34.4351C109.38 35.2539 110.071 36.1735 110.846 37.3022L115.581 44.1951Z" fill="black"/>
    <path d="M136.51 24.1808C135.444 21.7915 133.453 20.0293 129.969 21.5838C128.25 22.3511 127.053 23.4478 126.468 24.2978L127.801 25.845C128.329 25.0472 129.296 24.2141 130.367 23.7357C132.288 22.8788 133.106 23.9327 133.425 24.6472L133.505 24.8259C129.475 26.5972 127.669 29.0901 128.885 31.8143C129.622 33.4666 131.558 34.5039 133.746 33.5274C135.175 32.8897 136.045 31.7786 136.314 30.6411L136.381 30.6112L137.12 31.7273L139.599 30.6212C139.166 30.0111 138.693 29.0709 138.254 28.0884L136.51 24.1808ZM135.037 28.0784C135.126 28.2793 135.216 28.4803 135.239 28.7112C135.319 29.6123 134.857 30.6756 133.74 31.1738C132.869 31.5624 131.958 31.3801 131.48 30.3083C130.742 28.6559 132.416 27.4269 134.369 26.5823L135.037 28.0784Z" fill="black"/>
    <path d="M155.282 25.9354L158.259 25.5082L157.245 18.4406C157.2 18.126 157.179 17.8079 157.237 17.5277C157.448 16.5835 158.159 15.6909 159.321 15.5242C160.967 15.2879 161.784 16.5046 162.027 18.1989L162.979 24.8307L165.956 24.4034L164.959 17.4569C164.417 13.6812 162.12 12.6522 160.111 12.9405C159.361 13.0482 158.687 13.3426 158.13 13.7683C157.571 14.1698 157.128 14.7026 156.845 15.3114L156.797 15.3183L155.793 8.32344L152.816 8.75073L155.282 25.9354Z" fill="black"/>
    <path d="M182.916 17.275C183.019 14.6607 182.016 12.1983 178.204 12.0473C176.323 11.9727 174.763 12.4248 173.862 12.9275L174.371 14.9053C175.198 14.4242 176.434 14.1061 177.607 14.1526C179.708 14.2358 179.974 15.5433 179.943 16.3252L179.936 16.5206C175.539 16.322 172.815 17.7557 172.696 20.7365C172.625 22.5445 173.9 24.3325 176.294 24.4274C177.858 24.4893 179.13 23.879 179.875 22.9786L179.949 22.9815L180.116 24.3096L182.828 24.417C182.711 23.6783 182.704 22.6257 182.746 21.5507L182.916 17.275ZM179.867 20.1152C179.858 20.335 179.849 20.5549 179.767 20.7719C179.44 21.6155 178.554 22.3634 177.332 22.315C176.379 22.2773 175.643 21.7097 175.69 20.537C175.761 18.729 177.807 18.3695 179.931 18.4782L179.867 20.1152Z" fill="black"/>
    <path d="M191.256 13.3855L193.054 25.9615L195.945 26.5894L202.917 15.9177L199.834 15.2483L196.689 20.7456C196.15 21.7296 195.69 22.5805 195.267 23.4896L195.195 23.474C195.188 22.4715 195.151 21.4877 195.04 20.3876L194.434 14.0756L191.256 13.3855Z" fill="black"/>
    <path d="M217.499 28.5294C217.646 28.2989 217.858 27.91 218.071 27.3894C219.061 24.9676 219.086 21.5441 215.51 20.0822C211.979 18.6388 208.948 20.7546 207.699 23.8102C206.321 27.1826 207.528 30.2385 211.104 31.7004C212.689 32.3481 214.122 32.5905 215.239 32.5717L215.609 30.5039C214.628 30.4466 213.64 30.2802 212.35 29.7528C210.561 29.0218 209.374 27.5326 210.12 25.5131L217.499 28.5294ZM210.916 23.5666C211.492 22.4811 212.855 21.2155 214.575 21.9187C216.431 22.6774 216.199 24.5373 215.76 25.5466L210.916 23.5666Z" fill="black"/>
    <path d="M231.817 43.2071L237.535 35.4232L239.604 36.9432L240.936 35.1302L238.847 33.5957L239.209 33.1031C240.078 31.9207 241.21 31.2052 242.412 32.0883C242.866 32.4212 243.123 32.7317 243.327 33.0328L244.859 31.2766C244.572 30.8833 244.146 30.3887 243.496 29.911C242.649 29.2885 241.515 28.8498 240.313 28.9987C238.906 29.1789 237.659 30.1743 236.747 31.4158L236.443 31.8296L235.143 30.8742L233.811 32.6872L235.111 33.6426L229.393 41.4265L231.817 43.2071Z" fill="black"/>
    <path d="M254.672 47.8751L252.559 45.7345L247.443 50.7842C247.199 51.0247 246.921 51.2304 246.661 51.3151C245.898 51.6559 244.757 51.683 243.898 50.8128C242.781 49.6816 243.24 48.336 244.649 46.9447L249.261 42.393L247.149 40.2524L242.171 45.1648C239.404 47.8958 239.873 50.2158 241.385 51.7473C242.896 53.2788 244.591 53.2553 245.543 53.0368L245.595 53.089L244.427 54.4473L246.265 56.3094C246.927 55.5876 247.728 54.7283 248.737 53.7321L254.672 47.8751Z" fill="black"/>
    <path d="M251.025 62.0705L252.695 64.5717L258.532 60.6746C258.816 60.4845 259.148 60.3215 259.406 60.267C260.335 60.029 261.508 60.2451 262.174 61.2415C263.083 62.604 262.359 63.8524 260.935 64.8029L255.343 68.537L257.013 71.0382L262.89 67.114C266.022 65.0228 265.945 62.4865 264.791 60.7581C263.691 59.1109 262.036 58.6578 260.965 58.7264L260.924 58.6654L262.327 57.5522L260.874 55.3763C260.047 55.9873 259.118 56.6662 257.98 57.4266L251.025 62.0705Z" fill="black"/>
    <path d="M266.916 79.6429L267.408 79.4243C268.461 78.9027 269.526 78.8304 270.951 79.267C272.473 79.7408 273.995 80.2146 275.626 79.4892C277.413 78.6943 278.455 76.7054 277.223 73.935C276.587 72.5051 275.619 71.4105 274.747 70.8347L273.079 72.3794C273.752 72.7491 274.395 73.5335 274.743 74.3155C275.277 75.5765 274.92 76.458 273.982 76.8753C273.11 77.2629 272.07 77.0298 270.665 76.6379C268.946 76.1442 267.539 76.2886 266.404 76.927L265.833 77.2076L266.916 79.6429ZM261.492 80.5033C261.959 81.5534 263.017 81.8858 264 81.4486C265.018 80.9692 265.434 79.9809 264.987 78.9756C264.55 77.9925 263.517 77.5955 262.489 78.0526C261.506 78.4898 261.055 79.5203 261.492 80.5033Z" fill="black"/>
</svg>
