<svg width="200" height="145" viewBox="0 0 245 145" fill="none" xmlns="http://www.w3.org/2000/svg">
<path d="M169.439 52.3356C160.897 48.4831 151.74 45.6356 142.165 44.0165C142.079 44.0001 141.991 44.0107 141.912 44.0467C141.833 44.0827 141.767 44.1424 141.724 44.2175C140.551 46.2777 139.245 48.9633 138.329 51.085C128.173 49.5676 117.849 49.5676 107.693 51.085C106.673 48.7336 105.523 46.4409 104.248 44.2175C104.205 44.1414 104.14 44.0804 104.061 44.0425C103.982 44.0046 103.894 43.9916 103.807 44.0053C94.2373 45.6245 85.0807 48.472 76.5326 52.3301C76.4591 52.3609 76.3967 52.4135 76.3539 52.4808C58.9786 78.0246 54.216 102.937 56.5554 127.538C56.5619 127.598 56.5806 127.656 56.6104 127.709C56.6402 127.762 56.6803 127.808 56.7285 127.845C66.87 135.228 78.1816 140.853 90.1894 144.483C90.2731 144.509 90.3627 144.509 90.4463 144.483C90.53 144.457 90.6039 144.406 90.6584 144.338C93.2424 140.882 95.5321 137.216 97.5036 133.378C97.531 133.325 97.5467 133.268 97.5498 133.208C97.5529 133.149 97.5433 133.09 97.5216 133.035C97.4999 132.98 97.4666 132.93 97.424 132.889C97.3814 132.848 97.3305 132.817 97.2747 132.797C93.6679 131.439 90.1732 129.8 86.8227 127.895C86.7625 127.861 86.7117 127.812 86.675 127.753C86.6383 127.694 86.6168 127.627 86.6124 127.558C86.6079 127.489 86.6208 127.42 86.6497 127.357C86.6786 127.294 86.7227 127.239 86.778 127.197C87.4815 126.678 88.185 126.136 88.855 125.595C88.9153 125.546 88.988 125.515 89.0649 125.505C89.1417 125.495 89.2199 125.507 89.2905 125.539C111.216 135.388 134.962 135.388 156.631 125.539C156.702 125.505 156.781 125.492 156.859 125.501C156.937 125.509 157.011 125.54 157.072 125.589C157.742 126.136 158.44 126.678 159.149 127.197C159.205 127.238 159.25 127.292 159.28 127.354C159.31 127.417 159.323 127.486 159.32 127.555C159.317 127.624 159.296 127.691 159.261 127.751C159.225 127.81 159.175 127.86 159.116 127.895C155.777 129.816 152.304 131.44 148.658 132.791C148.602 132.812 148.551 132.844 148.508 132.885C148.466 132.927 148.433 132.977 148.411 133.033C148.389 133.088 148.38 133.148 148.383 133.207C148.386 133.267 148.402 133.325 148.429 133.378C150.439 137.213 152.74 140.865 155.269 144.332C155.321 144.403 155.395 144.457 155.479 144.485C155.562 144.513 155.653 144.514 155.738 144.489C167.766 140.869 179.096 135.241 189.249 127.845C189.298 127.81 189.34 127.765 189.371 127.713C189.402 127.661 189.421 127.603 189.428 127.543C192.219 99.1016 184.749 74.3898 169.612 52.492C169.575 52.4208 169.514 52.3653 169.439 52.3356ZM100.781 112.557C94.1815 112.557 88.7378 106.589 88.7378 99.2691C88.7378 91.9438 94.0754 85.9808 100.781 85.9808C107.537 85.9808 112.93 91.9941 112.824 99.2691C112.824 106.594 107.487 112.557 100.781 112.557ZM145.308 112.557C138.703 112.557 133.265 106.589 133.265 99.2691C133.265 91.9438 138.597 85.9808 145.308 85.9808C152.064 85.9808 157.457 91.9941 157.351 99.2691C157.351 106.594 152.07 112.557 145.308 112.557Z" fill="#03A9F4"/>
<path d="M21.3711 81.4329L15.9382 75.4626C14.632 73.9904 13.48 72.8288 12.1608 71.6132L12.1862 71.5714C13.7794 72.3827 15.2283 73.008 17.004 73.7068L24.3145 76.5835L25.9766 73.8452L14.6304 60.8136L13.0445 63.4265L18.3154 69.0515C19.7686 70.5641 21.1256 71.9527 22.4726 73.2166L22.4473 73.2584C20.8414 72.468 19.1316 71.7548 17.3078 70.994L10.1771 68.1505L8.54048 70.8469L13.7936 76.5484C15.2747 78.1092 16.6544 79.6016 17.9533 80.8035L17.9279 80.8453C16.4309 80.158 14.4856 79.3151 12.6086 78.5478L5.59702 75.6964L3.93498 78.4346L19.6836 84.213L21.3711 81.4329Z" fill="white"/>
<path d="M31.8788 54.7963C29.9743 53.0023 27.5015 52.1825 25.0376 55.0944C23.8215 56.5317 23.2002 58.0598 23.0232 59.1006L24.8261 59.9939C24.9735 59.0259 25.4963 57.8411 26.2544 56.9451C27.6127 55.3398 28.7614 55.9857 29.3309 56.5222L29.4733 56.6564C26.6125 59.9995 26.0123 63.0904 28.1837 65.1359C29.5008 66.3766 31.6332 66.5404 33.181 64.7111C34.1918 63.5164 34.5168 62.1118 34.2985 60.9333L34.3459 60.8773L35.4491 61.6147L37.2023 59.5427C36.5736 59.1517 35.7767 58.4681 34.9935 57.7304L31.8788 54.7963ZM32.1371 59.065C32.2973 59.2159 32.4575 59.3668 32.5703 59.5737C33.0037 60.3845 33.0204 61.5743 32.2307 62.5077C31.6147 63.2356 30.7335 63.4454 29.8792 62.6407C28.5621 61.4 29.5527 59.5489 30.9446 57.9417L32.1371 59.065Z" fill="white"/>
<path d="M41.4125 55.0323L43.6381 53.0094L39.2 47.5734C38.9835 47.3082 38.7878 46.9912 38.7055 46.736C38.3686 45.8214 38.4426 44.5992 39.3292 43.7934C40.5415 42.6915 41.8316 43.2678 42.914 44.5936L47.1666 49.8024L49.3922 47.7796L44.9232 42.3056C42.5418 39.3886 40.0989 39.7942 38.5609 41.1921C37.0952 42.5242 36.8476 44.2672 37.0371 45.3487L36.9828 45.3981L35.7454 44.1141L33.8093 45.8738C34.4949 46.6364 35.2579 47.4938 36.1239 48.5545L41.4125 55.0323Z" fill="white"/>
<path d="M53.768 44.2755L56.2478 42.5737L52.5654 36.5998C52.3858 36.3084 52.2336 35.9685 52.186 35.705C51.9733 34.755 52.2097 33.556 53.1976 32.8781C54.5484 31.9511 55.7526 32.6946 56.6508 34.1517L60.1792 39.8758L62.6591 38.174L58.951 32.1585C56.9751 28.953 54.4952 29.0257 52.7815 30.2017C51.1484 31.3223 50.6701 33.0131 50.7141 34.1085L50.6536 34.15L49.596 32.7135L47.4388 34.1939C48.018 35.0405 48.6614 35.9911 49.3799 37.1567L53.768 44.2755Z" fill="white"/>
<path d="M72.7284 24.7206C71.6491 22.3373 69.6679 20.6275 66.2618 22.3447C64.5806 23.1923 63.4169 24.3536 62.8528 25.2399L64.1838 26.7576C64.6925 25.9266 65.6329 25.0421 66.6809 24.5137C68.5586 23.567 69.3771 24.6045 69.6999 25.3172L69.7806 25.4954C65.8404 27.4546 64.096 30.0577 65.3266 32.7752C66.0731 34.4235 67.9901 35.3995 70.1299 34.3207C71.5272 33.6162 72.3684 32.4534 72.6183 31.2878L72.6838 31.2547L73.425 32.3585L75.8485 31.1366C75.4149 30.5344 74.9375 29.5986 74.4937 28.6186L72.7284 24.7206ZM71.3289 28.7367C71.4197 28.9372 71.5105 29.1377 71.5357 29.3712C71.6268 30.2828 71.1854 31.3809 70.0937 31.9313C69.2422 32.3606 68.3434 32.2118 67.8592 31.1427C67.1128 29.4944 68.7434 28.1798 70.653 27.2444L71.3289 28.7367Z" fill="white"/>
<path d="M87.253 11.9535L87.7861 14.1138L86.1592 14.5608L86.6981 16.7448L88.325 16.2979L89.6666 21.7343C90.0415 23.2536 90.5881 24.2442 91.3887 24.734C92.0775 25.1785 93.0377 25.2949 94.1223 24.997C95.0183 24.7508 95.7612 24.3946 96.1446 24.1119L95.5527 21.917C95.246 22.1027 94.9689 22.2041 94.4502 22.3466C93.342 22.6511 92.789 22.0425 92.4375 20.6181L91.178 15.5141L93.9367 14.7562L93.3977 12.5722L90.6391 13.3301L89.9068 10.3626L87.253 11.9535Z" fill="white"/>
<path d="M110.953 16.3782C110.965 16.1044 110.954 15.661 110.879 15.1036C110.529 12.5108 108.846 9.54967 105.026 10.1239C101.254 10.6909 99.6865 14.0664 100.128 17.3378C100.616 20.9483 103.182 22.9608 107.002 22.3865C108.695 22.1321 110.055 21.6063 111.012 21.0175L110.301 19.0474C109.425 19.5005 108.487 19.864 107.109 20.0712C105.199 20.3583 103.43 19.6846 103.07 17.5631L110.953 16.3782ZM102.788 15.4792C102.746 14.2494 103.294 12.4611 105.131 12.1849C107.114 11.8868 107.84 13.6073 107.963 14.7014L102.788 15.4792Z" fill="white"/>
<path d="M115.256 9.2546L119.32 15.0386L115.269 21.1638L118.594 21.1141L119.932 18.7221C120.289 18.0564 120.648 17.4642 120.981 16.7745L121.03 16.7737C121.381 17.4288 121.732 18.0594 122.132 18.6892L123.606 21.0393L127.029 20.9882L122.888 14.863L126.796 9.08228L123.52 9.1312L122.229 11.3514C121.871 11.9681 121.537 12.5845 121.203 13.2497L121.154 13.2504C120.804 12.6443 120.454 12.0626 120.054 11.4328L118.606 9.20458L115.256 9.2546Z" fill="white"/>
<path d="M133.805 7.44113L133.596 9.65644L131.918 9.48049L131.707 11.7201L133.385 11.8961L132.86 17.4709C132.713 19.0289 132.902 20.155 133.494 20.9055C133.996 21.5727 134.862 22.0323 135.981 22.1496C136.905 22.2465 137.721 22.1846 138.175 22.06L138.339 19.7909C137.99 19.8526 137.696 19.8464 137.161 19.7903C136.018 19.6704 135.697 18.8993 135.835 17.4386L136.328 12.2047L139.173 12.503L139.384 10.2634L136.539 9.965L136.825 6.92199L133.805 7.44113Z" fill="white"/>
<path d="M151.387 29.8286L154.249 30.7534L155.967 24.8357L156.013 24.8508C156.329 25.9545 157.339 26.9485 158.758 27.4071C161.341 28.2416 164.503 27.0801 165.702 22.9471C166.738 19.3778 165.229 16.4242 162.623 15.5822C160.901 15.0259 159.363 15.3253 158.151 16.3462L158.104 16.3312L158.476 14.5248L155.963 13.7129C155.696 14.8081 155.388 16.0443 154.952 17.5472L151.387 29.8286ZM157.5 19.5521C157.568 19.3173 157.69 19.074 157.805 18.8542C158.475 17.6839 159.821 17.1684 161.008 17.5518C162.846 18.1457 163.346 20.1053 162.76 22.1248C162.105 24.3791 160.592 25.5597 158.777 24.9733C157.544 24.5748 156.789 23.4061 156.827 22.1343C156.856 21.8609 156.907 21.5951 156.989 21.3133L157.5 19.5521Z" fill="white"/>
<path d="M179.811 30.7591C179.962 30.5339 180.182 30.1519 180.407 29.6365C181.454 27.2386 181.582 23.7696 178.107 22.081C174.676 20.4138 171.631 22.3835 170.31 25.4088C168.853 28.7479 169.949 31.9156 173.424 33.6042C174.963 34.3523 176.366 34.6808 177.466 34.7263L177.892 32.6515C176.929 32.5367 175.961 32.3109 174.707 31.7017C172.97 30.8574 171.846 29.2791 172.641 27.275L179.811 30.7591ZM173.482 25.3477C174.081 24.2807 175.46 23.0764 177.132 23.8886C178.935 24.765 178.651 26.6371 178.189 27.6348L173.482 25.3477Z" fill="white"/>
<path d="M192.954 30.7844C189.962 28.7937 186.595 29.4288 184.588 32.7872C182.619 36.0827 183.618 39.5049 186.408 41.3602C188.932 43.0395 192.501 43.0666 194.746 39.3094C196.602 36.2028 195.906 32.7481 192.954 30.7844ZM191.777 32.612C193.487 33.7495 193.076 36.0571 192.123 37.6524C190.881 39.7305 189.03 40.4942 187.605 39.5462C186.099 38.5441 186.032 36.4173 187.211 34.4442C188.227 32.7439 190.006 31.4338 191.777 32.612Z" fill="white"/>
<path d="M192.377 51.5474L194.624 53.5464L198.471 48.7325L198.507 48.7651C198.369 49.9163 198.904 51.2419 200.018 52.2332C202.046 54.0372 205.371 54.2174 208.058 50.8554C210.378 47.9518 210.144 44.6065 208.098 42.7863C206.746 41.5837 205.232 41.2495 203.734 41.7151L203.698 41.6826L204.733 40.1524L202.76 38.3972C202.094 39.3084 201.337 40.3342 200.36 41.5568L192.377 51.5474ZM201.905 44.4345C202.058 44.2434 202.262 44.0658 202.451 43.9073C203.513 43.087 204.937 43.1441 205.868 43.9729C207.312 45.2568 207.01 47.2766 205.698 48.9194C204.232 50.7532 202.4 51.2473 200.975 49.9797C200.007 49.1183 199.771 47.7318 200.296 46.5654C200.428 46.3228 200.577 46.0964 200.76 45.8672L201.905 44.4345Z" fill="white"/>
<path d="M207.837 59.8231L209.843 62.0635L222.137 49.8055L220.13 47.5651L207.837 59.8231Z" fill="white"/>
<path d="M224.346 72.7412C224.584 72.6123 224.956 72.3762 225.394 72.0239C227.434 70.3848 229.167 67.3625 226.905 64.2302C224.673 61.1374 221.079 61.4572 218.506 63.5252C215.666 65.8077 215.148 69.1373 217.41 72.2697C218.412 73.6574 219.489 74.6081 220.434 75.1651L221.777 73.5215C220.985 72.9672 220.241 72.3121 219.425 71.1821C218.295 69.6159 218.046 67.6857 219.68 66.2782L224.346 72.7412ZM221.319 64.9608C222.343 64.294 224.117 63.8714 225.204 65.3781C226.378 67.0038 225.254 68.5339 224.382 69.2034L221.319 64.9608Z" fill="white"/>
<path d="M229.577 82.0582L230.034 81.775C231.008 81.1144 232.039 80.9071 233.471 81.1698C235.001 81.4578 236.53 81.7459 238.048 80.8062C239.711 79.7764 240.53 77.6315 239.057 74.9818C238.296 73.6142 237.244 72.6279 236.338 72.1547L234.865 73.9285C235.557 74.2182 236.262 74.9313 236.678 75.6792C237.322 76.8888 237.061 77.8262 236.188 78.3668C235.377 78.8689 234.341 78.7638 232.933 78.544C231.21 78.2605 229.853 78.5839 228.81 79.373L228.282 79.729L229.577 82.0582ZM224.376 83.6122C224.935 84.6166 225.998 84.82 226.913 84.2536C227.858 83.64 228.166 82.587 227.631 81.6254C227.108 80.6852 226.063 80.4133 225.107 81.0055C224.192 81.5719 223.853 82.672 224.376 83.6122Z" fill="white"/>
</svg>
