<svg width="250" height="150" viewBox="0 0 324 197" fill="none" xmlns="http://www.w3.org/2000/svg">
    <circle cx="177" cy="108" r="67" fill="#03A9F4"/>
    <path d="M177.709 83.9796C174.623 83.9796 171.967 85.7913 170.698 88.4001H184.695C183.427 85.7913 180.772 83.9796 177.709 83.9796Z" fill="white"/>
    <path d="M206.682 93.8344V100.212H208.429V93.8344C208.142 93.9313 207.855 93.9797 207.543 93.9797C207.233 93.9797 206.946 93.9313 206.682 93.8344Z" fill="white"/>
    <path d="M188.571 104.366C190.317 104.366 191.705 105.768 191.705 107.506C191.705 109.27 190.317 110.671 188.571 110.671C186.847 110.671 185.46 109.27 185.46 107.506C185.46 105.768 186.847 104.366 188.571 104.366ZM182.517 107.506C182.517 110.913 185.22 113.642 188.571 113.642C191.943 113.642 194.647 110.913 194.647 107.506C194.647 104.125 191.943 101.396 188.571 101.396C185.22 101.396 182.517 104.125 182.517 107.506Z" fill="white"/>
    <path d="M187.422 86.2986H192.566C192.112 90.7429 190.317 94.7045 188.212 98.5455C191.537 96.4441 196.036 93.327 199.122 86.2986H206.204C210.414 86.2986 213.86 82.8205 213.86 78.5691C213.86 74.3177 210.414 70.8386 206.204 70.8386H187.422C183.211 70.8386 179.766 74.3177 179.766 78.5691C179.766 82.8205 183.211 86.2986 187.422 86.2986Z" fill="white"/>
    <path d="M210.343 90.4284C210.343 88.8827 209.075 87.6267 207.543 87.6267C206.012 87.6267 204.768 88.8827 204.768 90.4284C204.768 91.9988 206.012 93.2547 207.543 93.2547C209.075 93.2547 210.343 91.9988 210.343 90.4284Z" fill="white"/>
    <path d="M148.902 100.937H145.84C144.309 100.937 143.088 102.193 143.088 103.715V111.324C143.088 112.845 144.309 114.101 145.84 114.101H148.902C148.113 112.047 147.682 109.825 147.682 107.506C147.682 105.212 148.113 102.99 148.902 100.937Z" fill="white"/>
    <path d="M147.849 93.2547C149.381 93.2547 150.624 91.9988 150.624 90.4284C150.624 88.8827 149.381 87.6267 147.849 87.6267C146.318 87.6267 145.074 88.8827 145.074 90.4284C145.074 91.9988 146.318 93.2547 147.849 93.2547Z" fill="white"/>
    <path d="M209.122 100.937H206.491C207.28 102.99 207.711 105.212 207.711 107.506C207.711 109.825 207.28 112.047 206.491 114.101H209.122C210.63 114.101 211.874 112.845 211.874 111.324V103.715C211.874 102.193 210.63 100.937 209.122 100.937Z" fill="white"/>
    <path d="M168.306 131.952H187.087V126.638H168.306V131.952Z" fill="white"/>
    <path d="M197.231 91.2502C196.059 92.965 194.719 94.4385 193.164 95.8151C197.83 97.6031 201.179 102.193 201.179 107.506C201.179 114.415 195.605 120.043 188.762 120.043H166.631C159.788 120.043 154.213 114.415 154.213 107.506C154.213 100.622 159.788 94.9943 166.631 94.9943H188.762C188.929 94.9943 189.073 94.9943 189.217 94.9943C190.078 93.1588 190.82 91.274 191.298 89.2941C190.484 89.1734 189.623 89.124 188.762 89.124H166.631C156.606 89.124 148.399 97.3856 148.399 107.506C148.399 117.627 156.606 125.913 166.631 125.913H188.762C198.787 125.913 206.993 117.627 206.993 107.506C206.993 100.478 203.022 94.3426 197.231 91.2502Z" fill="white"/>
    <path d="M146.988 93.8344V100.212H148.71V93.8344C148.448 93.9313 148.16 93.9797 147.849 93.9797C147.539 93.9797 147.251 93.9313 146.988 93.8344Z" fill="white"/>
    <path d="M169.933 107.506C169.933 109.27 168.545 110.671 166.823 110.671C165.076 110.671 163.689 109.27 163.689 107.506C163.689 105.768 165.076 104.366 166.823 104.366C168.545 104.366 169.933 105.768 169.933 107.506ZM160.746 107.506C160.746 110.913 163.448 113.642 166.823 113.642C170.172 113.642 172.899 110.913 172.899 107.506C172.899 104.125 170.172 101.396 166.823 101.396C163.448 101.396 160.746 104.125 160.746 107.506Z" fill="white"/>
    <path d="M84.3415 87.3648L77.8455 82.7258C76.2771 81.575 74.918 80.6918 73.3818 79.7907L73.3999 79.7453C75.1397 80.2011 76.7022 80.5073 78.6052 80.8175L86.4398 82.0943L87.6246 79.1183L73.959 68.8878L72.8284 71.7275L79.1015 76.0672C80.8243 77.2268 82.4288 78.2867 84.0014 79.2286L83.9833 79.2741C82.2345 78.841 80.395 78.5034 78.4329 78.1434L70.7844 76.8617L69.6177 79.7923L75.8863 84.2092C77.6455 85.4096 79.2911 86.5648 80.8045 87.4568L80.7865 87.5023C79.1649 87.1462 77.0664 86.7319 75.0498 86.3764L67.5194 85.0628L66.3346 88.0388L83.1386 90.3863L84.3415 87.3648Z" fill="#F8F8F8"/>
    <path d="M91.772 58.5201C89.6077 57.05 86.987 56.6 84.8437 59.7554C83.7857 61.3128 83.3449 62.8757 83.2953 63.9061L85.2432 64.5198C85.2718 63.5638 85.6554 62.3464 86.3149 61.3755C87.4964 59.636 88.7471 60.1012 89.3943 60.5409L89.5561 60.6508C87.0628 64.2779 86.8395 67.3482 89.3072 69.0244C90.804 70.0411 92.9957 69.9041 94.3422 67.9219C95.2215 66.6274 95.3761 65.2248 95.0059 64.1162L95.0471 64.0555L96.263 64.6154L97.7881 62.3702C97.0989 62.0794 96.2016 61.529 95.3117 60.9245L91.772 58.5201ZM92.5707 62.6098C92.7527 62.7335 92.9348 62.8571 93.0756 63.0414C93.6187 63.765 93.785 64.9126 93.0981 65.924C92.5622 66.7128 91.6913 67.0376 90.7204 66.3781C89.2237 65.3614 90 63.4352 91.2155 61.6893L92.5707 62.6098Z" fill="#F8F8F8"/>
    <path d="M102.325 56.692L104.438 54.5514L99.4431 49.6218C99.1995 49.3814 98.9728 49.0889 98.8675 48.8476C98.4468 47.9858 98.4217 46.7929 99.2633 45.9402C100.414 44.7741 101.783 45.232 103.001 46.4343L107.787 51.1577L109.9 49.0171L104.87 44.0532C102.19 41.4081 99.7215 41.9949 98.2616 43.4742C96.8703 44.8839 96.7605 46.5963 97.044 47.6319L96.9925 47.6841L95.619 46.5347L93.7811 48.3968C94.5464 49.0834 95.3987 49.8559 96.3733 50.8178L102.325 56.692Z" fill="#F8F8F8"/>
    <path d="M115.581 44.1991L118.06 42.4962L114.086 36.7118C113.893 36.4296 113.725 36.0996 113.667 35.8427C113.417 34.917 113.618 33.7408 114.605 33.0625C115.956 32.1349 117.214 32.8431 118.183 34.2539L121.99 39.7965L124.469 38.0936L120.468 32.2689C118.336 29.165 115.801 29.2748 114.088 30.4516C112.455 31.5731 112.024 33.234 112.106 34.3044L112.046 34.346L110.914 32.9577L108.758 34.4391C109.38 35.2579 110.071 36.1775 110.846 37.3062L115.581 44.1991Z" fill="#F8F8F8"/>
    <path d="M136.51 24.1848C135.444 21.7956 133.453 20.0334 129.969 21.5879C128.25 22.3552 127.053 23.4519 126.468 24.3019L127.801 25.8491C128.329 25.0513 129.296 24.2181 130.367 23.7398C132.288 22.8829 133.106 23.9368 133.425 24.6513L133.505 24.8299C129.475 26.6013 127.669 29.0942 128.885 31.8183C129.622 33.4707 131.558 34.508 133.746 33.5315C135.175 32.8937 136.045 31.7826 136.314 30.6452L136.381 30.6153L137.12 31.7314L139.599 30.6253C139.166 30.0152 138.693 29.0749 138.254 28.0925L136.51 24.1848ZM135.037 28.0825C135.126 28.2834 135.216 28.4844 135.239 28.7152C135.319 29.6163 134.857 30.6796 133.74 31.1779C132.869 31.5665 131.958 31.3842 131.48 30.3124C130.742 28.66 132.416 27.431 134.369 26.5864L135.037 28.0825Z" fill="#F8F8F8"/>
    <path d="M155.282 25.9394L158.259 25.5121L157.245 18.4446C157.2 18.13 157.179 17.8118 157.237 17.5317C157.448 16.5875 158.159 15.6949 159.321 15.5281C160.967 15.2919 161.784 16.5086 162.027 18.2029L162.979 24.8347L165.956 24.4074L164.959 17.4609C164.417 13.6851 162.12 12.6561 160.111 12.9445C159.361 13.0522 158.687 13.3466 158.13 13.7723C157.571 14.1737 157.128 14.7066 156.845 15.3154L156.797 15.3223L155.793 8.32742L152.816 8.75471L155.282 25.9394Z" fill="#F8F8F8"/>
    <path d="M182.916 17.279C183.019 14.6647 182.016 12.2023 178.204 12.0513C176.323 11.9768 174.763 12.4289 173.862 12.9315L174.371 14.9094C175.198 14.4282 176.434 14.1101 177.607 14.1566C179.708 14.2399 179.974 15.5474 179.943 16.3292L179.936 16.5247C175.539 16.326 172.815 17.7597 172.696 20.7405C172.625 22.5486 173.9 24.3365 176.294 24.4314C177.858 24.4933 179.13 23.883 179.875 22.9826L179.949 22.9856L180.116 24.3136L182.828 24.4211C182.711 23.6823 182.704 22.6297 182.746 21.5547L182.916 17.279ZM179.867 20.1192C179.858 20.3391 179.849 20.559 179.767 20.776C179.44 21.6195 178.554 22.3675 177.332 22.3191C176.379 22.2813 175.643 21.7138 175.69 20.541C175.761 18.733 177.807 18.3735 179.931 18.4822L179.867 20.1192Z" fill="#F8F8F8"/>
    <path d="M191.256 13.3896L193.054 25.9656L195.945 26.5935L202.917 15.9217L199.834 15.2524L196.689 20.7497C196.15 21.7336 195.69 22.5846 195.267 23.4937L195.195 23.4781C195.188 22.4756 195.151 21.4918 195.04 20.3917L194.434 14.0797L191.256 13.3896Z" fill="#F8F8F8"/>
    <path d="M217.499 28.5335C217.646 28.303 217.858 27.9141 218.071 27.3935C219.061 24.9717 219.086 21.5482 215.51 20.0863C211.979 18.6429 208.948 20.7587 207.699 23.8142C206.321 27.1866 207.528 30.2426 211.104 31.7045C212.689 32.3522 214.122 32.5946 215.239 32.5758L215.609 30.508C214.628 30.4506 213.64 30.2842 212.35 29.7569C210.561 29.0259 209.374 27.5367 210.12 25.5171L217.499 28.5335ZM210.916 23.5706C211.492 22.4852 212.855 21.2196 214.575 21.9228C216.431 22.6815 216.199 24.5414 215.76 25.5507L210.916 23.5706Z" fill="#F8F8F8"/>
    <path d="M231.817 43.2111L237.535 35.4271L239.604 36.9471L240.936 35.1342L238.847 33.5997L239.209 33.107C240.078 31.9247 241.21 31.2092 242.412 32.0922C242.866 32.4252 243.123 32.7356 243.327 33.0368L244.859 31.2805C244.572 30.8873 244.146 30.3926 243.496 29.9149C242.649 29.2925 241.515 28.8538 240.313 29.0026C238.906 29.1829 237.659 30.1783 236.747 31.4198L236.443 31.8336L235.143 30.8782L233.811 32.6911L235.111 33.6466L229.393 41.4305L231.817 43.2111Z" fill="#F8F8F8"/>
    <path d="M254.672 47.8792L252.559 45.7386L247.443 50.7883C247.199 51.0288 246.921 51.2345 246.661 51.3192C245.898 51.66 244.757 51.6871 243.898 50.8169C242.781 49.6857 243.24 48.3401 244.649 46.9488L249.261 42.3971L247.149 40.2565L242.171 45.1689C239.404 47.8999 239.873 50.2199 241.385 51.7514C242.896 53.2829 244.591 53.2594 245.543 53.0409L245.595 53.0931L244.427 54.4514L246.265 56.3135C246.927 55.5917 247.728 54.7324 248.737 53.7362L254.672 47.8792Z" fill="#F8F8F8"/>
    <path d="M251.025 62.0745L252.695 64.5757L258.532 60.6786C258.816 60.4885 259.148 60.3255 259.406 60.2711C260.335 60.033 261.508 60.2491 262.174 61.2455C263.083 62.608 262.359 63.8564 260.935 64.8069L255.343 68.541L257.013 71.0422L262.89 67.118C266.022 65.0268 265.945 62.4905 264.791 60.7621C263.691 59.1149 262.036 58.6618 260.965 58.7304L260.924 58.6694L262.327 57.5562L260.874 55.3803C260.047 55.9913 259.118 56.6702 257.98 57.4306L251.025 62.0745Z" fill="#F8F8F8"/>
    <path d="M266.916 79.647L267.408 79.4284C268.461 78.9067 269.526 78.8344 270.951 79.271C272.473 79.7448 273.995 80.2186 275.626 79.4933C277.413 78.6983 278.455 76.7094 277.223 73.939C276.587 72.5092 275.619 71.4145 274.747 70.8388L273.079 72.3834C273.752 72.7532 274.395 73.5376 274.743 74.3195C275.277 75.5806 274.92 76.4621 273.982 76.8794C273.11 77.2669 272.07 77.0338 270.665 76.6419C268.946 76.1483 267.539 76.2927 266.404 76.931L265.833 77.2117L266.916 79.647ZM261.492 80.5074C261.959 81.5574 263.017 81.8899 264 81.4526C265.018 80.9732 265.434 79.985 264.987 78.9796C264.55 77.9966 263.517 77.5996 262.489 78.0567C261.506 78.4939 261.055 79.5243 261.492 80.5074Z" fill="#F8F8F8"/>
</svg>
