<svg width="250" height="150" viewBox="0 0 351 197" fill="none" xmlns="http://www.w3.org/2000/svg">
<path d="M82.6369 86.0879L76.8355 80.491C75.4384 79.1087 74.2147 78.0258 72.8203 76.8997L72.8432 76.8565C74.4871 77.5625 75.9754 78.0926 77.7952 78.675L85.2873 81.0723L86.7839 78.2402L74.6338 65.9908L73.2058 68.6932L78.824 73.9568C80.3707 75.3699 81.8135 76.6657 83.2386 77.838L83.2158 77.8812C81.5604 77.1969 79.8057 76.5959 77.9339 75.9549L70.6239 73.5791L69.1502 76.3679L74.7553 81.7087C76.3327 83.1681 77.8046 84.5658 79.1778 85.6795L79.155 85.7227C77.6148 85.134 75.6164 84.4189 73.6911 83.7749L66.4997 81.3835L65.0031 84.2156L81.1174 88.9632L82.6369 86.0879Z" fill="black"/>
<path d="M90.6074 60.5825C88.5927 58.9132 86.0679 58.2485 83.7772 61.2986C82.6465 62.804 82.1168 64.3634 82.0024 65.4105L83.8611 66.1893C83.9502 65.2165 84.402 64.0049 85.1069 63.0664C86.3697 61.385 87.5585 61.9577 88.161 62.4569L88.3117 62.5817C85.6497 66.0854 85.2353 69.1993 87.5323 71.1026C88.9256 72.2571 91.0701 72.2894 92.5091 70.3734C93.4489 69.1221 93.6895 67.7037 93.3998 66.5439L93.4439 66.4852L94.5928 67.1517L96.2227 64.9815C95.5698 64.6308 94.7308 63.999 93.9023 63.3126L90.6074 60.5825ZM91.1235 64.8163C91.2929 64.9568 91.4624 65.0972 91.5878 65.2962C92.0706 66.0769 92.1591 67.2604 91.4249 68.238C90.8522 69.0005 89.9828 69.2634 89.079 68.5145C87.6857 67.3601 88.5656 65.4565 89.862 63.7711L91.1235 64.8163Z" fill="black"/>
<path d="M99.3766 61.259L101.483 59.1122L96.7169 53.9614C96.4844 53.7101 96.2695 53.406 96.172 53.1567C95.7801 52.2658 95.7812 51.0442 96.6203 50.189C97.7677 49.0196 99.0931 49.517 100.256 50.7733L104.822 55.7088L106.929 53.5621L102.129 48.3753C99.572 45.6114 97.1516 46.1602 95.696 47.6438C94.3088 49.0575 94.1651 50.8081 94.4194 51.874L94.3681 51.9264L93.053 50.721L91.2206 52.5885C91.9523 53.3074 92.7671 54.116 93.6971 55.121L99.3766 61.259Z" fill="black"/>
<path d="M110.145 50.7569L112.525 48.9181L108.49 43.1762C108.293 42.8961 108.121 42.5662 108.058 42.3063C107.789 41.3717 107.955 40.1632 108.903 39.4306C110.2 38.429 111.448 39.1006 112.432 40.5011L116.298 46.0028L118.678 44.164L114.615 38.3821C112.45 35.3012 109.974 35.5164 108.329 36.7872C106.762 37.9981 106.383 39.7107 106.492 40.7999L106.434 40.8447L105.291 39.474L103.221 41.0736C103.85 41.884 104.55 42.7944 105.337 43.9147L110.145 50.7569Z" fill="black"/>
<path d="M126.902 30.9626C125.686 28.6461 123.607 27.0522 120.302 28.9566C118.671 29.8966 117.575 31.1204 117.062 32.0361L118.48 33.475C118.941 32.6176 119.829 31.6824 120.846 31.0965C122.668 30.0466 123.546 31.0353 123.91 31.7281L124.001 31.9013C120.176 34.077 118.583 36.7715 119.97 39.4127C120.811 41.0147 122.783 41.8803 124.859 40.684C126.215 39.9027 126.989 38.6956 127.171 37.5189L127.235 37.4823L128.039 38.5415L130.391 37.1864C129.923 36.6102 129.392 35.7037 128.892 34.7511L126.902 30.9626ZM125.735 35.047C125.838 35.2419 125.94 35.4367 125.979 35.6682C126.122 36.5724 125.745 37.6924 124.685 38.3028C123.859 38.7789 122.952 38.6811 122.407 37.6419C121.565 36.0399 123.119 34.637 124.974 33.5965L125.735 35.047Z" fill="black"/>
<path d="M141.728 31.5977C142.705 31.793 144.035 31.7187 145.406 31.2708C148.405 30.2917 149.56 28.2687 148.937 26.1837C148.409 24.5045 147.164 23.7539 144.878 23.7032C143.276 23.635 142.643 23.4816 142.426 22.7554C142.216 22.0526 142.619 21.355 143.642 21.0211C144.642 20.6947 145.683 20.7659 146.232 20.8952L146.211 18.6908C145.425 18.536 144.241 18.5882 142.986 18.9981C140.36 19.8558 139.172 21.9409 139.774 23.9556C140.18 25.3143 141.451 26.2365 143.884 26.2651C145.432 26.3251 146.009 26.5481 146.241 27.3212C146.465 28.0708 146.068 28.7918 144.813 29.2017C143.79 29.5357 142.425 29.4928 141.678 29.2995L141.728 31.5977Z" fill="black"/>
<path d="M163.547 21.4606C163.549 21.1865 163.52 20.7439 163.423 20.19C162.969 17.6133 161.168 14.7214 157.374 15.4463C153.627 16.162 152.196 19.5965 152.769 22.8474C153.401 26.4354 156.047 28.3446 159.841 27.6197C161.523 27.2986 162.86 26.7194 163.793 26.0933L163.004 24.1531C162.146 24.6405 161.224 25.0407 159.855 25.3022C157.958 25.6647 156.163 25.0616 155.718 22.9562L163.547 21.4606ZM155.353 20.8853C155.261 19.6583 155.736 17.8499 157.562 17.5012C159.531 17.125 160.326 18.8152 160.493 19.9034L155.353 20.8853Z" fill="black"/>
<path d="M178.15 20.5442C178.185 20.2729 178.211 19.8307 178.182 19.2691C178.047 16.6563 176.612 13.5503 172.755 13.7585C168.946 13.964 167.104 17.1733 167.275 20.4698C167.464 24.1083 169.858 26.3544 173.716 26.1462C175.425 26.054 176.824 25.6601 177.827 25.1652L177.281 23.1377C176.37 23.5053 175.405 23.7777 174.013 23.8528C172.084 23.9569 170.375 23.1186 170.191 20.9737L178.15 20.5442ZM170.082 18.8736C170.141 17.6461 170.834 15.919 172.69 15.8189C174.692 15.7108 175.274 17.4915 175.307 18.5917L170.082 18.8736Z" fill="black"/>
<path d="M203.087 16.6552L200.122 16.1552L199.054 23.2642C199.003 23.6028 198.904 23.9332 198.747 24.1546C198.341 24.8796 197.446 25.5717 196.241 25.3684C194.673 25.1042 194.235 23.7411 194.53 21.7825L195.492 15.3746L192.526 14.8746L191.488 21.7902C190.91 25.6349 192.67 27.2458 194.792 27.6035C196.914 27.9613 198.253 26.9474 198.883 26.2106L198.955 26.2228L198.835 28.0124L201.415 28.4474C201.512 27.472 201.638 26.3032 201.849 24.9008L203.087 16.6552Z" fill="black"/>
<path d="M203.917 34.2807L206.779 35.2046L208.498 29.2872L208.544 29.3022C208.86 30.4058 209.869 31.3994 211.289 31.8576C213.872 32.6914 217.034 31.5292 218.234 27.3965C219.271 23.8272 217.761 20.8744 215.155 20.0331C213.433 19.4773 211.896 19.777 210.683 20.7981L210.636 20.7831L211.008 18.9769L208.495 18.1656C208.228 19.2608 207.92 20.4969 207.483 21.9997L203.917 34.2807ZM210.032 24.0038C210.1 23.769 210.222 23.5257 210.336 23.3059C211.007 22.1356 212.353 21.6198 213.54 22.0029C215.378 22.5963 215.878 24.5555 215.292 26.5749C214.637 28.8292 213.123 30.0099 211.308 29.424C210.075 29.0259 209.32 27.8576 209.358 26.5858C209.387 26.3125 209.439 26.0467 209.52 25.7649L210.032 24.0038Z" fill="black"/>
<path d="M234.153 22.6798L231.407 28.8178L231.363 28.7961C231.241 27.7538 230.459 26.6302 228.991 25.903C226.427 24.6332 223.224 25.6912 221.618 29.3402C220.12 32.6882 221.147 35.8964 223.711 37.1662C225.245 37.9259 226.877 37.8074 228.052 36.9169L228.095 36.9386L227.458 38.7223L229.846 39.9053C230.132 39.1471 230.627 37.9201 231.127 36.8041L236.848 24.0148L234.153 22.6798ZM229.17 33.8175C229.041 34.1076 228.899 34.3646 228.723 34.5776C227.931 35.6303 226.628 35.9116 225.532 35.3689C223.823 34.5224 223.508 32.594 224.407 30.5852C225.305 28.5765 226.968 27.4916 228.699 28.349C229.926 28.9568 230.392 30.2506 230.163 31.419C230.107 31.6639 229.999 31.9649 229.899 32.1881L229.17 33.8175Z" fill="black"/>
<path d="M245.076 41.661C246.45 39.4349 246.813 36.7552 243.662 34.6057C242.107 33.5447 240.564 33.1136 239.554 33.0752L239.011 35.0703C239.948 35.0881 241.15 35.465 242.12 36.1264C243.857 37.3113 243.439 38.5931 243.028 39.2589L242.925 39.4253C239.302 36.9243 236.291 36.7331 234.723 39.2713C233.773 40.8108 233.971 43.0458 235.951 44.3961C237.244 45.278 238.621 45.419 239.695 45.028L239.755 45.0693L239.244 46.3168L241.486 47.8462C241.75 47.1394 242.262 46.2173 242.827 45.3018L245.076 41.661ZM241.097 42.5249C240.981 42.7122 240.866 42.8994 240.69 43.0453C239.997 43.6081 238.879 43.7916 237.869 43.1027C237.082 42.5653 236.738 41.6805 237.355 40.6818C238.305 39.1423 240.213 39.9114 241.958 41.131L241.097 42.5249Z" fill="black"/>
<path d="M254.199 40.2457L252.824 41.9952L251.549 40.8902L250.159 42.6589L251.434 43.764L247.974 48.1666C247.008 49.3971 246.549 50.4544 246.625 51.4251C246.673 52.2741 247.13 53.1551 247.98 53.8917C248.682 54.5003 249.382 54.9134 249.82 55.0671L251.189 53.2471C250.869 53.0998 250.633 52.9268 250.226 52.5745C249.358 51.8218 249.515 50.9888 250.422 49.8353L253.67 45.7018L255.832 47.5755L257.222 45.8067L255.06 43.933L256.949 41.5298L254.199 40.2457Z" fill="black"/>
<path d="M263.564 62.3659C263.786 62.2108 264.129 61.934 264.525 61.5342C266.365 59.6744 267.741 56.4781 265.129 53.6315C262.55 50.8209 259.01 51.5509 256.688 53.8973C254.126 56.4871 253.995 59.8486 256.607 62.6952C257.764 63.9563 258.947 64.7753 259.951 65.2192L261.098 63.4349C260.246 62.9762 259.43 62.412 258.488 61.385C257.182 59.9617 256.711 58.0761 258.175 56.4926L263.564 62.3659ZM259.654 54.9978C260.597 54.2188 262.312 53.5961 263.569 54.9653C264.924 56.4427 263.982 58.0892 263.192 58.8533L259.654 54.9978Z" fill="black"/>
<path d="M262.428 68.5427C262.557 69.5608 263.044 70.8258 263.885 71.9979C265.724 74.5606 267.936 74.9619 269.645 73.6138C271.013 72.5034 271.306 71.0271 270.632 68.7894C270.19 67.2093 270.131 66.5404 270.726 66.0708C271.302 65.6164 272.066 65.7599 272.693 66.634C273.306 67.4883 273.57 68.5253 273.624 69.1044L275.631 68.2983C275.525 67.4799 275.105 66.3492 274.335 65.2765C272.724 63.0316 270.445 62.6208 268.794 63.9235C267.681 64.802 267.239 66.3645 267.979 68.7365C268.412 70.2617 268.39 70.9014 267.756 71.4012C267.142 71.8859 266.358 71.7575 265.589 70.6848C264.961 69.8107 264.571 68.47 264.512 67.6761L262.428 68.5427Z" fill="black"/>
<path d="M275.902 81.3985L276.36 81.1167C277.336 80.4592 278.369 80.2539 279.805 80.5179C281.34 80.8075 282.874 81.0971 284.394 80.1619C286.061 79.1371 286.879 76.9988 285.397 74.3536C284.632 72.9883 283.576 72.003 282.667 71.5297L281.192 73.2969C281.887 73.5868 282.594 74.2992 283.012 75.0458C283.661 76.2533 283.4 77.1879 282.526 77.726C281.713 78.2256 280.674 78.1193 279.261 77.898C277.533 77.6127 276.173 77.9333 275.129 78.7189L274.599 79.0733L275.902 81.3985ZM270.689 82.9412C271.251 83.9438 272.317 84.1482 273.234 83.5845C274.18 82.9739 274.488 81.924 273.95 80.9641C273.424 80.0254 272.375 79.7527 271.417 80.342C270.501 80.9057 270.163 82.0025 270.689 82.9412Z" fill="black"/>
<circle cx="177" cy="108" r="67" fill="#03A9F4"/>
<path d="M177.709 83.9796C174.623 83.9796 171.967 85.7913 170.698 88.4001H184.695C183.427 85.7913 180.772 83.9796 177.709 83.9796Z" fill="white"/>
<path d="M206.682 93.8343V100.212H208.429V93.8343C208.142 93.9312 207.855 93.9796 207.543 93.9796C207.233 93.9796 206.946 93.9312 206.682 93.8343Z" fill="white"/>
<path d="M188.571 104.366C190.317 104.366 191.705 105.768 191.705 107.506C191.705 109.27 190.317 110.671 188.571 110.671C186.847 110.671 185.46 109.27 185.46 107.506C185.46 105.768 186.847 104.366 188.571 104.366ZM182.517 107.506C182.517 110.913 185.22 113.642 188.571 113.642C191.943 113.642 194.647 110.913 194.647 107.506C194.647 104.125 191.943 101.396 188.571 101.396C185.22 101.396 182.517 104.125 182.517 107.506Z" fill="white"/>
<path d="M187.422 86.2986H192.566C192.112 90.7429 190.317 94.7045 188.212 98.5455C191.537 96.444 196.036 93.327 199.122 86.2986H206.204C210.414 86.2986 213.86 82.8205 213.86 78.5691C213.86 74.3176 210.414 70.8386 206.204 70.8386H187.422C183.211 70.8386 179.766 74.3176 179.766 78.5691C179.766 82.8205 183.211 86.2986 187.422 86.2986Z" fill="white"/>
<path d="M210.343 90.4284C210.343 88.8827 209.075 87.6267 207.543 87.6267C206.012 87.6267 204.768 88.8827 204.768 90.4284C204.768 91.9988 206.012 93.2547 207.543 93.2547C209.075 93.2547 210.343 91.9988 210.343 90.4284Z" fill="white"/>
<path d="M148.902 100.937H145.84C144.309 100.937 143.088 102.193 143.088 103.715V111.324C143.088 112.845 144.309 114.101 145.84 114.101H148.902C148.113 112.047 147.682 109.825 147.682 107.506C147.682 105.212 148.113 102.99 148.902 100.937Z" fill="white"/>
<path d="M147.849 93.2547C149.381 93.2547 150.624 91.9988 150.624 90.4284C150.624 88.8827 149.381 87.6267 147.849 87.6267C146.318 87.6267 145.074 88.8827 145.074 90.4284C145.074 91.9988 146.318 93.2547 147.849 93.2547Z" fill="white"/>
<path d="M209.122 100.937H206.491C207.28 102.99 207.711 105.212 207.711 107.506C207.711 109.825 207.28 112.047 206.491 114.101H209.122C210.63 114.101 211.874 112.845 211.874 111.324V103.715C211.874 102.193 210.63 100.937 209.122 100.937Z" fill="white"/>
<path d="M168.306 131.952H187.087V126.638H168.306V131.952Z" fill="white"/>
<path d="M197.231 91.2501C196.059 92.965 194.719 94.4385 193.164 95.8151C197.83 97.6031 201.179 102.193 201.179 107.506C201.179 114.415 195.605 120.043 188.762 120.043H166.631C159.788 120.043 154.213 114.415 154.213 107.506C154.213 100.622 159.788 94.9943 166.631 94.9943H188.762C188.929 94.9943 189.073 94.9943 189.217 94.9943C190.078 93.1588 190.82 91.2739 191.298 89.294C190.484 89.1734 189.623 89.124 188.762 89.124H166.631C156.606 89.124 148.399 97.3855 148.399 107.506C148.399 117.627 156.606 125.913 166.631 125.913H188.762C198.787 125.913 206.993 117.627 206.993 107.506C206.993 100.478 203.022 94.3425 197.231 91.2501Z" fill="white"/>
<path d="M146.988 93.8343V100.212H148.71V93.8343C148.448 93.9312 148.16 93.9796 147.849 93.9796C147.539 93.9796 147.251 93.9312 146.988 93.8343Z" fill="white"/>
<path d="M169.933 107.506C169.933 109.27 168.545 110.671 166.823 110.671C165.076 110.671 163.689 109.27 163.689 107.506C163.689 105.768 165.076 104.366 166.823 104.366C168.545 104.366 169.933 105.768 169.933 107.506ZM160.746 107.506C160.746 110.913 163.448 113.642 166.823 113.642C170.172 113.642 172.899 110.913 172.899 107.506C172.899 104.125 170.172 101.396 166.823 101.396C163.448 101.396 160.746 104.125 160.746 107.506Z" fill="white"/>
</svg>
